<?xml version="1.0" standalone="no"?>
<!DOCTYPE svg PUBLIC "-//W3C//DTD SVG 1.1//EN" "http://www.w3.org/Graphics/SVG/1.1/DTD/svg11.dtd" >
<svg xmlns="http://www.w3.org/2000/svg">
<metadata>
Created by FontPrep 20130207 at Sun Dec 13 19:42:32 2015
 By Justin Ruckman
Copyright (c) 2007 Linotype GmbH, www.linotype.com. All rights reserved. This font software may not be reproduced, modified, disclosed or transferred without the express written approval of Linotype GmbH.
</metadata>
<defs>
<font id="941e54eaa3e81df898e4fed24c7a34e3" horiz-adv-x='1024' >
  <font-face 
    font-family="NewsGothicCom-Bold"
    font-weight="700"
    font-stretch="normal"
    units-per-em="2048"
    panose-1="2 11 8 4 3 5 3 2 2 4"
    ascent="1393"
    descent="-655"
    x-height="977"
    cap-height="1393"
    bbox="-340 -442 2048 1831"
    underline-thickness="102"
    underline-position="-102"
    unicode-range="U+000D-FB02"
  />
<missing-glyph horiz-adv-x="993" 
d="M993 1393v-1393h-993v1393h993zM897 96v1198h-801v-1198h801zM432 455v47q0 89 21.5 138.5t88.5 111.5q68 63 84.5 102t16.5 74q0 70 -44 112.5t-103.5 42.5t-103.5 -42t-54 -142l-98 16q14 141 85 204t177 63t173.5 -69t67.5 -185q0 -118 -102 -212q-85 -78 -100 -110.5
t-15 -93.5v-57h-94zM430 227v129h109v-129h-109z" />
    <glyph glyph-name="IJ" unicode="IJ" horiz-adv-x="1460" 
d="M410 1393v-1393h-263v1393h263zM1065 412v981h262v-965q0 -209 -101 -332t-319 -123q-155 0 -257 82t-128 217l250 54q30 -144 148 -144q72 0 108 51t37 179z" />
    <glyph glyph-name="ij" unicode="ij" horiz-adv-x="985" 
d="M371 1147h-244v221h244v-221zM371 0h-244v977h244v-977zM858 1147h-244v221h244v-221zM480 -160h24q49 0 80 22t30 93v1022h244v-1034q0 -143 -74 -221t-223 -78q-56 0 -108 8v190q16 -2 27 -2z" />
    <glyph glyph-name="napostrophe" unicode="&#x22;n" horiz-adv-x="1253" 
d="M770 805q-97 0 -192 -88v-717h-244v977h241v-137q124 134 241 155q34 6 67 6q251 0 256 -335v-666h-244v653q0 152 -125 152zM37 1147v248h244v-199l-177 -324l-71 23l84 252h-80z" />
    <glyph glyph-name="fi" unicode="fi" horiz-adv-x="1091" 
d="M965 1147h-244v221h244v-221zM965 0h-244v977h244v-977zM446 1397q71 0 158 -8v-191h-110q-39 0 -67 -19.5t-28 -84.5v-117h205v-172h-198v-805h-244v805h-154v172h154v90q0 153 48 214.5t106.5 88.5t129.5 27z" />
    <glyph glyph-name="fl" unicode="fl" horiz-adv-x="1091" 
d="M965 0h-244v1393h244v-1393zM446 1397q71 0 158 -8v-191h-110q-39 0 -67 -19.5t-28 -84.5v-117h205v-172h-198v-805h-244v805h-154v172h154v90q0 153 48 214.5t106.5 88.5t129.5 27z" />
    <glyph glyph-name=".notdef" horiz-adv-x="993" 
d="M993 1393v-1393h-993v1393h993zM897 96v1198h-801v-1198h801zM432 455v47q0 89 21.5 138.5t88.5 111.5q68 63 84.5 102t16.5 74q0 70 -44 112.5t-103.5 42.5t-103.5 -42t-54 -142l-98 16q14 141 85 204t177 63t173.5 -69t67.5 -185q0 -118 -102 -212q-85 -78 -100 -110.5
t-15 -93.5v-57h-94zM430 227v129h109v-129h-109z" />
    <glyph glyph-name=".null" horiz-adv-x="2048" 
 />
    <glyph glyph-name="nonmarkingreturn" unicode="&#xd;" horiz-adv-x="0" 
 />
    <glyph glyph-name="space" unicode=" " horiz-adv-x="542" 
 />
    <glyph glyph-name="exclam" unicode="!" horiz-adv-x="542" 
d="M397 0h-245v248h245v-248zM375 426h-203l-22 967h262z" />
    <glyph glyph-name="quotedbl" unicode="&#x22;" horiz-adv-x="778" 
d="M455 1393h227v-236l-35 -301h-158l-34 301v236zM96 1393h228v-236l-35 -301h-158l-35 301v236z" />
    <glyph glyph-name="numbersign" unicode="#" 
d="M72 381v151h192l39 275h-176v151h199l53 373h145l-53 -373h213l53 373h146l-52 -373h164v-151h-188l-37 -275h172v-151h-197l-53 -381h-149l53 381h-209l-51 -381h-150l54 381h-168zM623 532l36 275h-210l-35 -275h209z" />
    <glyph glyph-name="dollar" unicode="$" 
d="M332 1048q0 -68 31.5 -112.5t128.5 -75.5v354q-72 -10 -116 -54t-44 -112zM762 369q0 88 -55.5 135t-128.5 71v-395q84 8 134 54.5t50 134.5zM578 -233h-86v215q-182 10 -304 96t-151 266l254 57q18 -104 66.5 -156t134.5 -63v418l-109 31q-135 39 -218 126t-83 249
q0 247 153.5 320t256.5 81v170h86v-170q258 -14 322.5 -134t74.5 -206l-234 -43q-8 80 -50 130t-113 60v-378l104 -31q172 -49 253 -143.5t81 -264.5t-118 -286.5t-320 -128.5v-215z" />
    <glyph glyph-name="percent" unicode="%" horiz-adv-x="1392" 
d="M1038 641q129 0 198 -90t69 -241t-70 -242t-199 -91t-197.5 90.5t-68.5 239.5t69.5 241.5t198.5 92.5zM1147 313q0 209 -111 209q-61 0 -84.5 -56t-23.5 -158t24.5 -157t85.5 -55t85 57.5t24 159.5zM360 1415q129 0 198 -90t69 -241t-70 -241.5t-199 -90.5t-197.5 91
t-68.5 239t69.5 240.5t198.5 92.5zM358.5 1296q-61.5 0 -85 -57t-23.5 -159t25 -156t87 -54t84.5 57.5t22.5 158.5t-24.5 155.5t-86 54.5zM410 0h-174l751 1393h172z" />
    <glyph glyph-name="ampersand" unicode="&#x26;" horiz-adv-x="1310" 
d="M715 1080q0 70 -33.5 116.5t-99.5 46.5t-97.5 -48t-31.5 -111t27.5 -125t58.5 -119q176 102 176 240zM332 397q0 -96 66.5 -162.5t167.5 -66.5t186 72q-208 189 -306 346q-114 -62 -114 -189zM911 113q-191 -133 -381 -133q-203 0 -324.5 105t-121.5 277q0 239 260 381
q-43 80 -73.5 155t-30.5 156q0 155 98 257t243 102t236.5 -89.5t91.5 -224.5q0 -136 -74.5 -229.5t-199.5 -173.5q50 -85 138.5 -175.5t125.5 -119.5q67 109 86 256l213 -39q-16 -147 -125 -333q79 -49 187 -60v-227q-197 0 -349 115z" />
    <glyph glyph-name="quotesingle" unicode="'" horiz-adv-x="542" 
d="M158 1393h227v-236l-35 -301h-157l-35 301v236z" />
    <glyph glyph-name="parenleft" unicode="(" horiz-adv-x="614" 
d="M367 547q0 -224 54 -425.5t183 -418.5l-155 -92q-158 213 -240 451.5t-82 476.5t72.5 475t251.5 485l149 -92q-233 -356 -233 -860z" />
    <glyph glyph-name="parenright" unicode=")" horiz-adv-x="614" 
d="M248 561q0 223 -53 420.5t-185 425.5l156 92q158 -213 239.5 -451.5t81.5 -476.5t-72.5 -475t-250.5 -485l-150 92q234 358 234 858z" />
    <glyph glyph-name="asterisk" unicode="*" horiz-adv-x="716" 
d="M264 1393h191l-9 -187l175 60l51 -176l-172 -52l110 -145l-149 -105l-101 158l-104 -158l-150 105l115 145l-176 52l51 176l174 -60z" />
    <glyph glyph-name="plus" unicode="+" 
d="M635 1067v-405h385v-177h-385v-409h-184v409h-383v177h383v405h184z" />
    <glyph glyph-name="comma" unicode="," horiz-adv-x="542" 
d="M150 0v248h243v-199l-176 -323l-72 22l84 252h-79z" />
    <glyph glyph-name="hyphen" unicode="-" horiz-adv-x="573" 
d="M500 496h-426v190h426v-190z" />
    <glyph glyph-name="period" unicode="." horiz-adv-x="542" 
d="M393 0h-243v248h243v-248z" />
    <glyph glyph-name="slash" unicode="/" horiz-adv-x="675" 
d="M166 0h-178l510 1393h176z" />
    <glyph glyph-name="zero" unicode="0" 
d="M334 691q0 -517 209 -517t209 522t-209 523q-167 0 -188 -205t-21 -323zM191 173q-115 193 -115 521q0 508 172 613.5t353 105.5t295 -192.5t114 -518.5q0 -325 -115.5 -523.5t-352 -198.5t-351.5 193z" />
    <glyph glyph-name="one" unicode="1" 
d="M690 193h232v-193h-709v193h238v962h-238v137l346 101h131v-1200z" />
    <glyph glyph-name="two" unicode="2" 
d="M545 1221q-192 0 -221 -252l-242 41q22 177 136 290t323 113q210 0 325 -109t115 -290q0 -129 -56.5 -221.5t-154.5 -169.5l-231 -183q-159 -126 -224 -227h666v-213h-922v205q67 168 299 362l224 189q145 120 145 266q0 82 -45 140.5t-137 58.5z" />
    <glyph glyph-name="three" unicode="3" 
d="M510 1227q-153 0 -229 -183l-205 80q53 145 172 216t285 71t283.5 -97t117.5 -259q0 -207 -219 -299q117 -29 193.5 -120t76.5 -207q0 -212 -135.5 -330.5t-345.5 -118.5q-295 0 -373 138t-94 212l229 53q51 -211 240 -211q113 0 173 67.5t60 172.5t-79.5 167t-223.5 62
l-102 -2v192q23 -2 28 -2h66q119 0 194.5 55.5t75.5 145.5t-54 143.5t-134 53.5z" />
    <glyph glyph-name="four" unicode="4" 
d="M598 539v456q0 122 12 199q-17 -54 -53 -123l-268 -532h309zM827 539h203v-201h-203v-338h-229v338h-551v174l475 881h305v-854z" />
    <glyph glyph-name="five" unicode="5" 
d="M317 846q105 133 290 133q184 0 296.5 -137t112.5 -346q0 -210 -135 -363t-362 -153t-322 106.5t-123 183.5l217 95q33 -88 92 -134.5t133 -46.5q121 0 184.5 85t63.5 215t-57.5 208t-165.5 78q-72 0 -133.5 -44t-90.5 -108l-208 54l16 721h778l-10 -207h-563z" />
    <glyph glyph-name="six" unicode="6" 
d="M575 700q-138 0 -245 -116q0 -181 64.5 -295.5t169.5 -114.5t162.5 76t57.5 192q0 183 -76.5 220.5t-132.5 37.5zM330 770q156 135 322 135q167 0 273.5 -126.5t106.5 -326.5t-121.5 -336t-346.5 -136t-356.5 182.5t-131.5 509.5q0 328 142.5 534.5t406.5 206.5t360 -248
l-217 -65q-47 125 -170 125t-193.5 -135t-74.5 -320z" />
    <glyph glyph-name="seven" unicode="7" horiz-adv-x="1087" 
d="M1004 1393v-95l-574 -1298h-280l550 1186h-589v207h893z" />
    <glyph glyph-name="eight" unicode="8" 
d="M313 389q0 -111 67.5 -166t169.5 -55t162 59.5t60 155.5t-63 158.5t-172 107.5q-224 -92 -224 -260zM733 1051q0 80 -48 132t-141 52t-141.5 -54.5t-48.5 -136.5t61.5 -142t145.5 -85q94 45 133 99.5t39 134.5zM115 1044q0 154 120 261.5t313 107.5t306 -104t113 -267
q0 -104 -56.5 -176t-160.5 -127q143 -70 205.5 -153.5t62.5 -193.5q0 -197 -142.5 -304.5t-346.5 -107.5t-333.5 107.5t-129.5 281.5q0 129 67.5 217t210.5 147q-229 95 -229 311z" />
    <glyph glyph-name="nine" unicode="9" 
d="M510 705q139 0 246 116q0 171 -62 284.5t-166 113.5t-165.5 -77.5t-61.5 -191.5q0 -170 77 -207.5t132 -37.5zM499 176q130 0 192.5 125t64.5 334q-76 -68 -147 -100.5t-163 -32.5q-179 0 -286 121t-107 315t124.5 334.5t348.5 140.5t354 -182.5t130 -520.5t-135.5 -534
t-397.5 -196q-133 0 -230 59t-151 154l205 118q68 -135 198 -135z" />
    <glyph glyph-name="colon" unicode=":" horiz-adv-x="542" 
d="M393 598h-243v248h243v-248zM393 0h-243v248h243v-248z" />
    <glyph glyph-name="semicolon" unicode=";" horiz-adv-x="542" 
d="M150 0v248h243v-199l-176 -323l-72 22l84 252h-79zM393 598h-243v248h243v-248z" />
    <glyph glyph-name="less" unicode="&#x3c;" 
d="M989 61l-909 428v160l909 426v-196l-665 -312l665 -307v-199z" />
    <glyph glyph-name="equal" unicode="=" 
d="M1020 477v-178h-952v178h952zM1020 848v-178h-952v178h952z" />
    <glyph glyph-name="greater" unicode="&#x3e;" 
d="M94 1075l910 -428v-160l-910 -426v197l666 311l-666 308v198z" />
    <glyph glyph-name="question" unicode="?" horiz-adv-x="819" 
d="M446 0h-245v248h245v-248zM402 1399q169 0 263.5 -86t94.5 -235q0 -150 -129 -279l-90 -88q-57 -57 -82 -109.5t-25 -118.5v-57h-229v55q0 109 40 189t111 151l74 76q59 61 84 98t25 87t-35 85t-91 35q-100 0 -165 -145l-187 108q51 117 148 175.5t193 58.5z" />
    <glyph glyph-name="at" unicode="@" horiz-adv-x="1808" 
d="M727 340q0 -140 76 -139q40 0 78 25t139 122l86 434q-179 64 -279 -100t-100 -342zM78 453q0 205 63.5 370.5t180 285.5t280.5 187.5t344 67.5q353 0 569 -195t216 -542q0 -265 -112 -393t-200.5 -171t-162.5 -43q-126 0 -177 55.5t-51 123.5v14q0 14 2 27
q-99 -127 -151 -163t-89.5 -46.5t-85.5 -10.5q-107 0 -177 84t-70 221q0 273 154.5 458.5t408.5 185.5q151 0 362 -88l-100 -510q-12 -54 -12 -99q0 -86 61 -86q83 0 147 119.5t64 295.5t-46 285t-163.5 214.5t-378.5 105.5q-299 0 -481 -212.5t-182 -534.5t176 -498
t450 -176t525 168l61 -143q-288 -185 -623 -185t-502 154.5t-233.5 311.5t-66.5 362z" />
    <glyph glyph-name="A" unicode="A" horiz-adv-x="1171" 
d="M739 557l-135 537q-24 85 -29 118q-5 -43 -26 -129l-137 -526h327zM264 0h-254l406 1393h348l395 -1393h-272l-99 371h-423z" />
    <glyph glyph-name="B" unicode="B" horiz-adv-x="1216" 
d="M627 195q117 0 172 59.5t55 159.5t-57.5 158.5t-173.5 58.5h-224v-436h228zM590 819q237 -1 237 183q0 94 -49 147t-157 53h-222v-383h191zM657 1393q207 0 324 -102.5t117 -264.5q0 -96 -53.5 -178t-147.5 -113q102 -31 166.5 -112.5t64.5 -236.5t-107 -270.5
t-308 -115.5h-570v1393h514z" />
    <glyph glyph-name="C" unicode="C" horiz-adv-x="1216" 
d="M365 707q0 -533 294 -533q115 0 177.5 75t85.5 228l254 -39q-30 -229 -174 -347t-338 -118q-281 0 -427.5 183.5t-146.5 528.5t148 539.5t440 194.5q293 0 387 -166t111 -278l-254 -41q-27 198 -109.5 241.5t-152.5 43.5t-182.5 -73t-112.5 -439z" />
    <glyph glyph-name="D" unicode="D" horiz-adv-x="1288" 
d="M406 207h135q195 0 290 121t95 380t-93.5 374.5t-285.5 115.5h-141v-991zM588 1393q295 0 452.5 -177.5t157.5 -506.5t-155.5 -519t-450.5 -190h-449v1393h445z" />
    <glyph glyph-name="E" unicode="E" horiz-adv-x="1083" 
d="M143 1393h867v-209h-604v-361h501v-209h-501v-401h638v-213h-901v1393z" />
    <glyph glyph-name="F" unicode="F" horiz-adv-x="993" 
d="M975 1393v-209h-569v-361h454v-209h-454v-614h-263v1393h832z" />
    <glyph glyph-name="G" unicode="G" horiz-adv-x="1277" 
d="M666 1227q-165 0 -237.5 -147.5t-72.5 -383.5q0 -390 111 -460t197 -70q131 0 192.5 74.5t61.5 197.5v43h-259v205h500v-686h-190l-23 121q-45 -78 -121.5 -113t-199.5 -35q-249 0 -392 182t-143 509q0 547 217 651t337 104q223 0 357.5 -114t157.5 -324l-241 -35
q-16 145 -90 213t-162 68z" />
    <glyph glyph-name="H" unicode="H" horiz-adv-x="1302" 
d="M406 0h-263v1393h263v-555h491v555h262v-1393h-262v639h-491v-639z" />
    <glyph glyph-name="I" unicode="I" horiz-adv-x="557" 
d="M410 1393v-1393h-263v1393h263z" />
    <glyph glyph-name="J" unicode="J" horiz-adv-x="919" 
d="M524 412v981h262v-965q0 -209 -101 -332t-318 -123q-157 0 -258 82t-127 217l249 54q30 -144 148 -144q72 0 108.5 51.5t36.5 178.5z" />
    <glyph glyph-name="K" unicode="K" horiz-adv-x="1179" 
d="M406 0h-263v1393h263v-631l458 631h283l-412 -545l457 -848h-283l-338 629l-165 -209v-420z" />
    <glyph glyph-name="L" unicode="L" horiz-adv-x="993" 
d="M406 219h571v-219h-834v1393h263v-1174z" />
    <glyph glyph-name="M" unicode="M" horiz-adv-x="1572" 
d="M375 1049v-1049h-236v1393h428l181 -738q46 -196 57 -290h4q6 106 43 282l164 746h418v-1393h-236v591q0 591 2 630h-4q-13 -90 -33 -164l-256 -1057h-221l-276 1053q-12 39 -21.5 83t-19.5 85h-4q10 -108 10 -172z" />
    <glyph glyph-name="N" unicode="N" horiz-adv-x="1318" 
d="M944 676v717h236v-1393h-244l-494 952q-62 122 -82 187h-2q17 -100 17 -236v-903h-236v1393h363l370 -740q51 -103 95 -266h2q-25 180 -25 289z" />
    <glyph glyph-name="O" unicode="O" horiz-adv-x="1302" 
d="M1072.5 1222.5q139.5 -196.5 139.5 -525.5t-147.5 -526.5t-420.5 -197.5t-413.5 196.5t-140.5 524.5t146.5 526.5t421.5 198.5t414.5 -196.5zM940 696q0 525 -289 525q-144 0 -216.5 -138t-72.5 -387q0 -524 289 -524q216 0 252.5 204t36.5 320z" />
    <glyph glyph-name="P" unicode="P" horiz-adv-x="1167" 
d="M614 762q236 0 236 214t-248 214h-201v-428h213zM625 1393q218 0 352.5 -105t134.5 -306t-115.5 -315t-330.5 -114h-265v-553h-258v1393h482z" />
    <glyph glyph-name="Q" unicode="Q" horiz-adv-x="1302" 
d="M940 696q0 525 -289 525q-144 0 -216.5 -138t-72.5 -387q0 -524 289 -524q216 0 252.5 204t36.5 320zM1072.5 1222.5q139.5 -196.5 139.5 -507.5q0 -312 -120.5 -502t-341.5 -225v-41q0 -86 102 -86h219v-176q-96 -4 -111 -4h-147q-145 0 -204.5 64.5t-59.5 178.5v60
q-229 34 -344 223t-115 502t146.5 511.5t421.5 198.5t414.5 -196.5z" />
    <glyph glyph-name="R" unicode="R" horiz-adv-x="1200" 
d="M614 811q181 0 205.5 75t24.5 113q0 90 -55.5 145.5t-180.5 55.5h-202v-389h208zM670 1393q204 0 323 -107.5t119 -281.5q0 -122 -69 -212.5t-181 -132.5l293 -659h-278l-269 612h-202v-612h-263v1393h527z" />
    <glyph glyph-name="S" unicode="S" 
d="M299 412q42 -222 245 -222q93 0 151.5 46.5t58.5 138.5q0 144 -199 198l-172 50q-135 39 -218 132t-83 261t124 285.5t341 117.5q274 0 346 -129t82 -223l-242 -43q-8 92 -59 143.5t-135 51.5t-141.5 -46.5t-57.5 -120.5t35 -116.5t135 -71.5l172 -51q172 -49 253 -147.5
t81 -271.5t-129 -296t-346 -123q-321 0 -405.5 140.5t-98.5 238.5z" />
    <glyph glyph-name="T" unicode="T" horiz-adv-x="1024" 
d="M1020 1393v-211h-381v-1182h-262v1182h-373v211h1016z" />
    <glyph glyph-name="U" unicode="U" horiz-adv-x="1243" 
d="M395 477q0 -147 63.5 -214.5t171.5 -67.5q226 0 226 282v916h254v-912q0 -246 -133 -370.5t-361 -124.5t-355.5 117.5t-127.5 349.5v940h262v-916z" />
    <glyph glyph-name="V" unicode="V" 
d="M514 506q40 -151 45 -217h4q4 105 33 215l233 889h250l-397 -1393h-262l-412 1393h264z" />
    <glyph glyph-name="W" unicode="W" horiz-adv-x="1585" 
d="M471 336q0 126 25 239l163 818h271l172 -832q22 -119 31 -227h6q4 120 24 221l148 838h252l-308 -1393h-266l-186 848q-18 80 -23 207h-4q-5 -144 -18 -209l-185 -846h-249l-299 1393h262l155 -820q15 -66 19 -136t6 -101h4z" />
    <glyph glyph-name="X" unicode="X" horiz-adv-x="1107" 
d="M682 735l432 -735h-297l-239 449q-11 18 -33 67q-10 -39 -27 -65l-252 -451h-272l428 725l-393 668h288l209 -385q10 -18 17.5 -38t15.5 -40q12 37 31 76l209 387h262z" />
    <glyph glyph-name="Y" unicode="Y" horiz-adv-x="1042" 
d="M653 0h-262v559l-411 834h272l244 -551q18 -39 30 -84q13 51 29 84l250 551h262l-414 -809v-584z" />
    <glyph glyph-name="Z" unicode="Z" horiz-adv-x="1011" 
d="M961 1393v-181l-611 -999h611v-213h-922v184l610 998h-592v211h904z" />
    <glyph glyph-name="bracketleft" unicode="[" horiz-adv-x="614" 
d="M379 27q0 -114 -4 -222h198v-161h-413v1775h413v-162h-198q4 -122 4 -239v-991z" />
    <glyph glyph-name="backslash" unicode="\" horiz-adv-x="675" 
d="M485 0l-465 1393h187l465 -1393h-187z" />
    <glyph glyph-name="bracketright" unicode="]" horiz-adv-x="614" 
d="M236 1036q0 115 4 221h-199v162h414v-1775h-414v161h199q-4 122 -4 240v991z" />
    <glyph glyph-name="asciicircum" unicode="^" 
d="M795 608l-269 609h-2l-266 -609h-176l362 785h166l363 -785h-178z" />
    <glyph glyph-name="underscore" unicode="_" horiz-adv-x="1024" 
d="M0 -256v102h1024v-102h-1024z" />
    <glyph glyph-name="grave" unicode="`" horiz-adv-x="497" 
d="M242 1393l141 -265h-174l-223 265h256z" />
    <glyph glyph-name="a" unicode="a" horiz-adv-x="997" 
d="M309 270q0 -54 29 -83t78 -29q111 0 231 102v193l-145 -33q-106 -25 -149.5 -60.5t-43.5 -89.5zM489 827q-132 0 -155 -122l-230 32q14 125 119 194.5t283 69.5t278.5 -80.5t100.5 -254.5v-435q0 -115 12 -231h-227q-9 36 -19 98q-68 -59 -133 -92t-181 -33t-199 75
t-83 207t86 210t267 113l239 45v53q0 78 -37 114.5t-121 36.5z" />
    <glyph glyph-name="b" unicode="b" horiz-adv-x="1064" 
d="M549 154q98 0 150.5 93t52.5 246t-51.5 239.5t-149.5 86.5q-59 0 -101 -33.5t-79 -80.5v-439q29 -47 77 -79.5t101 -32.5zM127 0v1393h244v-521q110 129 269 129q160 0 257.5 -134t97.5 -370t-101.5 -380t-261.5 -144t-286 133l-18 -106h-201z" />
    <glyph glyph-name="c" unicode="c" horiz-adv-x="940" 
d="M520 825q-201 0 -201 -333q0 -180 50.5 -261t150.5 -81q70 0 113 43t59 149l217 -29q-27 -229 -165 -284.5t-233 -55.5q-199 0 -320 133t-121 371q0 237 120 380.5t338 143.5q150 0 252.5 -85t128.5 -248l-217 -35q-10 86 -53 139t-119 53z" />
    <glyph glyph-name="d" unicode="d" horiz-adv-x="1064" 
d="M516 817q-98 0 -150.5 -93t-52.5 -244.5t52.5 -239.5t148.5 -88q59 0 101 33.5t79 80.5v439q-29 47 -77 79.5t-101 32.5zM449 1001q137 0 245 -122v514h244v-1393h-209l-16 123q-59 -76 -118.5 -113t-150.5 -37q-176 0 -275 133.5t-99 369.5t103.5 380.5t275.5 144.5z
" />
    <glyph glyph-name="e" unicode="e" horiz-adv-x="987" 
d="M690 580q0 104 -44.5 179t-135.5 75q-135 0 -164 -100.5t-31 -153.5h375zM510 -27q-192 0 -316 128t-124 376t120 386t317 138q198 0 305.5 -133.5t107.5 -351.5v-34q0 -33 -2 -48h-605q8 -295 209 -295q72 0 118 39t71 125l211 -33q-36 -151 -151 -224t-261 -73z" />
    <glyph glyph-name="f" unicode="f" horiz-adv-x="610" 
d="M446 1397q71 0 158 -8v-191h-110q-39 0 -67 -19.5t-28 -84.5v-117h205v-172h-198v-805h-244v805h-154v172h154v90q0 153 48 214.5t106.5 88.5t129.5 27z" />
    <glyph glyph-name="g" unicode="g" horiz-adv-x="1011" 
d="M236 -84q0 -42 65.5 -78.5t210.5 -36.5q297 0 297 101q0 23 -25.5 42t-91.5 23l-172 8q-187 12 -244 23q-40 -40 -40 -82zM645 654q0 90 -40 142t-117 52t-115.5 -53t-38.5 -129t38 -133.5t108 -57.5t117.5 44.5t47.5 134.5zM923 858q-46 0 -92 -27q54 -84 54 -168
q0 -157 -109 -249t-262 -92q-64 0 -143 18q-76 -18 -76 -70q0 -25 18.5 -42t55.5 -19l327 -19q137 -8 216 -69.5t79 -177.5q0 -205 -176 -252t-301 -47q-228 0 -342.5 70t-114.5 171q0 51 34 91t81 63q-88 62 -88 149q0 63 48 111.5t126 77.5q-67 38 -114.5 106.5
t-47.5 155.5q0 161 105.5 258.5t278.5 97.5t276 -86q77 99 178 99h22q21 0 37 -4v-154q-24 8 -70 8z" />
    <glyph glyph-name="h" unicode="h" horiz-adv-x="1046" 
d="M563 805q-97 0 -192 -88v-717h-244v1393h244v-553q136 136 203.5 148.5t121.5 12.5t145 -50t91 -285v-666h-244v653q0 152 -125 152z" />
    <glyph glyph-name="i" unicode="i" horiz-adv-x="497" 
d="M371 1147h-244v221h244v-221zM371 0h-244v977h244v-977z" />
    <glyph glyph-name="j" unicode="j" horiz-adv-x="505" 
d="M379 1147h-244v221h244v-221zM82 -356q-55 0 -109 8v190q16 -2 19 -2h33q49 0 79.5 21.5t30.5 93.5v1022h244v-1034q0 -143 -74 -221t-223 -78z" />
    <glyph glyph-name="k" unicode="k" horiz-adv-x="972" 
d="M371 0h-244v1393h244v-805l293 389h268l-285 -352l330 -625h-266l-230 432l-110 -131v-301z" />
    <glyph glyph-name="l" unicode="l" horiz-adv-x="497" 
d="M371 0h-244v1393h244v-1393z" />
    <glyph glyph-name="m" unicode="m" horiz-adv-x="1615" 
d="M696 664q0 151 -125 151q-59 0 -109 -32.5t-97 -73.5v-709h-244v977h241v-135q78 72 155 115.5t164 43.5t150.5 -41.5t86.5 -125.5q78 82 150.5 124.5t153.5 42.5q141 0 210 -84.5t69 -214.5v-702h-246v676q0 59 -30.5 98t-86.5 39t-100.5 -24.5t-97.5 -73.5v-715h-244
v664z" />
    <glyph glyph-name="n" unicode="n" horiz-adv-x="1040" 
d="M926 666v-666h-244v653q0 152 -125 152q-97 0 -192 -88v-717h-244v977h241v-137q148 161 308 161q256 0 256 -335z" />
    <glyph glyph-name="o" unicode="o" horiz-adv-x="1024" 
d="M70 477q0 223 114 373.5t328.5 150.5t328 -144t113.5 -363t-114 -370t-329 -151t-328 140.5t-113 363.5zM510 150q201 0 201 344q0 158 -45 244.5t-154 86.5q-199 -1 -199 -345q0 -158 45 -244t152 -86z" />
    <glyph glyph-name="p" unicode="p" horiz-adv-x="1058" 
d="M546 819q-97 0 -181 -114v-439q29 -47 76.5 -79.5t101.5 -32.5q98 0 150 93t52 246t-51 239.5t-148 86.5zM358 862q109 139 266 139q170 0 267.5 -134t97.5 -370t-101.5 -380t-263.5 -144t-259 115v-412h-244v1301h237v-115z" />
    <glyph glyph-name="q" unicode="q" horiz-adv-x="1058" 
d="M516 817q-96 0 -149.5 -93t-53.5 -244.5t52.5 -239.5t148.5 -88q59 0 101 33.5t79 80.5v439q-29 47 -77 79.5t-101 32.5zM938 -324h-244v420q-51 -59 -109.5 -91t-140.5 -32q-176 0 -275 133.5t-99 368.5t106 380.5t279 145.5q88 0 146 -32.5t116 -96.5l24 105h197v-1301
z" />
    <glyph glyph-name="r" unicode="r" horiz-adv-x="747" 
d="M657 766q-191 0 -292 -213v-553h-244v977h233v-105q0 -56 -4 -124q121 210 203 231.5t115 21.5t53 -4v-235q-28 4 -64 4z" />
    <glyph glyph-name="s" unicode="s" horiz-adv-x="833" 
d="M274 727q0 -47 28 -69.5t73 -34.5l184 -54q104 -31 164.5 -95t60.5 -193t-95 -218.5t-277 -89.5q-235 0 -298 104.5t-75 178.5l219 33q12 -68 55 -106t110 -38t102.5 30t35.5 74q0 81 -84 105l-198 62q-224 69 -224 280q0 131 99 218t251 87t243 -65.5t110 -183.5
l-215 -37q-18 114 -137 114q-55 0 -93.5 -27.5t-38.5 -74.5z" />
    <glyph glyph-name="t" unicode="t" horiz-adv-x="626" 
d="M401 283q0 -109 81 -109q36 0 124 10v-174q-113 -24 -194 -24q-254 0 -254 268v551h-150v172h150v280h243v-280h205v-172h-205v-522z" />
    <glyph glyph-name="u" unicode="u" horiz-adv-x="1044" 
d="M680 977h244v-977h-242v121q-116 -126 -188 -136t-105 -10q-143 0 -206.5 91.5t-63.5 244.5v666h243v-660q0 -152 125 -151q94 0 193 88v723z" />
    <glyph glyph-name="v" unicode="v" horiz-adv-x="886" 
d="M590 0h-275l-309 977h248l182 -651q16 -66 29 -127q12 75 24 125l162 653h226z" />
    <glyph glyph-name="w" unicode="w" horiz-adv-x="1304" 
d="M379 416q11 -47 31 -176h4q6 88 24 174l113 563h240l98 -518q29 -152 31 -215h4q3 80 32 211l123 522h211l-274 -977h-228l-100 524q-18 89 -29 195h-4q-10 -118 -28 -195l-113 -524h-229l-273 977h238z" />
    <glyph glyph-name="x" unicode="x" horiz-adv-x="894" 
d="M569 518l338 -518h-284l-172 326l-205 -326h-260l338 502l-299 475h272l154 -285l172 285h247z" />
    <glyph glyph-name="y" unicode="y" horiz-adv-x="905" 
d="M170 -154q53 0 98 37t80 137l-340 957h252l176 -592q21 -64 31 -121q6 33 13 57.5t18 63.5l174 592h225l-336 -973q-66 -193 -151.5 -276.5t-214.5 -83.5q-58 0 -156 20v193q113 -11 131 -11z" />
    <glyph glyph-name="z" unicode="z" horiz-adv-x="874" 
d="M819 977v-141l-485 -664h485v-172h-784v139l493 666h-458v172h749z" />
    <glyph glyph-name="braceleft" unicode="{" horiz-adv-x="614" 
d="M422 -47q0 -141 135 -141v-156h-108q-203 0 -224.5 115.5t-21.5 177.5v334q0 80 -26.5 127t-102.5 51v151q74 2 101.5 49.5t27.5 126.5v326q0 212 89 258.5t161 46.5h104v-155q-72 0 -103.5 -35t-31.5 -101v-292q0 -123 -36 -196t-122 -97q88 -20 123 -85t35 -202v-303z
" />
    <glyph glyph-name="bar" unicode="|" horiz-adv-x="542" 
d="M385 1589v-2031h-227v2031h227z" />
    <glyph glyph-name="braceright" unicode="}" horiz-adv-x="614" 
d="M193 1122q0 142 -136 142v155h109q201 0 223.5 -115.5t22.5 -177.5v-333q0 -80 26.5 -127.5t102.5 -51.5v-151q-74 -2 -101.5 -49t-27.5 -127v-326q0 -214 -90.5 -259.5t-159.5 -45.5h-105v156q136 0 136 135v293q0 123 35.5 195.5t121.5 96.5q-88 20 -122.5 85
t-34.5 202v303z" />
    <glyph glyph-name="asciitilde" unicode="~" 
d="M1020 735q-28 -309 -272 -309q-93 0 -183 57.5t-138 83t-101 25.5q-94 0 -123 -156l-150 15q11 149 87 228t184 79q74 0 132 -25.5t108 -57.5t94 -57.5t85 -25.5t77 35t52 123z" />
    <glyph glyph-name="uni00A0" unicode="&#xa0;" horiz-adv-x="542" 
 />
    <glyph glyph-name="exclamdown" unicode="&#xa1;" horiz-adv-x="542" 
d="M141 977h246v-248h-246v248zM164 592h203l22 -911h-262z" />
    <glyph glyph-name="cent" unicode="&#xa2;" 
d="M568 829q-42 0 -117.5 -48.5t-75.5 -294.5q0 -161 49 -253l213 586q-27 10 -69 10zM556 1001q83 0 144 -14l74 197h92l-84 -230q155 -88 187 -286l-217 -35q-10 78 -43 127l-215 -596q36 -18 96 -18q130 -1 162 196l217 -29q-17 -146 -120.5 -243t-273.5 -97
q-71 0 -145 21l-82 -223h-96l94 258q-102 57 -159.5 169t-57.5 252t28.5 236t87 166t143.5 109.5t168 39.5z" />
    <glyph glyph-name="sterling" unicode="&#xa3;" 
d="M256 295q-33 0 -59.5 -18.5t-26.5 -52.5t27.5 -54t64.5 -20t75 25.5t58 60.5q-68 59 -139 59zM535 115q-129 -125 -281 -125q-125 0 -198.5 67.5t-73.5 171.5t74.5 166t165.5 62q90 0 179 -41q0 88 -75 229h-277v191h201q-37 109 -37 195q0 171 108.5 271.5t282.5 100.5
q128 0 239.5 -72t145.5 -188l-213 -74q-16 63 -61 105.5t-115 42.5t-109.5 -44.5t-39.5 -119.5t51 -217h340v-191h-271q70 -195 70 -255t-10 -91q139 -104 182 -104t69.5 30.5t49.5 77.5l192 -90q-59 -113 -132.5 -170t-158.5 -57t-146.5 29t-151.5 100z" />
    <glyph glyph-name="currency" unicode="&#xa4;" 
d="M543 946q-90 0 -150.5 -70.5t-60.5 -195.5t63 -194.5t146 -69.5t145 69.5t62 192.5t-57.5 195.5t-147.5 72.5zM537.5 1110q136.5 0 232.5 -78l150 162l110 -115l-168 -153q66 -98 66 -243q0 -146 -70 -245l164 -159l-111 -111l-143 168q-43 -41 -106.5 -62.5t-123 -21.5
t-122 21.5t-103.5 60.5l-141 -166l-111 111l162 155q-71 105 -71 246q0 140 69 246l-166 153l113 115l147 -166q86 82 222.5 82z" />
    <glyph glyph-name="yen" unicode="&#xa5;" 
d="M670 342v-342h-260v342h-281v147h281v164h-281v146h203l-305 592h262l223 -492q10 -20 17.5 -45t15.5 -47q8 45 30 94l232 490h248l-307 -592h200v-146h-278v-164h278v-147h-278z" />
    <glyph glyph-name="brokenbar" unicode="&#xa6;" horiz-adv-x="542" 
d="M385 1516v-717h-227v717h227zM385 532v-716h-227v716h227z" />
    <glyph glyph-name="section" unicode="&#xa7;" 
d="M379 778q-82 -77 -82 -138q0 -67 43 -102.5t113 -66.5l260 -119q71 71 71 131q0 116 -114 166zM739 1067q-63 158 -183 158q-62 0 -105 -31t-43 -79t22.5 -73.5t87.5 -54.5l291 -127q205 -94 205 -293q0 -166 -178 -299q100 -90 100 -231t-116.5 -239.5t-290.5 -98.5
q-359 0 -447 311l242 68q16 -70 68 -123t118 -53t114 34t48 84t-23.5 76.5t-83.5 50.5l-174 74q-155 64 -237 142.5t-82 207.5q0 181 184 277q-104 92 -104 239t119.5 246t283.5 99q220 0 301.5 -107.5t104.5 -183.5z" />
    <glyph glyph-name="dieresis" unicode="&#xa8;" horiz-adv-x="497" 
d="M532 1368v-221h-215v221h215zM180 1368v-221h-215v221h215z" />
    <glyph glyph-name="copyright" unicode="&#xa9;" horiz-adv-x="1638" 
d="M425 1129.5q-149 -160.5 -149 -430.5t150.5 -433.5t396 -163.5t392.5 164.5t147 430.5t-148.5 429.5t-394 163.5t-394.5 -160.5zM321 1215q196 202 502 202q307 0 498.5 -201t191.5 -517t-195.5 -520t-500.5 -204q-304 0 -498 201.5t-194 518.5q0 318 196 520zM670 696
q0 -146 34.5 -219.5t120.5 -73.5q114 0 146 160l184 -26q-65 -267 -330 -267q-168 0 -260 104.5t-92 317.5q0 306 132.5 369t236.5 63t190 -58t113 -194l-180 -28q-21 145 -136 145q-86 0 -122.5 -73.5t-36.5 -219.5z" />
    <glyph glyph-name="ordfeminine" unicode="&#xaa;" horiz-adv-x="761" 
d="M317 809q66 0 140 70v159q-23 -4 -40.5 -10t-64.5 -19t-79.5 -42t-32.5 -70t21.5 -64.5t55.5 -23.5zM82 1237q52 182 291 182q144 0 207 -73t63 -207v-258q0 -97 12 -191h-174q-4 23 -7 41.5t-7 40.5q-96 -92 -193 -92q-96 0 -156.5 49t-60.5 146q0 189 256 247
q71 19 144 31v47q0 41 -27 66.5t-65 25.5q-86 0 -111 -86z" />
    <glyph glyph-name="guillemotleft" unicode="&#xab;" horiz-adv-x="921" 
d="M260 496l213 -392h-190l-211 388l213 387h184zM625 496l211 -392h-191l-209 388l213 387h182z" />
    <glyph glyph-name="logicalnot" unicode="&#xac;" 
d="M1012 848v-565h-187v389h-759v176h946z" />
    <glyph glyph-name="uni00AD" unicode="&#xad;" horiz-adv-x="573" 
d="M500 496h-426v190h426v-190z" />
    <glyph glyph-name="registered" unicode="&#xae;" horiz-adv-x="983" 
d="M502 1079q55 1 55 53t-59 52h-49v-105h53zM655 1133q0 -80 -71 -111l78 -172h-101l-65 154h-47v-154h-95v405h162q72 0 105.5 -37.5t33.5 -84.5zM205 1050q0 -134 77.5 -218t206.5 -84t208 81.5t79 215.5t-80 218.5t-208 84.5t-205.5 -82t-77.5 -216zM489.5 678
q-164.5 0 -264.5 107.5t-100 262.5t100.5 262t265 107t265 -106.5t100.5 -261.5q0 -154 -101 -262.5t-265.5 -108.5z" />
    <glyph glyph-name="macron" unicode="&#xaf;" horiz-adv-x="497" 
d="M526 1186h-555v149h555v-149z" />
    <glyph glyph-name="degree" unicode="&#xb0;" horiz-adv-x="819" 
d="M412 1298q-74 0 -122 -52t-48 -127t47 -126t120.5 -51t122 51t48.5 126t-47 127t-121 52zM625.5 1333.5q87.5 -85.5 87.5 -212.5t-87.5 -212.5t-216.5 -85.5t-214.5 86.5t-85.5 212.5t87.5 211.5t214.5 85.5t214.5 -85.5z" />
    <glyph glyph-name="plusminus" unicode="&#xb1;" 
d="M1020 227v-176h-952v176h952zM637 1135v-312h383v-176h-383v-303h-186v303h-383v176h383v312h186z" />
    <glyph glyph-name="twosuperior" unicode="&#xb2;" horiz-adv-x="598" 
d="M545 864h-508v101q37 117 174 217l78 55q47 35 71.5 68t24.5 79t-23.5 70.5t-62.5 24.5t-64.5 -35t-35.5 -82l-154 24q14 92 83 150.5t179.5 58.5t178 -54.5t67.5 -142.5t-42 -140t-101 -95l-113 -84q-65 -49 -82 -90h330v-125z" />
    <glyph glyph-name="threesuperior" unicode="&#xb3;" horiz-adv-x="598" 
d="M289 1595q111 0 175 -52t64 -142q0 -47 -30.5 -87t-87.5 -63q143 -48 143 -174q0 -98 -71.5 -160.5t-187.5 -62.5t-184.5 37t-101.5 129l150 41q31 -90 123 -90q43 0 76.5 24.5t33.5 79.5t-40 83t-105 28h-66v112h66q53 0 90 24t37 67t-25.5 66.5t-64.5 23.5
q-70 0 -117 -78l-131 51q74 143 254 143z" />
    <glyph glyph-name="acute" unicode="&#xb4;" horiz-adv-x="497" 
d="M289 1128h-170l141 265h252z" />
    <glyph glyph-name="mu" unicode="&#xb5;" 
d="M471 -23q-51 0 -88 23v-319h-244v1296h250v-647q0 -66 30 -112t89 -46q96 0 194 115v690h246v-977h-246v137q-117 -160 -231 -160z" />
    <glyph glyph-name="paragraph" unicode="&#xb6;" 
d="M768 -197v1432h-176v-1432h-160v785q-141 15 -251.5 108t-110.5 282q0 188 129 301.5t411 113.5h318v-1590h-160z" />
    <glyph glyph-name="periodcentered" unicode="&#xb7;" horiz-adv-x="542" 
d="M133 655.5q0 57.5 41 98.5t97 41t98.5 -40.5t42.5 -98.5t-42 -98t-98 -40t-97.5 40t-41.5 97.5z" />
    <glyph glyph-name="cedilla" unicode="&#xb8;" horiz-adv-x="497" 
d="M199 -262q69 0 69 51q0 25 -20 40t-54 15t-65 -8l76 164h96l-37 -86h15q53 0 93 -34t40 -81q0 -82 -55.5 -118.5t-133.5 -36.5t-155 28l34 88q55 -22 97 -22z" />
    <glyph glyph-name="onesuperior" unicode="&#xb9;" horiz-adv-x="598" 
d="M395 1583v-602h127v-117h-418v117h134v457l-134 -6v90q85 15 197 61h94z" />
    <glyph glyph-name="ordmasculine" unicode="&#xba;" horiz-adv-x="761" 
d="M140.5 781q-81.5 101 -81.5 268q0 258 119 314t202 56t143.5 -27.5t100.5 -76.5t59 -115.5t19 -144.5t-19 -146.5t-81 -148.5t-221 -80t-240.5 101zM381 1286q-127 0 -127 -236.5t127 -236.5q127 1 127 237t-127 236z" />
    <glyph glyph-name="guillemotright" unicode="&#xbb;" horiz-adv-x="921" 
d="M662 487l-213 392h190l211 -387l-213 -388h-184zM297 487l-211 392h190l209 -387l-213 -388h-182z" />
    <glyph glyph-name="onequarter" unicode="&#xbc;" horiz-adv-x="1515" 
d="M1264 1391l-842 -1391h-166l844 1391h164zM1106 283v282l-160 -282h160zM1260 283h100v-119h-103v-164h-151v164h-318v96l275 459h197v-436zM414 1393v-602h129v-117h-418v117h133v456l-135 -6v90q101 17 196 62h95z" />
    <glyph glyph-name="onehalf" unicode="&#xbd;" horiz-adv-x="1515" 
d="M1251 1391l-841 -1391h-166l843 1391h164zM1145 614q-76 0 -103 -116l-153 24q12 92 81.5 150.5t180.5 58.5t178.5 -54.5t67.5 -142.5t-42 -140t-102 -95l-112 -84q-64 -44 -82 -90h327v-125h-505v100q37 117 174 217l78 56q47 35 71.5 67.5t24.5 78.5t-23.5 70.5
t-60.5 24.5zM414 1393v-602h129v-117h-418v117h133v456l-135 -6v90q101 17 196 62h95z" />
    <glyph glyph-name="threequarters" unicode="&#xbe;" horiz-adv-x="1515" 
d="M1286 1391l-842 -1391h-165l843 1391h164zM1120 283v282l-162 -282h162zM1274 283h100v-119h-102v-164h-152v164h-317v96l274 459h197v-436zM371 1405q111 0 176 -52.5t65 -142.5q0 -47 -31.5 -87t-86.5 -62q143 -48 143 -174q0 -98 -71.5 -160.5t-187.5 -62.5
t-184.5 36.5t-101.5 128.5l150 41q31 -90 120 -90q45 0 79 24t34 80t-41 83.5t-104 27.5h-66v113h64q55 0 92 23.5t37 66.5t-25.5 66.5t-64.5 23.5q-72 0 -117 -78l-133 52q74 143 254 143z" />
    <glyph glyph-name="questiondown" unicode="&#xbf;" horiz-adv-x="819" 
d="M344 977h246v-248h-246v248zM387 -328q-170 0 -263 85t-93 229q0 145 129 268l90 84q106 99 106 217v37h230v-35q0 -178 -152 -330l-74 -71q-63 -61 -85.5 -97t-22.5 -80t35 -76t91 -32q101 0 165 143l186 -108q-51 -117 -148.5 -175.5t-193.5 -58.5z" />
    <glyph glyph-name="Agrave" unicode="&#xc0;" horiz-adv-x="1171" 
d="M739 557l-135 537q-24 85 -29 118q-5 -43 -26 -129l-137 -526h327zM264 0h-254l406 1393h348l395 -1393h-272l-99 371h-423zM573 1757l138 -250h-179l-219 250h260z" />
    <glyph glyph-name="Aacute" unicode="&#xc1;" horiz-adv-x="1171" 
d="M739 557l-135 537q-24 85 -29 118q-5 -43 -26 -129l-137 -526h327zM264 0h-254l406 1393h348l395 -1393h-272l-99 371h-423zM639 1507h-174l137 250h256z" />
    <glyph glyph-name="Acircumflex" unicode="&#xc2;" horiz-adv-x="1171" 
d="M739 557l-135 537q-24 85 -29 118q-5 -43 -26 -129l-137 -526h327zM264 0h-254l406 1393h348l395 -1393h-272l-99 371h-423zM584 1640l-113 -133h-201l203 250h227l201 -250h-209z" />
    <glyph glyph-name="Atilde" unicode="&#xc3;" horiz-adv-x="1171" 
d="M739 557l-135 537q-24 85 -29 118q-5 -43 -26 -129l-137 -526h327zM264 0h-254l406 1393h348l395 -1393h-272l-99 371h-423zM709 1673q52 0 61 70h123q-7 -152 -106 -205q-34 -18 -84 -18t-181 53q-27 10 -53 10q-51 0 -66 -63h-124q7 150 108 204q67 35 138 11t115 -43
t69 -19z" />
    <glyph glyph-name="Adieresis" unicode="&#xc4;" horiz-adv-x="1171" 
d="M739 557l-135 537q-24 85 -29 118q-5 -43 -26 -129l-137 -526h327zM264 0h-254l406 1393h348l395 -1393h-272l-99 371h-423zM868 1739v-211h-211v211h211zM514 1739v-211h-209v211h209z" />
    <glyph glyph-name="Aring" unicode="&#xc5;" horiz-adv-x="1171" 
d="M739 557l-135 537q-24 85 -29 118q-5 -43 -26 -129l-137 -526h327zM264 0h-254l406 1393h348l395 -1393h-272l-99 371h-423zM586 1831q86 0 145 -56t59 -141t-59 -141q-60 -57 -145 -57t-144 55t-59 141t59 143q58 56 144 56zM586 1724q-39 0 -64 -26q-24 -26 -24 -66
t26 -66t63 -26t63 27t26 67t-26 64q-26 26 -64 26z" />
    <glyph glyph-name="AE" unicode="&#xc6;" horiz-adv-x="1761" 
d="M872 553v637l-319 -637h319zM1688 1184h-564v-361h461v-209h-461v-401h598v-213h-850v373h-395l-196 -373h-275l742 1393h940v-209z" />
    <glyph glyph-name="Ccedilla" unicode="&#xc7;" horiz-adv-x="1216" 
d="M606 -262q70 0 70 51q0 25 -20.5 40t-54.5 15t-64 -8l63 141q-250 18 -380 199.5t-130 517.5t148 530.5t440 194.5q293 0 387 -166t111 -278l-254 -41q-27 198 -109.5 241.5t-152.5 43.5t-182.5 -73t-112.5 -439q0 -533 294 -533q115 0 177.5 75t85.5 228l254 -39
q-30 -220 -162.5 -336t-317.5 -127l-24 -61h14q53 0 93 -34t40 -81q0 -82 -55.5 -118.5t-133.5 -36.5q-77 0 -155 28l35 88q55 -22 96 -22z" />
    <glyph glyph-name="Egrave" unicode="&#xc8;" horiz-adv-x="1083" 
d="M143 1393h867v-209h-604v-361h501v-209h-501v-401h638v-213h-901v1393zM563 1757l137 -250h-178l-219 250h260z" />
    <glyph glyph-name="Eacute" unicode="&#xc9;" horiz-adv-x="1083" 
d="M143 1393h867v-209h-604v-361h501v-209h-501v-401h638v-213h-901v1393zM623 1507h-174l137 250h256z" />
    <glyph glyph-name="Ecircumflex" unicode="&#xca;" horiz-adv-x="1083" 
d="M143 1393h867v-209h-604v-361h501v-209h-501v-401h638v-213h-901v1393zM569 1640l-112 -133h-201l203 250h227l201 -250h-209z" />
    <glyph glyph-name="Edieresis" unicode="&#xcb;" horiz-adv-x="1083" 
d="M143 1393h867v-209h-604v-361h501v-209h-501v-401h638v-213h-901v1393zM854 1739v-211h-211v211h211zM500 1739v-211h-209v211h209z" />
    <glyph glyph-name="Igrave" unicode="&#xcc;" horiz-adv-x="557" 
d="M410 1393v-1393h-263v1393h263zM276 1757l138 -250h-178l-220 250h260z" />
    <glyph glyph-name="Iacute" unicode="&#xcd;" horiz-adv-x="557" 
d="M410 1393v-1393h-263v1393h263zM324 1507h-174l137 250h256z" />
    <glyph glyph-name="Icircumflex" unicode="&#xce;" horiz-adv-x="557" 
d="M410 1393v-1393h-263v1393h263zM276 1640l-112 -133h-201l203 250h227l201 -250h-209z" />
    <glyph glyph-name="Idieresis" unicode="&#xcf;" horiz-adv-x="557" 
d="M410 1393v-1393h-263v1393h263zM561 1739v-211h-211v211h211zM207 1739v-211h-209v211h209z" />
    <glyph glyph-name="Eth" unicode="&#xd0;" horiz-adv-x="1288" 
d="M406 799h260v-133h-260v-459h135q195 0 290 121t95 380t-93.5 374.5t-285.5 115.5h-141v-399zM143 799v594h445q295 0 452.5 -177.5t157.5 -506.5t-155.5 -519t-450.5 -190h-449v666h-180v133h180z" />
    <glyph glyph-name="Ntilde" unicode="&#xd1;" horiz-adv-x="1318" 
d="M944 676v717h236v-1393h-244l-494 952q-62 122 -82 187h-2q17 -100 17 -236v-903h-236v1393h363l370 -740q55 -111 95 -266h2q-25 180 -25 289zM788 1673q51 0 62 70h123q-7 -152 -106 -205q-34 -18 -75 -18t-89 15t-88 32q-40 16 -66 16q-51 0 -66 -63h-125
q7 150 109 204q67 35 138 11t115 -43t68 -19z" />
    <glyph glyph-name="Ograve" unicode="&#xd2;" horiz-adv-x="1302" 
d="M90 692q0 328 147 528q147 199 421 199t420 -205q136 -189 135 -518q-1 -328 -148 -525q-147 -196 -420 -197q-274 -1 -414 195q-141 195 -141 523zM651 172q214 0 272 310q17 97 17 214q0 525 -289 525q-285 0 -289 -525q0 -524 289 -524zM641 1757l137 -250h-178
l-219 250h260z" />
    <glyph glyph-name="Oacute" unicode="&#xd3;" horiz-adv-x="1302" 
d="M90 692q0 328 147 528q147 199 421 199t420 -205q136 -189 135 -518q-1 -328 -148 -525q-147 -196 -420 -197q-274 -1 -414 195q-141 195 -141 523zM651 172q214 0 272 310q17 97 17 214q0 525 -289 525q-285 0 -289 -525q0 -524 289 -524zM705 1507h-175l138 250h256z
" />
    <glyph glyph-name="Ocircumflex" unicode="&#xd4;" horiz-adv-x="1302" 
d="M90 692q0 328 147 528q147 199 421 199t420 -205q136 -189 135 -518q-1 -328 -148 -525q-147 -196 -420 -197q-274 -1 -414 195q-141 195 -141 523zM651 172q214 0 272 310q17 97 17 214q0 525 -289 525q-285 0 -289 -525q0 -524 289 -524zM649 1640l-112 -133h-201
l203 250h227l201 -250h-209z" />
    <glyph glyph-name="Otilde" unicode="&#xd5;" horiz-adv-x="1302" 
d="M90 692q0 328 147 528q147 199 421 199t420 -205q136 -189 135 -518q-1 -328 -148 -525q-147 -196 -420 -197q-274 -1 -414 195q-141 195 -141 523zM651 172q214 0 272 310q17 97 17 214q0 525 -289 525q-285 0 -289 -525q0 -524 289 -524zM774 1673q51 0 62 70h122
q-7 -151 -105 -205q-34 -18 -75 -18t-89 15t-88 32q-40 16 -66 16q-53 0 -66 -63h-125q7 151 109 204q66 34 138 10q71 -24 115 -42q44 -19 68 -19z" />
    <glyph glyph-name="Odieresis" unicode="&#xd6;" horiz-adv-x="1302" 
d="M90 692q0 328 147 528q147 199 421 199t420 -205q136 -189 135 -518q-1 -328 -148 -525q-147 -196 -420 -197q-274 -1 -414 195q-141 195 -141 523zM651 172q214 0 272 310q17 97 17 214q0 525 -289 525q-285 0 -289 -525q0 -524 289 -524zM934 1739v-211h-211v211h211z
M580 1739v-211h-209v211h209z" />
    <glyph glyph-name="multiply" unicode="&#xd7;" 
d="M915 92l-356 357l-356 -357l-123 125l354 356l-354 355l127 127l356 -357l357 357l122 -123l-354 -357l354 -354z" />
    <glyph glyph-name="Oslash" unicode="&#xd8;" horiz-adv-x="1302" 
d="M356 696q0 -141 21 -254l487 672q-70 111 -214 111t-219 -141.5t-75 -387.5zM416 322q68 -154 225 -154t231 142t74 359q0 218 -37 339zM203 207q-113 180 -113 497t146.5 516t414.5 199q217 0 350 -119l84 115l68 -76l-82 -114q141 -192 141 -525t-147.5 -530
t-402.5 -197t-394 148l-114 -160l-62 92z" />
    <glyph glyph-name="Ugrave" unicode="&#xd9;" horiz-adv-x="1243" 
d="M395 477q-1 -147 63 -215t172 -68q226 1 226 283v916h254v-912q0 -247 -133 -371t-361 -124t-356 118q-127 118 -127 349v940h262v-916zM621 1757l137 -250h-178l-220 250h261z" />
    <glyph glyph-name="Uacute" unicode="&#xda;" horiz-adv-x="1243" 
d="M395 477q-1 -147 63 -215t172 -68q226 1 226 283v916h254v-912q0 -247 -133 -371t-361 -124t-356 118q-127 118 -127 349v940h262v-916zM684 1507h-174l137 250h256z" />
    <glyph glyph-name="Ucircumflex" unicode="&#xdb;" horiz-adv-x="1243" 
d="M395 477q-1 -147 63 -215t172 -68q226 1 226 283v916h254v-912q0 -247 -133 -371t-361 -124t-356 118q-127 118 -127 349v940h262v-916zM629 1640l-113 -133h-201l203 250h227l201 -250h-209z" />
    <glyph glyph-name="Udieresis" unicode="&#xdc;" horiz-adv-x="1243" 
d="M395 477q-1 -147 63 -215t172 -68q226 1 226 283v916h254v-912q0 -247 -133 -371t-361 -124t-356 118q-127 118 -127 349v940h262v-916zM913 1739v-211h-211v211h211zM559 1739v-211h-209v211h209z" />
    <glyph glyph-name="Yacute" unicode="&#xdd;" horiz-adv-x="1042" 
d="M653 0h-262v559l-411 834h272l244 -551q18 -39 30 -84q13 51 29 84l250 551h262l-414 -809v-584zM584 1507h-174l137 250h256z" />
    <glyph glyph-name="Thorn" unicode="&#xde;" horiz-adv-x="1167" 
d="M600 578q231 0 231 206t-243 205h-185v-411h197zM403 1192h207q338 0 411 -152t73 -254q0 -195 -116 -306t-327 -111h-248v-369h-260v1393h260v-201z" />
    <glyph glyph-name="germandbls" unicode="&#xdf;" horiz-adv-x="1060" 
d="M616 -12q-23 0 -98 12v174h23q92 0 147 61t55 203t-50 212.5t-175 70.5v178q74 2 118 49t44 112.5t-38 114t-119 48.5q-152 0 -152 -215v-1008h-244v1006q0 271 154.5 331t250.5 60q181 0 283.5 -90t102.5 -232q0 -86 -48.5 -149.5t-132.5 -96.5q119 -37 184.5 -125
t65.5 -255q0 -219 -98 -340t-273 -121z" />
    <glyph glyph-name="agrave" unicode="&#xe0;" horiz-adv-x="997" 
d="M309 269q0 -54 29 -83t78 -28q111 0 231 102v193l-145 -33q-106 -25 -150 -61t-43 -90zM885 231q0 -115 12 -231h-227q-9 36 -19 98q-67 -59 -133 -92t-182 -33t-198 75q-83 75 -83 207t86 210t267 113l239 45v53q0 78 -37 115t-121 36q-132 0 -155 -122l-230 32
q14 125 118 195t284 70q378 -1 379 -336v-435zM479 1393l142 -265h-175l-223 265h256z" />
    <glyph glyph-name="aacute" unicode="&#xe1;" horiz-adv-x="997" 
d="M309 269q0 -54 29 -83t78 -28q111 0 231 102v193l-145 -33q-106 -25 -150 -61t-43 -90zM885 231q0 -115 12 -231h-227q-9 36 -19 98q-67 -59 -133 -92t-182 -33t-198 75q-83 75 -83 207t86 210t267 113l239 45v53q0 78 -37 115t-121 36q-132 0 -155 -122l-230 32
q14 125 118 195t284 70q378 -1 379 -336v-435zM543 1128h-170l141 265h252z" />
    <glyph glyph-name="acircumflex" unicode="&#xe2;" horiz-adv-x="997" 
d="M309 269q0 -54 29 -83t78 -28q111 0 231 102v193l-145 -33q-106 -25 -150 -61t-43 -90zM885 231q0 -115 12 -231h-227q-9 36 -19 98q-67 -59 -133 -92t-182 -33t-198 75q-83 75 -83 207t86 210t267 113l239 45v53q0 78 -37 115t-121 36q-132 0 -155 -122l-230 32
q14 125 118 195t284 70q378 -1 379 -336v-435zM492 1272l-113 -144h-201l203 265h227l201 -265h-207z" />
    <glyph glyph-name="atilde" unicode="&#xe3;" horiz-adv-x="997" 
d="M309 269q0 -54 29 -83t78 -28q111 0 231 102v193l-145 -33q-106 -25 -150 -61t-43 -90zM885 231q0 -115 12 -231h-227q-9 36 -19 98q-67 -59 -133 -92t-182 -33t-198 75q-83 75 -83 207t86 210t267 113l239 45v53q0 78 -37 115t-121 36q-132 0 -155 -122l-230 32
q14 125 118 195t284 70q378 -1 379 -336v-435zM373 1212q-50 0 -62 -67h-125q7 159 109 213q35 18 81 18t104 -24t86 -34q28 -11 54 -11q47 0 58 71h123q-7 -160 -106 -213q-34 -18 -84 -18q-50 1 -128 33q-76 32 -110 32z" />
    <glyph glyph-name="adieresis" unicode="&#xe4;" horiz-adv-x="997" 
d="M309 269q0 -54 29 -83t78 -28q111 0 231 102v193l-145 -33q-106 -25 -150 -61t-43 -90zM885 231q0 -115 12 -231h-227q-9 36 -19 98q-67 -59 -133 -92t-182 -33t-198 75q-83 75 -83 207t86 210t267 113l239 45v53q0 78 -37 115t-121 36q-132 0 -155 -122l-230 32
q14 125 118 195t284 70q378 -1 379 -336v-435zM778 1368v-221h-215v221h215zM426 1368v-221h-215v221h215z" />
    <glyph glyph-name="aring" unicode="&#xe5;" horiz-adv-x="997" 
d="M309 269q0 -54 29 -83t78 -28q111 0 231 102v193l-145 -33q-106 -25 -150 -61t-43 -90zM885 231q0 -115 12 -231h-227q-9 36 -19 98q-67 -59 -133 -92t-182 -33t-198 75q-83 75 -83 207t86 210t267 113l239 45v53q0 78 -37 115t-121 36q-132 0 -155 -122l-230 32
q14 125 118 195t284 70q378 -1 379 -336v-435zM642 1450q60 -56 60 -142t-59 -145t-148 -59t-149 57q-59 57 -59 143t59 144q60 59 148 59t148 -57zM494 1399q-39 0 -65 -27q-26 -28 -26 -68t26 -66t66 -26q39 0 65 27t26 67t-26 66t-66 27z" />
    <glyph glyph-name="ae" unicode="&#xe6;" horiz-adv-x="1544" 
d="M309 270q0 -54 30 -83t81 -29t123 28.5t131 75.5q-27 86 -29 187l-141 -29q-106 -23 -150.5 -59.5t-44.5 -90.5zM1247 580q0 104 -44.5 179t-135.5 75q-135 0 -164 -100.5t-31 -153.5h375zM492 827q-133 0 -156 -122l-232 32q14 125 120 194.5t265 69.5q223 0 304 -122
q106 123 289 123t289 -134.5t106 -351.5v-34q0 -33 -2 -48h-605q8 -295 209 -295q72 0 118 39t71 125l211 -33q-36 -151 -151 -224t-261 -73q-210 0 -324 146q-105 -81 -187.5 -113.5t-207.5 -32.5t-209 75t-84 207t87 210t268 113l239 45v53q0 78 -37 114.5t-120 36.5z" />
    <glyph glyph-name="ccedilla" unicode="&#xe7;" horiz-adv-x="940" 
d="M449 -262q69 0 69 51q0 25 -20.5 40t-54.5 15t-64 -8l65 141q-174 23 -274 151t-100 357t120 372.5t338 143.5q150 0 252.5 -85t128.5 -248l-217 -35q-10 86 -53 139t-119 53q-201 0 -201 -333q0 -180 50.5 -261t150.5 -81q70 0 113 43t59 149l217 -29
q-17 -140 -113 -236t-257 -104l-25 -59h14q53 0 93.5 -34t40.5 -81q0 -82 -55.5 -118.5t-133.5 -36.5t-156 28l35 88q55 -22 97 -22z" />
    <glyph glyph-name="egrave" unicode="&#xe8;" horiz-adv-x="987" 
d="M690 580q0 105 -45 178t-135 76q-136 0 -179 -154q-13 -47 -16 -100h375zM920 516v-42q0 -26 -2 -40h-605q8 -295 209 -295q72 0 118 39t71 125l211 -33q-36 -151 -162 -231q-100 -64 -221 -65q-332 -3 -436 280q-33 94 -33 220q1 249 120 389q120 140 318 139t305 -135
t107 -351zM489 1393l142 -265h-174l-224 265h256z" />
    <glyph glyph-name="eacute" unicode="&#xe9;" horiz-adv-x="987" 
d="M690 580q0 105 -45 178t-135 76q-136 0 -179 -154q-13 -47 -16 -100h375zM920 516v-42q0 -26 -2 -40h-605q8 -295 209 -295q72 0 118 39t71 125l211 -33q-36 -151 -162 -231q-100 -64 -221 -65q-332 -3 -436 280q-33 94 -33 220q1 249 120 389q120 140 318 139t305 -135
t107 -351zM553 1128h-170l141 265h252z" />
    <glyph glyph-name="ecircumflex" unicode="&#xea;" horiz-adv-x="987" 
d="M690 580q0 105 -45 178t-135 76q-136 0 -179 -154q-13 -47 -16 -100h375zM920 516v-42q0 -26 -2 -40h-605q8 -295 209 -295q72 0 118 39t71 125l211 -33q-36 -151 -162 -231q-100 -64 -221 -65q-332 -3 -436 280q-33 94 -33 220q1 249 120 389q120 140 318 139t305 -135
t107 -351zM502 1272l-113 -144h-201l203 265h227l201 -265h-207z" />
    <glyph glyph-name="edieresis" unicode="&#xeb;" horiz-adv-x="987" 
d="M690 580q0 105 -45 178t-135 76q-136 0 -179 -154q-13 -47 -16 -100h375zM920 516v-42q0 -26 -2 -40h-605q8 -295 209 -295q72 0 118 39t71 125l211 -33q-36 -151 -162 -231q-100 -64 -221 -65q-332 -3 -436 280q-33 94 -33 220q1 249 120 389q120 140 318 139t305 -135
t107 -351zM788 1368v-221h-215v221h215zM436 1368v-221h-215v221h215z" />
    <glyph glyph-name="igrave" unicode="&#xec;" horiz-adv-x="497" 
d="M371 0h-244v977h244v-977zM242 1393l141 -265h-174l-223 265h256z" />
    <glyph glyph-name="iacute" unicode="&#xed;" horiz-adv-x="497" 
d="M371 0h-244v977h244v-977zM289 1128h-170l141 265h252z" />
    <glyph glyph-name="icircumflex" unicode="&#xee;" horiz-adv-x="497" 
d="M371 0h-244v977h244v-977zM246 1272l-113 -144h-201l203 265h227l201 -265h-207z" />
    <glyph glyph-name="idieresis" unicode="&#xef;" horiz-adv-x="497" 
d="M371 0h-244v977h244v-977zM532 1368v-221h-215v221h215zM180 1368v-221h-215v221h215z" />
    <glyph glyph-name="eth" unicode="&#xf0;" horiz-adv-x="1024" 
d="M868 974q80 -179 80 -433t-109 -411t-327 -157q-217 0 -328.5 133t-111.5 341t104 342.5t279 134.5t268 -136q-45 229 -207 353l-135 -109l-84 76l115 92q-79 42 -183 68l41 135q152 -16 283 -88l111 88l86 -76l-95 -74q133 -100 213 -279zM707 453q0 299 -197 299
q-111 0 -154 -86t-43 -220t44 -217.5t154 -83.5t153 84t43 224z" />
    <glyph glyph-name="ntilde" unicode="&#xf1;" horiz-adv-x="1040" 
d="M557 805q-97 0 -192 -88v-717h-244v977h241v-137q124 134 241 155q34 6 67 6q251 0 256 -335v-666h-244v653q0 152 -125 152zM403 1212q-52 0 -61 -67h-125q7 160 109 213q35 18 81 18t104 -24q57 -24 85 -34q28 -11 56 -11q47 0 57 71h122q-7 -159 -105 -213
q-34 -18 -84 -18q-50 1 -128 33q-76 32 -111 32z" />
    <glyph glyph-name="ograve" unicode="&#xf2;" horiz-adv-x="1024" 
d="M69 479q1 221 115 371q114 151 328 151q215 0 330 -146q114 -146 113 -362q-1 -217 -115 -369q-114 -151 -328 -151q-217 0 -330 143q-114 142 -113 363zM666 738q-45 86 -152 87q-197 0 -200 -341q-1 -162 44 -248t152 -86q197 0 200 341q1 161 -44 247zM500 1393
l141 -265h-174l-223 265h256z" />
    <glyph glyph-name="oacute" unicode="&#xf3;" horiz-adv-x="1024" 
d="M69 479q1 221 115 371q114 151 328 151q215 0 330 -146q114 -146 113 -362q-1 -217 -115 -369q-114 -151 -328 -151q-217 0 -330 143q-114 142 -113 363zM666 738q-45 86 -152 87q-197 0 -200 -341q-1 -162 44 -248t152 -86q197 0 200 341q1 161 -44 247zM563 1128h-170
l142 265h251z" />
    <glyph glyph-name="ocircumflex" unicode="&#xf4;" horiz-adv-x="1024" 
d="M69 479q1 221 115 371q114 151 328 151q215 0 330 -146q114 -146 113 -362q-1 -217 -115 -369q-114 -151 -328 -151q-217 0 -330 143q-114 142 -113 363zM666 738q-45 86 -152 87q-197 0 -200 -341q-1 -162 44 -248t152 -86q197 0 200 341q1 161 -44 247zM512 1272
l-113 -144h-200l202 265h228l200 -265h-206z" />
    <glyph glyph-name="otilde" unicode="&#xf5;" horiz-adv-x="1024" 
d="M69 479q1 221 115 371q114 151 328 151q215 0 330 -146q114 -146 113 -362q-1 -217 -115 -369q-114 -151 -328 -151q-217 0 -330 143q-114 142 -113 363zM666 738q-45 86 -152 87q-197 0 -200 -341q-1 -162 44 -248t152 -86q197 0 200 341q1 161 -44 247zM393 1212
q-52 0 -61 -67h-125q7 159 108 213q35 18 83 18t129 -34q82 -34 112 -35q29 0 42 18t17 53h123q-7 -159 -105 -213q-34 -18 -86 -18q-52 1 -126 33q-75 32 -111 32z" />
    <glyph glyph-name="odieresis" unicode="&#xf6;" horiz-adv-x="1024" 
d="M799 1368v-221h-215v221h215zM446 1368v-221h-215v221h215zM69 479q1 221 115 371q114 151 328 151q215 0 330 -146q114 -146 113 -362q-1 -217 -115 -369q-114 -151 -328 -151q-217 0 -330 143q-114 142 -113 363zM666 738q-45 86 -152 87q-197 0 -200 -341
q-1 -162 44 -248t152 -86q197 0 200 341q1 161 -44 247z" />
    <glyph glyph-name="divide" unicode="&#xf7;" 
d="M542 98q-64 0 -104.5 40t-40.5 105t40 106.5t105 41.5t103.5 -40.5t39.5 -106.5t-39 -106t-104 -40zM542 756q-64 0 -104.5 40t-40.5 104t40 105.5t105 41.5t103.5 -40t39.5 -106t-39 -105.5t-104 -39.5zM1020 662v-177h-952v177h952z" />
    <glyph glyph-name="oslash" unicode="&#xf8;" horiz-adv-x="1024" 
d="M498 143q72 0 145.5 55t73.5 294q0 96 -25 188l-311 -487q45 -50 117 -50zM649 772q-47 59 -145 59t-147.5 -97t-49.5 -228t29 -230zM823 877q131 -143 131 -372t-114 -380.5t-328 -151.5q-135 0 -238 62l-67 -105l-64 58l64 98q-137 137 -137 376t114 389t328 150
q144 0 246 -69l71 110l70 -51z" />
    <glyph glyph-name="ugrave" unicode="&#xf9;" horiz-adv-x="1044" 
d="M680 977h244v-977h-242v121q-117 -127 -227 -141q-33 -4 -66 -5q-143 -1 -207 91t-63 245v666h243v-660q0 -152 125 -151q96 0 193 88v723zM512 1393l141 -265h-174l-223 265h256z" />
    <glyph glyph-name="uacute" unicode="&#xfa;" horiz-adv-x="1044" 
d="M680 977h244v-977h-242v121q-117 -127 -227 -141q-33 -4 -66 -5q-143 -1 -207 91t-63 245v666h243v-660q0 -152 125 -151q96 0 193 88v723zM575 1128h-169l141 265h252z" />
    <glyph glyph-name="ucircumflex" unicode="&#xfb;" horiz-adv-x="1044" 
d="M680 977h244v-977h-242v121q-117 -127 -227 -141q-33 -4 -66 -5q-143 -1 -207 91t-63 245v666h243v-660q0 -152 125 -151q96 0 193 88v723zM524 1272l-112 -144h-201l203 265h227l201 -265h-207z" />
    <glyph glyph-name="udieresis" unicode="&#xfc;" horiz-adv-x="1044" 
d="M680 977h244v-977h-242v121q-117 -127 -227 -141q-33 -4 -66 -5q-143 -1 -207 91t-63 245v666h243v-660q0 -152 125 -151q96 0 193 88v723zM811 1368v-221h-215v221h215zM459 1368v-221h-215v221h215z" />
    <glyph glyph-name="yacute" unicode="&#xfd;" horiz-adv-x="905" 
d="M170 -154q53 0 98 37t80 137l-340 957h252l176 -592q21 -64 31 -121q7 37 31 121l174 592h225l-336 -973q-65 -192 -151 -276t-215 -84q-58 0 -156 20v193q113 -11 131 -11zM508 1128h-170l141 265h252z" />
    <glyph glyph-name="thorn" unicode="&#xfe;" horiz-adv-x="1064" 
d="M553 819q-96 0 -182 -114v-439q29 -47 77 -79.5t101 -32.5q98 0 150.5 93t52.5 246t-51.5 239.5t-147.5 86.5zM371 -319h-244v1712h244v-527q55 70 114.5 102.5t144.5 32.5q170 0 267.5 -134t97.5 -370t-101.5 -380t-263.5 -144t-259 115v-407z" />
    <glyph glyph-name="ydieresis" unicode="&#xff;" horiz-adv-x="905" 
d="M170 -154q53 0 98 37t80 137l-340 957h252l176 -592q21 -64 31 -121q7 37 31 121l174 592h225l-336 -973q-65 -192 -151 -276t-215 -84q-58 0 -156 20v193q113 -11 131 -11zM743 1368v-221h-215v221h215zM391 1368v-221h-215v221h215z" />
    <glyph glyph-name="Amacron" unicode="&#x100;" horiz-adv-x="1171" 
d="M739 557l-135 537q-24 85 -29 118q-5 -43 -26 -129l-137 -526h327zM264 0h-254l406 1393h348l395 -1393h-272l-99 371h-423zM864 1559h-555v147h555v-147z" />
    <glyph glyph-name="amacron" unicode="&#x101;" horiz-adv-x="997" 
d="M309 269q0 -54 29 -83t78 -28q111 0 231 102v193l-145 -33q-106 -25 -150 -61t-43 -90zM885 231q0 -115 12 -231h-227q-9 36 -19 98q-67 -59 -133 -92t-182 -33t-198 75q-83 75 -83 207t86 210t267 113l239 45v53q0 78 -37 115t-121 36q-132 0 -155 -122l-230 32
q14 125 118 195t284 70q378 -1 379 -336v-435zM772 1186h-555v149h555v-149z" />
    <glyph glyph-name="Abreve" unicode="&#x102;" horiz-adv-x="1171" 
d="M739 557l-135 537q-24 85 -29 118q-5 -43 -26 -129l-137 -526h327zM264 0h-254l406 1393h348l395 -1393h-272l-99 371h-423zM589 1640q63 0 107 32t54 85h120q-4 -115 -85 -183t-199 -70q-119 -1 -198 64t-83 189h121q10 -53 55 -85t108 -32z" />
    <glyph glyph-name="abreve" unicode="&#x103;" horiz-adv-x="997" 
d="M309 269q0 -54 29 -83t78 -28q111 0 231 102v193l-145 -33q-106 -25 -150 -61t-43 -90zM885 231q0 -115 12 -231h-227q-9 36 -19 98q-67 -59 -133 -92t-182 -33t-198 75q-83 75 -83 207t86 210t267 113l239 45v53q0 78 -37 115t-121 36q-132 0 -155 -122l-230 32
q14 125 118 195t284 70q378 -1 379 -336v-435zM497 1270q63 0 105 32t55 91h121q-4 -122 -87 -192q-83 -71 -200 -72t-197 69t-81 195h121q12 -59 56 -91t107 -32z" />
    <glyph glyph-name="Aogonek" unicode="&#x104;" horiz-adv-x="1171" 
d="M739 557l-135 537q-8 29 -16 57.5t-13 56.5q-6 -48 -26 -125l-137 -526h327zM803 -215q0 113 135 215h-51l-99 371h-423l-101 -371h-254l406 1393h348l395 -1393h-106q-111 -103 -111 -175.5t70 -72.5q35 0 88 33l24 -86q-68 -55 -150 -55q-83 0 -127 37.5t-44 103.5z
" />
    <glyph glyph-name="aogonek" unicode="&#x105;" horiz-adv-x="997" 
d="M309 270q0 -54 29 -83t78 -29q111 0 231 102v193l-145 -33q-106 -25 -149.5 -60.5t-43.5 -89.5zM748 -356q-83 0 -126.5 37.5t-43.5 103.5q0 113 135 215h-43q-9 36 -19 98q-68 -59 -133 -92t-181 -33t-199 75t-83 207t86 210t267 113l239 45v53q0 78 -37 114.5
t-121 36.5q-132 0 -155 -122l-230 32q14 125 119 194.5t283 69.5t278.5 -80.5t100.5 -254.5v-435q0 -115 12 -231h-70q-110 -102 -110 -175t69 -73q37 0 88 33l25 -86q-68 -55 -151 -55z" />
    <glyph glyph-name="Cacute" unicode="&#x106;" horiz-adv-x="1216" 
d="M365 707q0 -533 294 -533q115 0 178 75q62 75 85 228l254 -39q-30 -229 -175 -347t-337 -118q-281 -1 -427 183q-147 184 -147 528t148 540t428 195q197 0 337 -114t173 -330l-254 -41q-27 199 -150 262q-42 23 -112 23t-128 -38q-166 -108 -167 -474zM711 1507h-174
l137 250h256z" />
    <glyph glyph-name="cacute" unicode="&#x107;" horiz-adv-x="940" 
d="M520 825q-196 0 -201 -333q0 -344 201 -342q70 0 113 43t59 149l217 -29q-17 -145 -120 -243q-103 -97 -289 -97q-187 0 -309 132q-123 138 -122 373t121 380t338 143q150 0 252 -85t129 -248l-217 -35q-10 86 -53 139t-119 53zM555 1128h-170l141 265h252z" />
    <glyph glyph-name="Ccircumflex" unicode="&#x108;" horiz-adv-x="1216" 
d="M365 707q0 -533 294 -533q115 0 178 75q62 75 85 228l254 -39q-30 -229 -175 -347t-337 -118q-281 -1 -427 183q-147 184 -147 528t148 540t428 195q197 0 337 -114t173 -330l-254 -41q-27 199 -150 262q-42 23 -112 23t-128 -38q-166 -108 -167 -474zM655 1640
l-112 -133h-201l203 250h227l201 -250h-209z" />
    <glyph glyph-name="ccircumflex" unicode="&#x109;" horiz-adv-x="940" 
d="M520 825q-196 0 -201 -333q0 -344 201 -342q70 0 113 43t59 149l217 -29q-17 -145 -120 -243q-103 -97 -289 -97q-187 0 -309 132q-123 138 -122 373t121 380t338 143q150 0 252 -85t129 -248l-217 -35q-10 86 -53 139t-119 53zM504 1272l-113 -144h-201l203 265h228
l200 -265h-207z" />
    <glyph glyph-name="Cdotaccent" unicode="&#x10a;" horiz-adv-x="1216" 
d="M365 707q0 -533 294 -533q115 0 178 75q62 75 85 228l254 -39q-30 -229 -175 -347t-337 -118q-281 -1 -427 183q-147 184 -147 528t148 540t428 195q197 0 337 -114t173 -330l-254 -41q-27 199 -150 262q-42 23 -112 23t-128 -38q-166 -108 -167 -474zM782 1745v-213
h-247v213h247z" />
    <glyph glyph-name="cdotaccent" unicode="&#x10b;" horiz-adv-x="940" 
d="M520 825q-196 0 -201 -333q0 -344 201 -342q70 0 113 43t59 149l217 -29q-17 -145 -120 -243q-103 -97 -289 -97q-187 0 -309 132q-123 138 -122 373t121 380t338 143q150 0 252 -85t129 -248l-217 -35q-10 86 -53 139t-119 53zM629 1147h-244v221h244v-221z" />
    <glyph glyph-name="Ccaron" unicode="&#x10c;" horiz-adv-x="1216" 
d="M365 707q0 -533 294 -533q115 0 178 75q62 75 85 228l254 -39q-30 -229 -175 -347t-337 -118q-281 -1 -427 183q-147 184 -147 528t148 540t428 195q197 0 337 -114t173 -330l-254 -41q-27 199 -150 262q-42 23 -112 23t-128 -38q-166 -108 -167 -474zM662 1622l112 135
h201l-203 -250h-229l-199 250h207z" />
    <glyph glyph-name="ccaron" unicode="&#x10d;" horiz-adv-x="940" 
d="M520 825q-196 0 -201 -333q0 -344 201 -342q70 0 113 43t59 149l217 -29q-17 -145 -120 -243q-103 -97 -289 -97q-187 0 -309 132q-123 138 -122 373t121 380t338 143q150 0 252 -85t129 -248l-217 -35q-10 86 -53 139t-119 53zM510 1247l113 146h200l-202 -265h-230
l-198 265h206z" />
    <glyph glyph-name="Dcaron" unicode="&#x10e;" horiz-adv-x="1288" 
d="M406 207h135q195 0 289 121t96 380q0 258 -93 374t-286 116h-141v-991zM588 1393q294 1 452 -177t158 -507t-157 -519t-449 -190h-449v1393h445zM586 1622l112 135h201l-203 -250h-229l-199 250h207z" />
    <glyph glyph-name="dcaron" unicode="&#x10f;" horiz-adv-x="1064" 
d="M516 817q-98 0 -150 -93t-52 -245q0 -151 52 -239t148 -88q59 0 101 34t79 80v439q-29 47 -77 79t-101 33zM938 0h-209l-16 123q-59 -76 -119 -113t-150 -37q-176 0 -275 133t-99 369t104 382t275 144q71 -1 135 -35t110 -87v514h244v-1393zM1192 1071h-141l30 322h224z
" />
    <glyph glyph-name="Dcroat" unicode="&#x110;" horiz-adv-x="1288" 
d="M406 799h260v-133h-260v-459h135q195 0 290 121t95 380t-93.5 374.5t-285.5 115.5h-141v-399zM143 799v594h445q295 0 452.5 -177.5t157.5 -506.5t-155.5 -519t-450.5 -190h-449v666h-180v133h180z" />
    <glyph glyph-name="dcroat" unicode="&#x111;" horiz-adv-x="1064" 
d="M516 817q-98 0 -150.5 -93t-52.5 -244.5t52.5 -239.5t148.5 -88q59 0 101 33.5t79 80.5v439q-29 47 -77 79.5t-101 32.5zM449 1001q137 0 245 -122v235h-278v119h278v160h244v-160h147v-119h-147v-1114h-209l-16 123q-59 -76 -118.5 -113t-150.5 -37q-176 0 -275 133.5
t-99 369.5t103.5 380.5t275.5 144.5z" />
    <glyph glyph-name="Emacron" unicode="&#x112;" horiz-adv-x="1083" 
d="M143 1393h867v-209h-604v-361h501v-209h-501v-401h638v-213h-901v1393zM850 1559h-555v147h555v-147z" />
    <glyph glyph-name="emacron" unicode="&#x113;" horiz-adv-x="987" 
d="M690 580q0 105 -45 178t-135 76q-136 0 -179 -154q-13 -47 -16 -100h375zM920 516v-42q0 -26 -2 -40h-605q8 -295 209 -295q72 0 118 39t71 125l211 -33q-36 -151 -162 -231q-100 -64 -221 -65q-332 -3 -436 280q-33 94 -33 220q1 249 120 389q120 140 318 139t305 -135
t107 -351zM782 1186h-555v149h555v-149z" />
    <glyph glyph-name="Ebreve" unicode="&#x114;" horiz-adv-x="1083" 
d="M143 1393h867v-209h-604v-361h501v-209h-501v-401h638v-213h-901v1393zM574 1640q62 0 107 32q44 32 54 85h121q-4 -113 -85 -182t-200 -71q-119 -1 -197 64t-83 189h121q10 -53 55 -85t107 -32z" />
    <glyph glyph-name="ebreve" unicode="&#x115;" horiz-adv-x="987" 
d="M690 580q0 105 -45 178t-135 76q-136 0 -179 -154q-13 -47 -16 -100h375zM920 516v-42q0 -26 -2 -40h-605q8 -295 209 -295q72 0 118 39t71 125l211 -33q-36 -151 -162 -231q-100 -64 -221 -65q-332 -3 -436 280q-33 94 -33 220q1 249 120 389q120 140 318 139t305 -135
t107 -351zM507 1270q63 0 105 32t56 91h120q-4 -122 -87 -192q-83 -71 -200 -72q-116 -1 -196 69t-82 195h121q12 -59 56 -91t107 -32z" />
    <glyph glyph-name="Edotaccent" unicode="&#x116;" horiz-adv-x="1083" 
d="M143 1393h867v-209h-604v-361h501v-209h-501v-401h638v-213h-901v1393zM696 1745v-213h-247v213h247z" />
    <glyph glyph-name="edotaccent" unicode="&#x117;" horiz-adv-x="987" 
d="M690 580q0 105 -45 178t-135 76q-136 0 -179 -154q-13 -47 -16 -100h375zM920 516v-42q0 -26 -2 -40h-605q8 -295 209 -295q72 0 118 39t71 125l211 -33q-36 -151 -162 -231q-100 -64 -221 -65q-332 -3 -436 280q-33 94 -33 220q1 249 120 389q120 140 318 139t305 -135
t107 -351zM627 1147h-244v221h244v-221z" />
    <glyph glyph-name="Eogonek" unicode="&#x118;" horiz-adv-x="1083" 
d="M845 -356q-83 0 -127 37.5t-44 103.5q0 113 135 215h-666v1393h867v-209h-604v-361h501v-209h-501v-401h638v-213h-120q-111 -103 -111 -175.5t70 -72.5q35 0 88 33l24 -86q-67 -55 -150 -55z" />
    <glyph glyph-name="eogonek" unicode="&#x119;" horiz-adv-x="987" 
d="M690 580q0 104 -44.5 179t-135.5 75q-135 0 -164 -100.5t-31 -153.5h375zM570 -356q-83 0 -127 37.5t-44 103.5q0 98 103 188q-189 4 -310.5 136t-121.5 374t120 380t317 138q198 0 305.5 -133.5t107.5 -351.5v-34q0 -33 -2 -48h-605q8 -295 209 -295q72 0 118 39t71 125
l211 -33q-33 -127 -111 -193.5t-174 -88.5q-98 -91 -98 -164q0 -72 69 -72q37 0 88 33l25 -86q-68 -55 -151 -55z" />
    <glyph glyph-name="Ecaron" unicode="&#x11a;" horiz-adv-x="1083" 
d="M143 1393h867v-209h-604v-361h501v-209h-501v-401h638v-213h-901v1393zM575 1622l113 135h201l-203 -250h-229l-199 250h207z" />
    <glyph glyph-name="ecaron" unicode="&#x11b;" horiz-adv-x="987" 
d="M690 580q0 105 -45 178t-135 76q-136 0 -179 -154q-13 -47 -16 -100h375zM920 516v-42q0 -26 -2 -40h-605q8 -295 209 -295q72 0 118 39t71 125l211 -33q-36 -151 -162 -231q-100 -64 -221 -65q-332 -3 -436 280q-33 94 -33 220q1 249 120 389q120 140 318 139t305 -135
t107 -351zM508 1247l113 146h200l-203 -265h-229l-199 265h207z" />
    <glyph glyph-name="Gcircumflex" unicode="&#x11c;" horiz-adv-x="1277" 
d="M666 1227q-305 0 -310 -531q0 -392 163 -493q58 -37 145 -37q131 0 192 75t62 197v43h-259v205h500v-686h-190l-23 121q-45 -78 -122 -113q-78 -35 -200 -35q-250 0 -388 179q-146 184 -146 527t148 541t432 199q197 0 331 -113t158 -325l-241 -35q-16 145 -90 213
t-162 68zM653 1640l-112 -133h-201l203 250h227l201 -250h-209z" />
    <glyph glyph-name="gcircumflex" unicode="&#x11d;" horiz-adv-x="1011" 
d="M236 -84q0 -42 66 -79q66 -36 210 -36q297 0 297 101q0 23 -26 42t-91 23l-172 8q-187 12 -244 23q-40 -40 -40 -82zM488 848q-78 0 -116 -53t-38 -129t38 -134t108 -57t118 45q47 44 47 134t-40 142t-117 52zM923 858q-46 0 -92 -27q52 -82 53 -167q2 -158 -109 -251
q-110 -93 -261 -91q-66 0 -143 18q-76 -18 -76 -70q0 -57 74 -61l327 -19q137 -8 216 -69t79 -178q0 -205 -260 -275q-92 -24 -217 -24q-231 1 -344 70q-113 70 -113 171q0 51 34 91t81 63q-88 62 -88 149q0 64 48 112t126 77q-159 89 -162 274q0 149 107 248q107 98 280 97
q174 -1 273 -87q77 99 178 99h30q13 0 29 -4v-154q-24 8 -70 8zM492 1272l-113 -144h-201l203 265h227l201 -265h-207z" />
    <glyph glyph-name="Gbreve" unicode="&#x11e;" horiz-adv-x="1277" 
d="M666 1227q-305 0 -310 -531q0 -392 163 -493q58 -37 145 -37q131 0 192 75t62 197v43h-259v205h500v-686h-190l-23 121q-45 -78 -122 -113q-78 -35 -200 -35q-250 0 -388 179q-146 184 -146 527t148 541t432 199q197 0 331 -113t158 -325l-241 -35q-16 145 -90 213
t-162 68zM658 1640q62 0 107 32q44 32 54 85h121q-4 -113 -85 -182t-200 -71q-119 -1 -197 64t-83 189h121q10 -53 55 -85t107 -32z" />
    <glyph glyph-name="gbreve" unicode="&#x11f;" horiz-adv-x="1011" 
d="M236 -84q0 -42 66 -79q66 -36 210 -36q297 0 297 101q0 23 -26 42t-91 23l-172 8q-187 12 -244 23q-40 -40 -40 -82zM488 848q-78 0 -116 -53t-38 -129t38 -134t108 -57t118 45q47 44 47 134t-40 142t-117 52zM923 858q-46 0 -92 -27q52 -82 53 -167q2 -158 -109 -251
q-110 -93 -261 -91q-66 0 -143 18q-76 -18 -76 -70q0 -57 74 -61l327 -19q137 -8 216 -69t79 -178q0 -205 -260 -275q-92 -24 -217 -24q-231 1 -344 70q-113 70 -113 171q0 51 34 91t81 63q-88 62 -88 149q0 64 48 112t126 77q-159 89 -162 274q0 149 107 248q107 98 280 97
q174 -1 273 -87q77 99 178 99h30q13 0 29 -4v-154q-24 8 -70 8zM501 1270q63 0 105 32t56 91h120q-4 -122 -87 -192q-83 -71 -200 -72q-116 -1 -196 69t-82 195h121q12 -59 56 -91t107 -32z" />
    <glyph glyph-name="Gdotaccent" unicode="&#x120;" horiz-adv-x="1277" 
d="M666 1227q-305 0 -310 -531q0 -392 163 -493q58 -37 145 -37q131 0 192 75t62 197v43h-259v205h500v-686h-190l-23 121q-45 -78 -122 -113q-78 -35 -200 -35q-250 0 -388 179q-146 184 -146 527t148 541t432 199q197 0 331 -113t158 -325l-241 -35q-16 145 -90 213
t-162 68zM780 1745v-213h-248v213h248z" />
    <glyph glyph-name="gdotaccent" unicode="&#x121;" horiz-adv-x="1011" 
d="M236 -84q0 -42 66 -79q66 -36 210 -36q297 0 297 101q0 23 -26 42t-91 23l-172 8q-187 12 -244 23q-40 -40 -40 -82zM488 848q-78 0 -116 -53t-38 -129t38 -134t108 -57t118 45q47 44 47 134t-40 142t-117 52zM923 858q-46 0 -92 -27q52 -82 53 -167q2 -158 -109 -251
q-110 -93 -261 -91q-66 0 -143 18q-76 -18 -76 -70q0 -57 74 -61l327 -19q137 -8 216 -69t79 -178q0 -205 -260 -275q-92 -24 -217 -24q-231 1 -344 70q-113 70 -113 171q0 51 34 91t81 63q-88 62 -88 149q0 64 48 112t126 77q-159 89 -162 274q0 149 107 248q107 98 280 97
q174 -1 273 -87q77 99 178 99h30q13 0 29 -4v-154q-24 8 -70 8zM621 1147h-244v221h244v-221z" />
    <glyph glyph-name="Gcommaaccent" unicode="&#x122;" horiz-adv-x="1277" 
d="M666 1227q-305 0 -310 -531q0 -392 163 -493q58 -37 145 -37q131 0 192 75t62 197v43h-259v205h500v-686h-190l-23 121q-45 -78 -122 -113q-78 -35 -200 -35q-250 0 -388 179q-146 184 -146 527t148 541t432 199q197 0 331 -113t158 -325l-241 -35q-16 145 -90 213
t-162 68zM647 -356h-147l51 245h227z" />
    <glyph glyph-name="gcommaaccent" unicode="&#x123;" horiz-adv-x="1011" 
d="M236 -84q0 -42 66 -79q66 -36 210 -36q297 0 297 101q0 23 -26 42t-91 23l-172 8q-187 12 -244 23q-40 -40 -40 -82zM488 848q-78 0 -116 -53t-38 -129t38 -134t108 -57t118 45q47 44 47 134t-40 142t-117 52zM923 858q-46 0 -92 -27q52 -82 53 -167q2 -158 -109 -251
q-110 -93 -261 -91q-66 0 -143 18q-76 -18 -76 -70q0 -57 74 -61l327 -19q137 -8 216 -69t79 -178q0 -205 -260 -275q-92 -24 -217 -24q-231 1 -344 70q-113 70 -113 171q0 51 34 91t81 63q-88 62 -88 149q0 64 48 112t126 77q-159 89 -162 274q0 149 107 248q107 98 280 97
q174 -1 273 -87q77 99 178 99h30q13 0 29 -4v-154q-24 8 -70 8zM508 1393h143l-53 -256h-221z" />
    <glyph glyph-name="Hcircumflex" unicode="&#x124;" horiz-adv-x="1302" 
d="M649 1640l-112 -133h-201l203 250h227l201 -250h-209zM406 0h-263v1393h263v-555h491v555h262v-1393h-262v639h-491v-639z" />
    <glyph glyph-name="hcircumflex" unicode="&#x125;" horiz-adv-x="1046" 
d="M563 805q-97 0 -192 -88v-717h-244v1393h244v-553q94 94 163 128q69 33 142 33q256 0 256 -335v-666h-244v653q0 152 -125 152zM475 1640l-113 -133h-200l203 250h227l201 -250h-209z" />
    <glyph glyph-name="Hbar" unicode="&#x126;" horiz-adv-x="1302" 
d="M897 762v250h-491v-250h491zM406 1143h491v250h262v-1393h-262v569h-491v-569h-263v1393h263v-250z" />
    <glyph glyph-name="hbar" unicode="&#x127;" horiz-adv-x="1046" 
d="M563 805q-97 0 -192 -88v-717h-244v1114h-147v119h147v160h244v-160h278v-119h-278v-274q136 136 203.5 148.5t121.5 12.5t145 -50t91 -285v-666h-244v653q0 152 -125 152z" />
    <glyph glyph-name="Itilde" unicode="&#x128;" horiz-adv-x="557" 
d="M410 1393v-1393h-263v1393h263zM401 1673q51 0 62 70h123q-7 -152 -106 -205q-34 -18 -75 -18t-89 15t-88 32q-40 16 -66 16q-51 0 -66 -63h-125q7 150 109 204q67 35 138 11t115 -43t68 -19z" />
    <glyph glyph-name="itilde" unicode="&#x129;" horiz-adv-x="497" 
d="M371 0h-244v977h244v-977zM127 1212q-52 0 -61 -67h-125q7 159 108 213q35 18 83 18t129 -34q82 -34 112 -35q29 0 42 18t17 53h123q-7 -159 -105 -213q-34 -18 -86 -18q-52 1 -126 33q-75 32 -111 32z" />
    <glyph glyph-name="Imacron" unicode="&#x12a;" horiz-adv-x="557" 
d="M410 1393v-1393h-263v1393h263zM557 1559h-555v147h555v-147z" />
    <glyph glyph-name="imacron" unicode="&#x12b;" horiz-adv-x="497" 
d="M371 0h-244v977h244v-977zM526 1186h-555v149h555v-149z" />
    <glyph glyph-name="Iogonek" unicode="&#x12e;" horiz-adv-x="557" 
d="M288 -356q-83 0 -127 37.5t-44 103.5q0 113 135 215h-105v1393h263v-1393h-43q-111 -103 -111 -175.5t70 -72.5q35 0 88 33l24 -86q-67 -55 -150 -55z" />
    <glyph glyph-name="iogonek" unicode="&#x12f;" horiz-adv-x="497" 
d="M371 1147h-244v221h244v-221zM263 -356q-83 0 -127 37.5t-44 103.5q0 113 135 215h-100v977h244v-977h-29q-111 -103 -111 -175.5t70 -72.5q35 0 88 33l25 -86q-68 -55 -151 -55z" />
    <glyph glyph-name="Idotaccent" unicode="&#x130;" horiz-adv-x="557" 
d="M410 1393v-1393h-263v1393h263zM403 1745v-213h-247v213h247z" />
    <glyph glyph-name="dotlessi" unicode="&#x131;" horiz-adv-x="497" 
d="M371 0h-244v977h244v-977z" />
    <glyph glyph-name="Jcircumflex" unicode="&#x134;" horiz-adv-x="919" 
d="M524 412v981h262v-965q0 -209 -101 -332t-318 -123q-156 0 -257 82q-102 82 -128 217l249 54q30 -144 148 -144q73 0 109 51t36 179zM645 1640l-113 -133h-200l203 250h227l201 -250h-209z" />
    <glyph glyph-name="jcircumflex" unicode="&#x135;" horiz-adv-x="505" 
d="M0 -160h25q49 0 79 22t31 93v1022h244v-1034q0 -143 -74 -221t-223 -78q-55 0 -109 8v190q15 -2 27 -2zM250 1272l-113 -144h-200l202 265h228l200 -265h-207z" />
    <glyph glyph-name="Kcommaaccent" unicode="&#x136;" horiz-adv-x="1179" 
d="M406 0h-263v1393h263v-631l458 631h283l-412 -545l457 -848h-283l-338 629l-165 -209v-420zM623 -356h-148l51 245h228z" />
    <glyph glyph-name="kcommaaccent" unicode="&#x137;" horiz-adv-x="972" 
d="M371 0h-244v1393h244v-805l293 389h268l-285 -352l330 -625h-266l-230 432l-110 -131v-301zM502 -356h-148l52 245h227z" />
    <glyph glyph-name="Lacute" unicode="&#x139;" horiz-adv-x="993" 
d="M406 219h571v-219h-834v1393h263v-1174zM340 1507h-174l137 250h256z" />
    <glyph glyph-name="lacute" unicode="&#x13a;" horiz-adv-x="497" 
d="M371 0h-244v1393h244v-1393zM293 1507h-174l137 250h256z" />
    <glyph glyph-name="Lcommaaccent" unicode="&#x13b;" horiz-adv-x="993" 
d="M406 219h571v-219h-834v1393h263v-1174zM532 -356h-147l51 245h228z" />
    <glyph glyph-name="lcommaaccent" unicode="&#x13c;" horiz-adv-x="497" 
d="M371 0h-244v1393h244v-1393zM231 -356h-147l51 245h227z" />
    <glyph glyph-name="Lcaron" unicode="&#x13d;" horiz-adv-x="993" 
d="M406 219h571v-219h-834v1393h263v-1174zM676 1071h-141l30 322h223z" />
    <glyph glyph-name="lcaron" unicode="&#x13e;" horiz-adv-x="497" 
d="M371 0h-244v1393h244v-1393zM625 1071h-142l31 322h223z" />
    <glyph glyph-name="Ldot" unicode="&#x13f;" horiz-adv-x="993" 
d="M406 219h571v-219h-834v1393h263v-1174zM852 596h-244v221h244v-221z" />
    <glyph glyph-name="ldot" unicode="&#x140;" horiz-adv-x="798" 
d="M371 0h-244v1393h244v-1393zM756 596h-244v221h244v-221z" />
    <glyph glyph-name="Lslash" unicode="&#x141;" horiz-adv-x="993" 
d="M406 219h571v-219h-834v479l-139 -84l-57 117l196 119v762h263v-602l335 204l58 -116l-393 -240v-420z" />
    <glyph glyph-name="lslash" unicode="&#x142;" horiz-adv-x="538" 
d="M391 0h-244v575l-131 -90l-57 109l188 133v666h244v-498l137 98l60 -110l-197 -140v-743z" />
    <glyph glyph-name="Nacute" unicode="&#x143;" horiz-adv-x="1318" 
d="M944 676v717h236v-1393h-244l-494 952q-62 122 -82 187h-2q17 -100 17 -236v-903h-236v1393h363l370 -740q55 -111 95 -266h2q-25 180 -25 289zM719 1507h-174l137 250h256z" />
    <glyph glyph-name="nacute" unicode="&#x144;" horiz-adv-x="1040" 
d="M557 805q-97 0 -192 -88v-717h-244v977h241v-137q124 134 241 155q34 6 67 6q251 0 256 -335v-666h-244v653q0 152 -125 152zM573 1128h-170l142 265h252z" />
    <glyph glyph-name="Ncommaaccent" unicode="&#x145;" horiz-adv-x="1318" 
d="M944 676v717h236v-1393h-244l-494 952q-62 122 -82 187h-2q17 -100 17 -236v-903h-236v1393h363l370 -740q55 -111 95 -266h2q-25 180 -25 289zM651 -356h-147l51 245h227z" />
    <glyph glyph-name="ncommaaccent" unicode="&#x146;" horiz-adv-x="1040" 
d="M557 805q-97 0 -192 -88v-717h-244v977h241v-137q124 134 241 155q34 6 67 6q251 0 256 -335v-666h-244v653q0 152 -125 152zM504 -356h-148l52 245h227z" />
    <glyph glyph-name="Ncaron" unicode="&#x147;" horiz-adv-x="1318" 
d="M944 676v717h236v-1393h-244l-494 952q-62 122 -82 187h-2q17 -100 17 -236v-903h-236v1393h363l370 -740q55 -111 95 -266h2q-25 180 -25 289zM670 1622l112 135h201l-203 -250h-229l-199 250h207z" />
    <glyph glyph-name="ncaron" unicode="&#x148;" horiz-adv-x="1040" 
d="M557 805q-97 0 -192 -88v-717h-244v977h241v-137q124 134 241 155q34 6 67 6q251 0 256 -335v-666h-244v653q0 152 -125 152zM528 1247l113 146h201l-203 -265h-229l-199 265h207z" />
    <glyph glyph-name="Omacron" unicode="&#x14c;" horiz-adv-x="1302" 
d="M90 692q0 328 147 528q147 199 421 199t420 -205q136 -189 135 -518q-1 -328 -148 -525q-147 -196 -420 -197q-274 -1 -414 195q-141 195 -141 523zM651 172q214 0 272 310q17 97 17 214q0 525 -289 525q-285 0 -289 -525q0 -524 289 -524zM930 1559h-555v147h555v-147z
" />
    <glyph glyph-name="omacron" unicode="&#x14d;" horiz-adv-x="1024" 
d="M69 479q1 221 115 371q114 151 328 151q215 0 330 -146q114 -146 113 -362q-1 -217 -115 -369q-114 -151 -328 -151q-217 0 -330 143q-114 142 -113 363zM666 738q-45 86 -152 87q-197 0 -200 -341q-1 -162 44 -248t152 -86q197 0 200 341q1 161 -44 247zM793 1186h-555
v149h555v-149z" />
    <glyph glyph-name="Obreve" unicode="&#x14e;" horiz-adv-x="1302" 
d="M90 692q0 328 147 528q147 199 421 199t420 -205q136 -189 135 -518q-1 -328 -148 -525q-147 -196 -420 -197q-274 -1 -414 195q-141 195 -141 523zM651 172q214 0 272 310q17 97 17 214q0 525 -289 525q-285 0 -289 -525q0 -524 289 -524zM654 1640q62 0 107 32
q44 32 54 85h121q-4 -113 -85 -182t-200 -71q-119 -1 -197 64t-83 189h121q10 -53 55 -85t107 -32z" />
    <glyph glyph-name="obreve" unicode="&#x14f;" horiz-adv-x="1024" 
d="M69 479q1 221 115 371q114 151 328 151q215 0 330 -146q114 -146 113 -362q-1 -217 -115 -369q-114 -151 -328 -151q-217 0 -330 143q-114 142 -113 363zM666 738q-45 86 -152 87q-197 0 -200 -341q-1 -162 44 -248t152 -86q197 0 200 341q1 161 -44 247zM518 1270
q62 0 105 32t55 91h121q-4 -120 -87 -191q-83 -72 -200 -73t-197 69t-82 195h121q12 -59 56 -91q46 -32 108 -32z" />
    <glyph glyph-name="Ohungarumlaut" unicode="&#x150;" horiz-adv-x="1302" 
d="M90 692q0 328 147 528q147 199 421 199t420 -205q136 -189 135 -518q-1 -328 -148 -525q-147 -196 -420 -197q-274 -1 -414 195q-141 195 -141 523zM651 172q214 0 272 310q17 97 17 214q0 525 -289 525q-285 0 -289 -525q0 -524 289 -524zM549 1507h-133l137 250h197z
M848 1507h-133l143 250h197z" />
    <glyph glyph-name="ohungarumlaut" unicode="&#x151;" horiz-adv-x="1024" 
d="M69 479q1 221 115 371q114 151 328 151q215 0 330 -146q114 -146 113 -362q-1 -217 -115 -369q-114 -151 -328 -151q-217 0 -330 143q-114 142 -113 363zM666 738q-45 86 -152 87q-197 0 -200 -341q-1 -162 44 -248t152 -86q197 0 200 341q1 161 -44 247zM408 1128h-129
l137 265h196zM709 1128h-131l143 265h197z" />
    <glyph glyph-name="OE" unicode="&#x152;" horiz-adv-x="1888" 
d="M362 684q0 -512 293 -512q152 0 222.5 141.5t70.5 391.5q0 371 -108.5 442.5t-187.5 71.5q-150 0 -220 -142.5t-70 -392.5zM948 127q-120 -150 -340 -150q-102 0 -198.5 42t-208 180t-111.5 477t140 539t373 200q234 0 345 -147v125h867v-209h-605v-361h502v-209h-502
v-401h639v-213h-901v127z" />
    <glyph glyph-name="oe" unicode="&#x153;" horiz-adv-x="1613" 
d="M1317 580q0 102 -45 178t-135 76q-135 0 -164 -100.5t-31 -153.5h375zM512 150q201 0 201 344q0 158 -45 244.5t-154 86.5q-199 -1 -199 -345q0 -158 45 -244t152 -86zM819 113q-108 -140 -314 -140t-319.5 140t-113.5 364t115 374t325 150q211 0 317 -147
q125 147 316 147t296 -133.5t105 -351.5v-34q0 -33 -2 -48h-604q8 -295 209 -295q72 0 118 39t70 125l211 -33q-36 -152 -151 -224.5t-260 -72.5q-205 0 -318 140z" />
    <glyph glyph-name="Racute" unicode="&#x154;" horiz-adv-x="1200" 
d="M614 811q230 0 230 188q0 89 -56 145t-180 56h-202v-389h208zM670 1393q204 0 323 -108t119 -281q0 -123 -70 -214t-180 -131l293 -659h-278l-269 612h-202v-612h-263v1393h527zM627 1507h-174l137 250h256z" />
    <glyph glyph-name="racute" unicode="&#x155;" horiz-adv-x="747" 
d="M657 766q-191 0 -292 -213v-553h-244v977h233v-105q0 -56 -4 -124q121 210 247 243q38 10 70 10t54 -4v-235q-28 4 -64 4zM467 1128h-170l141 265h252z" />
    <glyph glyph-name="Rcommaaccent" unicode="&#x156;" horiz-adv-x="1200" 
d="M614 811q230 0 230 188q0 89 -56 145t-180 56h-202v-389h208zM670 1393q204 0 323 -108t119 -281q0 -123 -70 -214t-180 -131l293 -659h-278l-269 612h-202v-612h-263v1393h527zM608 -356h-147l51 245h227z" />
    <glyph glyph-name="rcommaaccent" unicode="&#x157;" horiz-adv-x="747" 
d="M657 766q-191 0 -292 -213v-553h-244v977h233v-105q0 -56 -4 -124q121 210 247 243q38 10 70 10t54 -4v-235q-28 4 -64 4zM227 -356h-147l51 245h227z" />
    <glyph glyph-name="Rcaron" unicode="&#x158;" horiz-adv-x="1200" 
d="M614 811q230 0 230 188q0 89 -56 145t-180 56h-202v-389h208zM670 1393q204 0 323 -108t119 -281q0 -123 -70 -214t-180 -131l293 -659h-278l-269 612h-202v-612h-263v1393h527zM578 1622l112 135h201l-203 -250h-229l-199 250h207z" />
    <glyph glyph-name="rcaron" unicode="&#x159;" horiz-adv-x="747" 
d="M657 766q-191 0 -292 -213v-553h-244v977h233v-105q0 -56 -4 -124q121 210 247 243q38 10 70 10t54 -4v-235q-28 4 -64 4zM424 1247l113 146h200l-202 -265h-230l-199 265h207z" />
    <glyph glyph-name="Sacute" unicode="&#x15a;" 
d="M340 1052q0 -74 35 -116t135 -72l172 -51q172 -49 253 -147t81 -271t-129 -297q-129 -123 -346 -123q-320 0 -447 209q-43 72 -57 170l262 58q23 -121 87 -171q64 -51 158 -51q93 0 151 46t59 139q0 144 -199 198l-172 50q-135 39 -218 132t-83 260t125 286
q125 118 340 118q274 0 381 -191q37 -67 47 -161l-242 -43q-8 92 -59 143t-135 51q-83 0 -141 -46t-58 -120zM592 1507h-174l137 250h256z" />
    <glyph glyph-name="sacute" unicode="&#x15b;" horiz-adv-x="833" 
d="M274 727q0 -47 28 -70t73 -34l184 -54q104 -31 165 -95q60 -65 60 -194t-95 -218t-277 -89q-235 0 -329 156q-32 53 -44 127l219 33q12 -68 55 -106t110 -38t103 30t35 74q0 81 -84 105l-198 62q-100 31 -162 96q-61 66 -61 190t99 212q100 89 251 88q151 0 242 -66
t110 -184l-215 -37q-18 117 -140 115q-52 0 -91 -28q-38 -28 -38 -75zM457 1128h-170l141 265h252z" />
    <glyph glyph-name="Scircumflex" unicode="&#x15c;" 
d="M340 1052q0 -74 35 -116t135 -72l172 -51q172 -49 253 -147t81 -271t-129 -297q-129 -123 -346 -123q-320 0 -447 209q-43 72 -57 170l262 58q23 -121 87 -171q64 -51 158 -51q93 0 151 46t59 139q0 144 -199 198l-172 50q-135 39 -218 132t-83 260t125 286
q125 118 340 118q274 0 381 -191q37 -67 47 -161l-242 -43q-8 92 -59 143t-135 51q-83 0 -141 -46t-58 -120zM537 1640l-113 -133h-201l203 250h227l201 -250h-209z" />
    <glyph glyph-name="scircumflex" unicode="&#x15d;" horiz-adv-x="833" 
d="M274 727q0 -47 28 -70t73 -34l184 -54q104 -31 165 -95q60 -65 60 -194t-95 -218t-277 -89q-235 0 -329 156q-32 53 -44 127l219 33q12 -68 55 -106t110 -38t103 30t35 74q0 81 -84 105l-198 62q-100 31 -162 96q-61 66 -61 190t99 212q100 89 251 88q151 0 242 -66
t110 -184l-215 -37q-18 117 -140 115q-52 0 -91 -28q-38 -28 -38 -75zM414 1272l-113 -144h-201l203 265h227l201 -265h-207z" />
    <glyph glyph-name="Scedilla" unicode="&#x15e;" 
d="M299 412q42 -222 245 -222q93 0 151.5 46.5t58.5 138.5q0 144 -199 198l-172 50q-135 39 -218 132t-83 261t124 285.5t341 117.5q274 0 346 -129t82 -223l-242 -43q-8 92 -59 143.5t-135 51.5t-141.5 -46.5t-57.5 -120.5t35 -116.5t135 -71.5l172 -51q172 -49 253 -147.5
t81 -267.5t-116 -288t-316 -133l-27 -63h14q53 0 93.5 -34t40.5 -81q0 -82 -55.5 -118.5t-133.5 -36.5t-156 28l35 88q55 -22 97 -22q69 0 69 51q0 25 -20.5 40t-54.5 15t-64 -8l65 141q-180 10 -302 100.5t-148 276.5z" />
    <glyph glyph-name="scedilla" unicode="&#x15f;" horiz-adv-x="833" 
d="M274 727q0 -47 28 -69.5t73 -34.5l184 -54q104 -31 164.5 -95t60.5 -186t-78.5 -210t-242.5 -103l-27 -61h15q53 0 93 -34t40 -81q0 -82 -55.5 -118.5t-133.5 -36.5t-155 28l34 88q55 -22 97 -22q69 0 69 51q0 25 -20 40t-54 15t-65 -8l64 139q-129 10 -216.5 77
t-109.5 204l219 33q12 -68 55 -106t110 -38t102.5 30t35.5 74q0 81 -84 105l-198 62q-224 69 -224 280q0 131 99 218t251 87t243 -65.5t110 -183.5l-215 -37q-18 114 -137 114q-55 0 -93.5 -27.5t-38.5 -74.5z" />
    <glyph glyph-name="Scaron" unicode="&#x160;" 
d="M340 1052q0 -74 35 -116t135 -72l172 -51q172 -49 253 -147t81 -271t-129 -297q-129 -123 -346 -123q-320 0 -447 209q-43 72 -57 170l262 58q23 -121 87 -171q64 -51 158 -51q93 0 151 46t59 139q0 144 -199 198l-172 50q-135 39 -218 132t-83 260t125 286
q125 118 340 118q274 0 381 -191q37 -67 47 -161l-242 -43q-8 92 -59 143t-135 51q-83 0 -141 -46t-58 -120zM543 1622l112 135h201l-203 -250h-229l-199 250h207z" />
    <glyph glyph-name="scaron" unicode="&#x161;" horiz-adv-x="833" 
d="M274 727q0 -47 28 -70t73 -34l184 -54q104 -31 165 -95q60 -65 60 -194t-95 -218t-277 -89q-235 0 -329 156q-32 53 -44 127l219 33q12 -68 55 -106t110 -38t103 30t35 74q0 81 -84 105l-198 62q-100 31 -162 96q-61 66 -61 190t99 212q100 89 251 88q151 0 242 -66
t110 -184l-215 -37q-18 117 -140 115q-52 0 -91 -28q-38 -28 -38 -75zM420 1247l112 146h201l-203 -265h-229l-199 265h207z" />
    <glyph glyph-name="Tcommaaccent" unicode="&#x162;" horiz-adv-x="1024" 
d="M1020 1393v-211h-381v-1182h-262v1182h-373v211h1016zM492 -356h-148l51 245h228z" />
    <glyph glyph-name="tcommaaccent" unicode="&#x163;" horiz-adv-x="626" 
d="M401 283q0 -109 83 -109q37 0 122 10v-174q-113 -24 -194 -24q-254 0 -254 268v551h-150v172h150v280h243v-280h205v-172h-205v-522zM346 -356h-147l51 245h227z" />
    <glyph glyph-name="Tcaron" unicode="&#x164;" horiz-adv-x="1024" 
d="M1020 1393v-211h-381v-1182h-262v1182h-373v211h1016zM514 1622l113 135h200l-202 -250h-230l-198 250h206z" />
    <glyph glyph-name="tcaron" unicode="&#x165;" horiz-adv-x="626" 
d="M401 283q0 -109 83 -109q37 0 122 10v-174q-113 -24 -194 -24q-254 0 -254 268v551h-150v172h150v280h243v-280h205v-172h-205v-522zM643 1071h-141l30 322h224z" />
    <glyph glyph-name="Tbar" unicode="&#x166;" horiz-adv-x="1024" 
d="M639 768v-768h-262v768h-227v135h227v279h-373v211h1016v-211h-381v-279h225v-135h-225z" />
    <glyph glyph-name="tbar" unicode="&#x167;" horiz-adv-x="626" 
d="M401 283q0 -109 81 -109q36 0 124 10v-174q-113 -24 -194 -24q-254 0 -254 268v240h-131v127h131v184h-150v172h150v280h243v-280h205v-172h-205v-184h168v-127h-168v-211z" />
    <glyph glyph-name="Utilde" unicode="&#x168;" horiz-adv-x="1243" 
d="M395 477q-1 -147 63 -215t172 -68q226 1 226 283v916h254v-912q0 -247 -133 -371t-361 -124t-356 118q-127 118 -127 349v940h262v-916zM754 1673q52 0 61 70h123q-7 -151 -105 -205q-34 -18 -81 -18t-102 21q-56 21 -83 31t-53 11q-52 0 -65 -63h-125q7 150 108 204
q67 34 136 11q70 -23 116 -43q45 -20 70 -19z" />
    <glyph glyph-name="utilde" unicode="&#x169;" horiz-adv-x="1044" 
d="M680 977h244v-977h-242v121q-117 -127 -227 -141q-33 -4 -66 -5q-143 -1 -207 91t-63 245v666h243v-660q0 -152 125 -151q96 0 193 88v723zM406 1212q-53 0 -62 -67h-125q7 160 109 213q35 18 81 18t104 -24q57 -24 85 -34q28 -11 56 -11q47 0 57 71h123
q-7 -159 -106 -213q-34 -18 -84 -18q-50 1 -128 33q-76 32 -110 32z" />
    <glyph glyph-name="Umacron" unicode="&#x16a;" horiz-adv-x="1243" 
d="M395 477q-1 -147 63 -215t172 -68q226 1 226 283v916h254v-912q0 -247 -133 -371t-361 -124t-356 118q-127 118 -127 349v940h262v-916zM909 1559h-555v147h555v-147z" />
    <glyph glyph-name="umacron" unicode="&#x16b;" horiz-adv-x="1044" 
d="M680 977h244v-977h-242v121q-117 -127 -227 -141q-33 -4 -66 -5q-143 -1 -207 91t-63 245v666h243v-660q0 -152 125 -151q96 0 193 88v723zM805 1186h-555v149h555v-149z" />
    <glyph glyph-name="Ubreve" unicode="&#x16c;" horiz-adv-x="1243" 
d="M395 477q-1 -147 63 -215t172 -68q226 1 226 283v916h254v-912q0 -247 -133 -371t-361 -124t-356 118q-127 118 -127 349v940h262v-916zM634 1640q62 0 106 32t55 85h120q-4 -115 -85 -183t-199 -70q-119 -1 -198 64t-83 189h121q10 -53 55 -85t108 -32z" />
    <glyph glyph-name="ubreve" unicode="&#x16d;" horiz-adv-x="1044" 
d="M680 977h244v-977h-242v121q-117 -127 -227 -141q-33 -4 -66 -5q-143 -1 -207 91t-63 245v666h243v-660q0 -152 125 -151q96 0 193 88v723zM530 1270q62 0 105 32t55 91h121q-4 -120 -87 -191q-83 -72 -200 -73q-116 -1 -196 69t-82 195h121q12 -59 56 -91
q45 -32 107 -32z" />
    <glyph glyph-name="Uring" unicode="&#x16e;" horiz-adv-x="1243" 
d="M395 477q-1 -147 63 -215t172 -68q226 1 226 283v916h254v-912q0 -247 -133 -371t-361 -124t-356 118q-127 118 -127 349v940h262v-916zM631 1831q86 0 145 -56q60 -56 60 -141t-60 -141q-60 -57 -145 -57t-144 55t-59 141t59 143q58 56 144 56zM631 1724q-39 0 -64 -26
t-25 -66t26 -66t64 -26t64 27t25 67q1 40 -25 64q-26 26 -65 26z" />
    <glyph glyph-name="uring" unicode="&#x16f;" horiz-adv-x="1044" 
d="M680 977h244v-977h-242v121q-117 -127 -227 -141q-33 -4 -66 -5q-143 -1 -207 91t-63 245v666h243v-660q0 -152 125 -151q96 0 193 88v723zM526 1507q88 0 148 -57q60 -56 61 -142q0 -86 -59 -145q-58 -59 -148 -59t-149 57t-59 142t58 145q60 60 148 59zM526 1399
q-38 0 -64 -27q-26 -28 -26 -68t26 -66t66 -26t65 27t25 67t-26 66t-66 27z" />
    <glyph glyph-name="Uhungarumlaut" unicode="&#x170;" horiz-adv-x="1243" 
d="M395 477q-1 -147 63 -215t172 -68q226 1 226 283v916h254v-912q0 -247 -133 -371t-361 -124t-356 118q-127 118 -127 349v940h262v-916zM528 1507h-133l137 250h197zM827 1507h-133l144 250h196z" />
    <glyph glyph-name="uhungarumlaut" unicode="&#x171;" horiz-adv-x="1044" 
d="M680 977h244v-977h-242v121q-117 -127 -227 -141q-33 -4 -66 -5q-143 -1 -207 91t-63 245v666h243v-660q0 -152 125 -151q96 0 193 88v723zM420 1128h-129l137 265h197zM721 1128h-131l143 265h197z" />
    <glyph glyph-name="Uogonek" unicode="&#x172;" horiz-adv-x="1243" 
d="M660 -356q-83 0 -127 37.5t-44 103.5q0 104 117 201q-223 4 -348 120.5t-125 346.5v940h262v-916q0 -147 63.5 -214.5t171.5 -67.5q226 0 226 282v916h254v-912q0 -213 -99.5 -334.5t-277.5 -150.5q-104 -97 -104 -170.5t69 -73.5q37 0 88 33l25 -86q-68 -55 -151 -55z
" />
    <glyph glyph-name="uogonek" unicode="&#x173;" horiz-adv-x="1044" 
d="M773 -356q-83 0 -127 37.5t-44 103.5q0 113 135 215h-55v121q-116 -126 -188 -136t-105 -10q-143 0 -206.5 91.5t-63.5 244.5v666h243v-660q0 -152 125 -151q94 0 193 88v723h244v-977h-72q-111 -103 -111 -175.5t70 -72.5q35 0 88 33l25 -86q-68 -55 -151 -55z" />
    <glyph glyph-name="Wcircumflex" unicode="&#x174;" horiz-adv-x="1585" 
d="M471 336q0 149 25 239l163 818h271l172 -832q23 -120 31 -227h6q4 120 24 221l148 838h252l-308 -1393h-266l-186 848q-18 80 -23 207h-4q-5 -144 -18 -209l-185 -846h-249l-299 1393h262l155 -820q15 -66 19 -137q4 -70 6 -100h4zM797 1640l-113 -133h-201l203 250h227
l201 -250h-209z" />
    <glyph glyph-name="wcircumflex" unicode="&#x175;" horiz-adv-x="1304" 
d="M379 416q11 -47 31 -176h4q6 88 24 174l113 563h240l98 -518q27 -143 31 -215h4q3 80 32 211l123 522h211l-274 -977h-228l-100 524q-18 89 -29 195h-4q-10 -115 -28 -195l-113 -524h-229l-273 977h238zM664 1272l-113 -144h-201l203 265h227l201 -265h-207z" />
    <glyph glyph-name="Ycircumflex" unicode="&#x176;" horiz-adv-x="1042" 
d="M653 0h-262v559l-411 834h272l244 -551q18 -39 30 -84q13 51 29 84l250 551h262l-414 -809v-584zM528 1640l-112 -133h-201l203 250h227l201 -250h-209z" />
    <glyph glyph-name="ycircumflex" unicode="&#x177;" horiz-adv-x="905" 
d="M170 -154q53 0 98 37t80 137l-340 957h252l176 -592q21 -64 31 -121q7 37 31 121l174 592h225l-336 -973q-65 -192 -151 -276t-215 -84q-58 0 -156 20v193q113 -11 131 -11zM457 1272l-113 -144h-201l203 265h227l201 -265h-207z" />
    <glyph glyph-name="Ydieresis" unicode="&#x178;" horiz-adv-x="1042" 
d="M653 0h-262v559l-411 834h272l244 -551q18 -39 30 -84q13 51 29 84l250 551h262l-414 -809v-584zM813 1739v-211h-211v211h211zM459 1739v-211h-209v211h209z" />
    <glyph glyph-name="Zacute" unicode="&#x179;" horiz-adv-x="1011" 
d="M961 1393v-181l-611 -999h611v-213h-922v184l610 998h-592v211h904zM555 1507h-174l137 250h256z" />
    <glyph glyph-name="zacute" unicode="&#x17a;" horiz-adv-x="874" 
d="M819 977v-141l-485 -664h485v-172h-784v139l493 666h-458v172h749zM496 1128h-170l141 265h252z" />
    <glyph glyph-name="Zdotaccent" unicode="&#x17b;" horiz-adv-x="1011" 
d="M961 1393v-181l-611 -999h611v-213h-922v184l610 998h-592v211h904zM635 1745v-213h-248v213h248z" />
    <glyph glyph-name="zdotaccent" unicode="&#x17c;" horiz-adv-x="874" 
d="M819 977v-141l-485 -664h485v-172h-784v139l493 666h-458v172h749zM571 1147h-243v221h243v-221z" />
    <glyph glyph-name="Zcaron" unicode="&#x17d;" horiz-adv-x="1011" 
d="M961 1393v-181l-611 -999h611v-213h-922v184l610 998h-592v211h904zM514 1622l113 135h200l-202 -250h-230l-198 250h206z" />
    <glyph glyph-name="zcaron" unicode="&#x17e;" horiz-adv-x="874" 
d="M819 977v-141l-485 -664h485v-172h-784v139l493 666h-458v172h749zM453 1247l112 146h201l-203 -265h-229l-199 265h207z" />
    <glyph glyph-name="florin" unicode="&#x192;" 
d="M827 1210q-57 0 -83.5 -38.5t-36.5 -124.5l-13 -101h180l-22 -166h-182l-113 -780q-27 -180 -106.5 -254t-231.5 -74q-76 0 -149 19l26 176q45 -10 76 -10q66 0 95.5 37.5t45.5 148.5l105 737h-164l22 166h164l17 111q27 186 107.5 263t221.5 77q80 0 162 -17l-26 -180
q-38 10 -95 10z" />
    <glyph glyph-name="Scommaaccent" unicode="&#x218;" 
d="M340 1052q0 -74 35 -116t135 -72l172 -51q172 -49 253 -147t81 -271t-129 -297q-129 -123 -346 -123q-320 0 -447 209q-43 72 -57 170l262 58q23 -121 87 -171q64 -51 158 -51q93 0 151 46t59 139q0 144 -199 198l-172 50q-135 39 -218 132t-83 260t125 286
q125 118 340 118q274 0 381 -191q37 -67 47 -161l-242 -43q-8 92 -59 143t-135 51q-83 0 -141 -46t-58 -120zM539 -356h-148l51 245h228z" />
    <glyph glyph-name="scommaaccent" unicode="&#x219;" horiz-adv-x="833" 
d="M274 727q0 -47 28 -70t73 -34l184 -54q104 -31 165 -95q60 -65 60 -194t-95 -218t-277 -89q-235 0 -329 156q-32 53 -44 127l219 33q12 -68 55 -106t110 -38t103 30t35 74q0 81 -84 105l-198 62q-100 31 -162 96q-61 66 -61 190t99 212q100 89 251 88q151 0 242 -66
t110 -184l-215 -37q-18 117 -140 115q-52 0 -91 -28q-38 -28 -38 -75zM418 -356h-148l52 245h227z" />
    <glyph glyph-name="uni021A" unicode="&#x21a;" horiz-adv-x="1024" 
d="M1020 1393v-211h-381v-1182h-262v1182h-373v211h1016zM492 -356h-148l51 245h228z" />
    <glyph glyph-name="uni021B" unicode="&#x21b;" horiz-adv-x="626" 
d="M401 283q0 -109 83 -109q37 0 122 10v-174q-113 -24 -194 -24q-254 0 -254 268v551h-150v172h150v280h243v-280h205v-172h-205v-522zM346 -356h-147l51 245h227z" />
    <glyph glyph-name="dotlessj" unicode="&#x237;" horiz-adv-x="505" 
d="M82 -356q-55 0 -109 8v190q16 -2 19 -2h33q49 0 79.5 21.5t30.5 93.5v1022h244v-1034q0 -143 -74 -221t-223 -78z" />
    <glyph glyph-name="circumflex" unicode="&#x2c6;" horiz-adv-x="497" 
d="M246 1272l-113 -144h-201l203 265h227l201 -265h-207z" />
    <glyph glyph-name="caron" unicode="&#x2c7;" horiz-adv-x="497" 
d="M252 1247l113 146h200l-203 -265h-229l-199 265h207z" />
    <glyph glyph-name="uni02C9" unicode="&#x2c9;" horiz-adv-x="497" 
d="M526 1186h-555v149h555v-149z" />
    <glyph glyph-name="breve" unicode="&#x2d8;" horiz-adv-x="497" 
d="M248 1270q137 0 164 123h120q-4 -122 -88.5 -193.5t-199.5 -71.5t-195 70t-82 195h121q12 -59 56 -91t104 -32z" />
    <glyph glyph-name="dotaccent" unicode="&#x2d9;" horiz-adv-x="497" 
d="M371 1147h-244v221h244v-221z" />
    <glyph glyph-name="ring" unicode="&#x2da;" horiz-adv-x="497" 
d="M396.5 1450q60.5 -57 60.5 -142t-59.5 -144.5t-148.5 -59.5t-148.5 57.5t-59.5 141.5t58.5 144t147.5 60t149.5 -57zM248 1399q-39 0 -64.5 -26.5t-25.5 -67.5t25.5 -67t65.5 -26t65.5 27t25.5 67t-26.5 66.5t-65.5 26.5z" />
    <glyph glyph-name="ogonek" unicode="&#x2db;" horiz-adv-x="497" 
d="M96 -215q0 113 135 215h115q-110 -102 -110 -175t69 -73q37 0 88 33l25 -86q-68 -55 -151 -55t-127 37.5t-44 103.5z" />
    <glyph glyph-name="tilde" unicode="&#x2dc;" horiz-adv-x="497" 
d="M127 1212q-52 0 -61 -67h-125q7 159 75 195t107 36q51 0 137 -34.5t114 -34.5q50 0 58 71h123q-7 -158 -73 -194.5t-107 -36.5q-60 0 -136.5 32.5t-111.5 32.5z" />
    <glyph glyph-name="hungarumlaut" unicode="&#x2dd;" horiz-adv-x="497" 
d="M141 1128h-129l138 265h196zM442 1128h-131l144 265h196z" />
    <glyph glyph-name="uni0394" unicode="&#x394;" horiz-adv-x="1277" 
d="M1012 170l-295 805q-12 37 -44.5 130t-35.5 116h-8q-8 -41 -39 -124t-43 -120l-295 -807h760zM1233 0h-1188v123l459 1270h274l455 -1260v-133z" />
    <glyph glyph-name="uni03A9" unicode="&#x3a9;" horiz-adv-x="1386" 
d="M336 188q-246 224 -246 592q0 121 46 243t172.5 258t393.5 136t429.5 -185t162.5 -460q0 -190 -72 -339t-178 -245v-6h273v-182h-535v141q187 154 228 324t41 260t-22.5 180t-66.5 162t-111 117t-194 45t-225 -151.5t-98 -335.5t79 -352t191 -249v-141h-536v182h268v6z
" />
    <glyph glyph-name="uni03BC" unicode="&#x3bc;" 
d="M471 -23q-51 0 -88 23v-319h-244v1296h250v-647q0 -66 30 -112t89 -46q96 0 194 115v690h246v-977h-246v137q-117 -160 -231 -160z" />
    <glyph glyph-name="pi" unicode="&#x3c0;" 
d="M887 274q0 -118 59 -118q28 0 88 12v-154q-82 -32 -160 -32q-212 0 -212 235v588h-252v-805h-226v805h-131v172h977v-172h-143v-531z" />
    <glyph glyph-name="endash" unicode="&#x2013;" horiz-adv-x="1024" 
d="M1024 659v-190h-1024v190h1024z" />
    <glyph glyph-name="emdash" unicode="&#x2014;" horiz-adv-x="2048" 
d="M2048 659v-190h-2048v190h2048z" />
    <glyph glyph-name="quoteleft" unicode="&#x2018;" horiz-adv-x="542" 
d="M393 1135v-248h-243v198l176 324l71 -23l-84 -251h80z" />
    <glyph glyph-name="quoteright" unicode="&#x2019;" horiz-adv-x="542" 
d="M156 1147v248h243v-199l-176 -324l-71 23l84 252h-80z" />
    <glyph glyph-name="quotesinglbase" unicode="&#x201a;" horiz-adv-x="542" 
d="M150 0v248h243v-199l-176 -323l-72 22l84 252h-79z" />
    <glyph glyph-name="quotedblleft" unicode="&#x201c;" horiz-adv-x="901" 
d="M383 1135v-248h-244v198l176 324l72 -23l-84 -251h80zM756 1135v-248h-244v198l176 324l72 -23l-84 -251h80z" />
    <glyph glyph-name="quotedblright" unicode="&#x201d;" horiz-adv-x="901" 
d="M522 1147v248h244v-199l-176 -324l-72 23l84 252h-80zM150 1147v248h243v-199l-176 -324l-72 23l84 252h-79z" />
    <glyph glyph-name="quotedblbase" unicode="&#x201e;" horiz-adv-x="901" 
d="M516 0v248h244v-199l-176 -323l-72 22l84 252h-80zM143 0v248h244v-199l-176 -323l-72 22l84 252h-80z" />
    <glyph glyph-name="dagger" unicode="&#x2020;" 
d="M655 1006h322v-203h-322v-1106h-225v1106h-317v203h317v387h225v-387z" />
    <glyph glyph-name="daggerdbl" unicode="&#x2021;" 
d="M653 1004h328v-197h-328v-518h328v-197h-328v-395h-219v395h-323v197h323v518h-323v197h323v389h219v-389z" />
    <glyph glyph-name="bullet" unicode="&#x2022;" horiz-adv-x="1024" 
d="M511 1016q75 0 139.5 -27.5t112.5 -76t74.5 -112t26.5 -137t-26.5 -137t-74.5 -111.5t-112.5 -76t-138.5 -28t-138.5 28t-111.5 75t-74.5 111.5t-27.5 138t26.5 137t73.5 112t111.5 76t139.5 27.5z" />
    <glyph glyph-name="ellipsis" unicode="&#x2026;" horiz-adv-x="2048" 
d="M463 0h-244v248h244v-248zM1829 0h-244v248h244v-248zM1147 0h-244v248h244v-248z" />
    <glyph glyph-name="perthousand" unicode="&#x2030;" horiz-adv-x="1904" 
d="M1575 629q127 0 194.5 -87t67.5 -238t-69.5 -239t-196.5 -88t-193.5 88.5t-66.5 238t68.5 237.5t195.5 88zM1466 299q0 -205 107 -205q59 0 83.5 55.5t24.5 156.5t-24.5 152.5t-84 51.5t-83 -53.5t-23.5 -157.5zM969 629q127 0 194.5 -87t67.5 -238t-68.5 -239
t-196.5 -88t-194.5 88.5t-66.5 238t68.5 237.5t195.5 88zM966.5 510q-59.5 0 -83 -53.5t-23.5 -155.5t25 -154.5t83 -52.5t82.5 55.5t24.5 156.5t-24.5 152.5t-84 51.5zM340 1415q127 0 194.5 -87.5t67.5 -237.5t-69.5 -239t-196.5 -89t-193.5 88t-66.5 238t68.5 238.5
t195.5 88.5zM231 1085q0 -204 107 -204q59 0 83.5 55t24.5 158q1 202 -108 202q-59 0 -83 -54t-24 -157zM358 0h-159l745 1393h158z" />
    <glyph glyph-name="guilsinglleft" unicode="&#x2039;" horiz-adv-x="567" 
d="M264 496l213 -392h-192l-209 388l213 387h182z" />
    <glyph glyph-name="guilsinglright" unicode="&#x203a;" horiz-adv-x="567" 
d="M303 487l-213 392h191l211 -387l-213 -388h-185z" />
    <glyph glyph-name="fraction" unicode="&#x2044;" horiz-adv-x="325" 
d="M668 1391l-842 -1391h-166l844 1391h164z" />
    <glyph glyph-name="Euro" unicode="&#x20ac;" 
d="M193 636v136h-134l25 141h123q37 231 158.5 365.5t331.5 134.5t339 -108l-45 -205q-76 76 -140.5 104.5t-131.5 28.5q-113 0 -175.5 -80t-84.5 -240h493l-26 -141h-480v-72q0 -71 3 -94h444l-27 -139h-405q23 -154 88 -230.5t195 -76.5t270 119v-205q-147 -94 -330 -94
q-399 0 -475 487h-150l25 139h111q-2 23 -2 30z" />
    <glyph glyph-name="afii61289" unicode="&#x2113;" horiz-adv-x="1028" 
d="M566 -20q-324 0 -353 319q-27 -20 -50.5 -35.5t-47.5 -32.5l-66 125q102 72 158 119v422q0 242 83 379t257 137q138 0 209 -97.5t71 -250.5q0 -238 -151.5 -395.5t-241.5 -239.5v-33q0 -227 162 -227q61 0 110.5 26.5t114.5 102.5l111 -109q-86 -117 -176 -163.5
t-190 -46.5zM645 1092q0 86 -27.5 125.5t-71.5 39.5t-78 -62t-34 -210v-340q211 235 211 447z" />
    <glyph glyph-name="trademark" unicode="&#x2122;" horiz-adv-x="1458" 
d="M510 1393v-123h-174v-574h-154v574h-174v123h502zM1358 696h-150v280q0 279 4 318q-12 -48 -28 -108l-129 -490h-156l-129 488q-12 50 -27 110q2 -29 2 -36v-562h-149v697h258l102 -400q19 -74 27 -131q4 29 9 66t14 65l96 400h256v-697z" />
    <glyph glyph-name="Omega" unicode="&#x2126;" horiz-adv-x="1386" 
d="M336 188q-246 224 -246 592q0 121 46 243t172.5 258t393.5 136t429.5 -185t162.5 -460q0 -190 -72 -339t-178 -245v-6h273v-182h-535v141q187 154 228 324t41 260t-22.5 180t-66.5 162t-111 117t-194 45t-225 -151.5t-98 -335.5t79 -352t191 -249v-141h-536v182h268v6z
" />
    <glyph glyph-name="estimated" unicode="&#x212e;" horiz-adv-x="1519" 
d="M1137 791v374q-162 156 -382 156t-372 -156v-374h754zM383 696v-471q154 -154 375 -153q162 0 281.5 73.5t217.5 237.5l91 -53q-120 -187 -251.5 -268.5t-312.5 -81.5q-180 0 -303 56t-210 152.5t-134 227.5t-47 359t183 433t483 205t484 -200t190 -517h-1047z" />
    <glyph glyph-name="partialdiff" unicode="&#x2202;" 
d="M470 143q135 0 217 128t99 311q-23 70 -86.5 121t-137.5 51q-131 0 -209.5 -96t-78.5 -237q0 -142 60 -210t136 -68zM123 1450q151 106 361 106t366 -219t156 -583t-120 -522t-217.5 -206.5t-198.5 -48.5q-194 0 -296 125.5t-102 324.5q0 198 122.5 343t315.5 145
t295 -157h2q2 14 2 17v34q0 246 -103.5 413t-258.5 167t-263 -76z" />
    <glyph glyph-name="Delta" unicode="&#x2206;" horiz-adv-x="1277" 
d="M1012 170l-295 805q-12 37 -44.5 130t-35.5 116h-8q-8 -41 -39 -124t-43 -120l-295 -807h760zM1233 0h-1188v123l459 1270h274l455 -1260v-133z" />
    <glyph glyph-name="product" unicode="&#x220f;" horiz-adv-x="1396" 
d="M1276 -266h-203v1638h-749v-1638h-203v1812h1155v-1812z" />
    <glyph glyph-name="summation" unicode="&#x2211;" horiz-adv-x="1234" 
d="M25 -266v123l460 776l-434 772v141h1123v-172h-857v-8l398 -725l-422 -725v-10h938v-172h-1206z" />
    <glyph glyph-name="minus" unicode="&#x2212;" 
d="M1020 662v-177h-952v177h952z" />
    <glyph glyph-name="uni2215" unicode="&#x2215;" horiz-adv-x="325" 
d="M668 1391l-842 -1391h-166l844 1391h164z" />
    <glyph glyph-name="uni2219" unicode="&#x2219;" horiz-adv-x="542" 
d="M133 655.5q0 57.5 41 98.5t97 41t98.5 -40.5t42.5 -98.5t-42 -98t-98 -40t-97.5 40t-41.5 97.5z" />
    <glyph glyph-name="radical" unicode="&#x221a;" horiz-adv-x="1110" 
d="M684 -184h-172l-309 831l-150 -57l-39 112l310 123l219 -616q20 -55 43 -164h2q9 65 30 164l332 1429h172z" />
    <glyph glyph-name="infinity" unicode="&#x221e;" horiz-adv-x="1564" 
d="M421 346q75 0 138.5 54.5t126.5 125.5q-150 183 -262 183q-74 0 -123 -53.5t-49 -129.5t47 -128t122 -52zM1311 526q0 74 -46 127.5t-120 53.5t-138.5 -52.5t-127.5 -126.5q61 -78 122.5 -132t135.5 -54t124 55t50 129zM94 526q0 138 92 234t237 96t236 -89t127 -128
q96 107 178.5 161t205.5 54t210.5 -93.5t87.5 -232.5t-92 -235t-226 -96q-115 0 -198 57t-172 160q-41 -43 -79.5 -82t-110 -86t-160.5 -47q-159 0 -247.5 94.5t-88.5 232.5z" />
    <glyph glyph-name="integral" unicode="&#x222b;" horiz-adv-x="702" 
d="M250 1044q0 523 325 523q62 0 107 -17l-27 -147q-35 10 -69 10q-77 0 -112.5 -85.5t-35.5 -296.5t11.5 -416.5t11.5 -436.5q0 -230 -79 -357.5t-232 -127.5q-88 0 -130 20l29 152q31 -12 66 -12q77 0 119 70.5t42 236.5q0 224 -13 479t-13 405z" />
    <glyph glyph-name="approxequal" unicode="&#x2248;" 
d="M344 903q66 0 113 -23.5t89 -51t85 -51t100 -23.5t98 34.5t86 110.5l119 -108q-51 -98 -127.5 -155.5t-156.5 -57.5t-133.5 22.5t-99.5 50t-89 51t-92 23.5q-95 0 -189 -145l-108 114q116 209 305 209zM335 358q-94 0 -188 -147l-108 115q116 209 305 209q66 0 113 -24
t89 -51.5t85 -51t98 -23.5t99 28.5t94 106.5l118 -112q-108 -199 -307 -199q-66 0 -119 23.5t-99 51t-89 51t-91 23.5z" />
    <glyph glyph-name="notequal" unicode="&#x2260;" 
d="M1020 848v-176h-328l-121 -199h449v-174h-557l-144 -221l-174 18l131 203h-208v174h319l121 199h-440v176h548l148 221l174 -16l-133 -205h215z" />
    <glyph glyph-name="lessequal" unicode="&#x2264;" 
d="M1006 227v-178h-926v178h926zM1008 483v-190l-928 258v162l928 407v-194l-654 -275z" />
    <glyph glyph-name="greaterequal" unicode="&#x2265;" 
d="M1008 227v-178h-924v178h924zM731 653l-649 273v194l926 -403v-162l-926 -262v190z" />
    <glyph glyph-name="lozenge" unicode="&#x25ca;" horiz-adv-x="1126" 
d="M588 1184q-16 33 -27 63h-4q-8 -20 -16 -37l-252 -534l231 -477q10 -23 22.5 -46.5t20.5 -48.5h4q4 10 9.5 21.5t11.5 24.5l248 516zM649 -70h-174l-377 742l377 751h174l379 -751z" />
    <glyph glyph-name="grave.cap" unicode="&#xe300;" horiz-adv-x="497" 
d="M246 1757l137 -250h-178l-219 250h260z" />
    <glyph glyph-name="acute.cap" unicode="&#xe301;" horiz-adv-x="497" 
d="M293 1507h-174l137 250h256z" />
    <glyph glyph-name="circumflex.cap" unicode="&#xe302;" horiz-adv-x="497" 
d="M246 1640l-113 -133h-201l203 250h227l201 -250h-209z" />
    <glyph glyph-name="caron.cap" unicode="&#xe303;" horiz-adv-x="497" 
d="M252 1622l113 135h200l-203 -250h-229l-199 250h207z" />
    <glyph glyph-name="tilde.cap" unicode="&#xe304;" horiz-adv-x="497" 
d="M371 1673q52 0 61 70h123q-7 -152 -73 -187.5t-107 -35.5q-54 0 -134.5 31.5t-109.5 31.5q-52 0 -65 -63h-125q7 151 75 187t107 36t71.5 -11.5t64.5 -23.5t59.5 -23.5t52.5 -11.5z" />
    <glyph glyph-name="dieresis.cap" unicode="&#xe305;" horiz-adv-x="497" 
d="M530 1739v-211h-211v211h211zM176 1739v-211h-209v211h209z" />
    <glyph glyph-name="macron.cap" unicode="&#xe306;" horiz-adv-x="497" 
d="M526 1559h-555v147h555v-147z" />
    <glyph glyph-name="breve.cap" unicode="&#xe307;" horiz-adv-x="497" 
d="M251 1640q63 0 106.5 32t54.5 85h120q-4 -115 -86 -184.5t-200 -69.5t-196.5 64.5t-82.5 189.5h121q10 -53 55 -85t108 -32z" />
    <glyph glyph-name="ring.cap" unicode="&#xe308;" horiz-adv-x="497" 
d="M393.5 1774.5q59.5 -56.5 59.5 -139.5t-59.5 -141t-145 -58t-144.5 55.5t-59 140.5t59 142t145 57q85 0 144.5 -56.5zM248 1724q-39 0 -63.5 -25.5t-24.5 -66.5t25.5 -66.5t63.5 -25.5t63.5 26.5t25.5 66.5t-25.5 65.5t-64.5 25.5z" />
    <glyph glyph-name="hungarumlaut.cap" unicode="&#xe309;" horiz-adv-x="497" 
d="M145 1507h-133l138 250h196zM444 1507h-133l144 250h196z" />
    <glyph glyph-name="dotaccent.cap" unicode="&#xe30a;" horiz-adv-x="497" 
d="M373 1745v-213h-248v213h248z" />
    <glyph glyph-name="caron.alt" unicode="&#xe30b;" horiz-adv-x="497" 
d="M285 1071h-142l31 322h223z" />
    <glyph glyph-name="commaaccent" unicode="&#xe30c;" horiz-adv-x="497" 
d="M231 -356h-147l51 245h227z" />
    <glyph glyph-name="commaaccent.alt" unicode="&#xe30d;" horiz-adv-x="497" 
d="M244 1393h143l-53 -256h-221z" />
    <glyph glyph-name="uniF8FF" unicode="&#xf8ff;" horiz-adv-x="993" 
d="M993 1393v-1393h-993v1393h993zM897 96v1198h-801v-1198h801zM432 455v47q0 89 21.5 138.5t88.5 111.5q68 63 84.5 102t16.5 74q0 70 -44 112.5t-103.5 42.5t-103.5 -42t-54 -142l-98 16q14 141 85 204t177 63t173.5 -69t67.5 -185q0 -118 -102 -212q-85 -78 -100 -110.5
t-15 -93.5v-57h-94zM430 227v129h109v-129h-109z" />
    </font>
</defs>
</svg>
