<?xml version="1.0" standalone="no"?>
<!DOCTYPE svg PUBLIC "-//W3C//DTD SVG 1.1//EN" "http://www.w3.org/Graphics/SVG/1.1/DTD/svg11.dtd" >
<svg xmlns="http://www.w3.org/2000/svg">
<metadata>
Created by FontPrep 20130207 at Sun Dec 13 19:26:47 2015
 By Justin Ruckman
1998 by Boba Fonts - Davide Canavero - canavero@pianeta.net
</metadata>
<defs>
<font id="c36ddde230621cb284f018ba84ab527b" horiz-adv-x='1024' >
  <font-face 
    font-family="StarJediHollow"
    font-weight="400"
    font-stretch="normal"
    units-per-em="2048"
    panose-1="4 11 0 0 0 0 0 0 0 0"
    ascent="1638"
    descent="-410"
    x-height="1444"
    cap-height="1444"
    bbox="-1936 -708 5371 2560"
    underline-thickness="50"
    underline-position="-75"
    unicode-range="U+0020-2020"
  />
<missing-glyph horiz-adv-x="3072" 
d="M2494 66v2428h-1916v-2428h1916zM512 0v2560h2048v-2560h-2048z" />
    <glyph glyph-name=".notdef" horiz-adv-x="3072" 
d="M2494 66v2428h-1916v-2428h1916zM512 0v2560h2048v-2560h-2048z" />
    <glyph glyph-name=".null" 
 />
    <glyph glyph-name="nonmarkingreturn" 
 />
    <glyph glyph-name="space" unicode=" " horiz-adv-x="950" 
 />
    <glyph glyph-name="exclam" unicode="!" horiz-adv-x="872" 
d="M228 1384l73 -789h271l71 789h-415zM273 325v-265h326v265h-326zM213 385h446v-385h-446v385zM162 1444h549l-80 -909h-389z" />
    <glyph glyph-name="quotedbl" unicode="&#x22;" horiz-adv-x="1139" 
d="M257 873h187v511h-187v-511zM197 813v631h307v-631h-307zM699 875h187v511h-187v-511zM635 813v631h307v-631h-307z" />
    <glyph glyph-name="numbersign" unicode="#" 
d="M-60 1444h180v-60h-180v60zM-60 1074h180v-60h-180v60z" />
    <glyph glyph-name="dollar" unicode="$" 
d="M-60 430h180v-60h-180v60zM-60 60h180v-60h-180v60z" />
    <glyph glyph-name="percent" unicode="%" 
d="M60 1384h60v-310h-60v310z" />
    <glyph glyph-name="ampersand" unicode="&#x26;" 
d="M-60 1384h60v-310h-60v310z" />
    <glyph glyph-name="quotesingle" unicode="'" horiz-adv-x="647" 
d="M233 875h187v511h-187v-511zM170 813v631h307v-631h-307z" />
    <glyph glyph-name="parenleft" unicode="(" horiz-adv-x="758" 
d="M64 817q0 458 278 932h375q-231 -426 -231 -929q0 -502 231 -925h-375q-278 464 -278 922zM616 -44q-68 132 -98 232t-59.5 228t-38.5 408q22 302 58 467t134 397h-232q-252 -444 -249 -864q-3 -168 33 -316t84 -278t132 -274h236z" />
    <glyph glyph-name="parenright" unicode=")" horiz-adv-x="758" 
d="M302 820q0 502 -231 929h375q278 -474 278 -932t-278 -922h-375q231 423 231 925zM172 -44h236q84 144 132 274t84 278t33 316q3 420 -249 864h-232q98 -232 131 -384t43 -262t18 -218q-9 -280 -38.5 -408t-59.5 -228t-98 -232z" />
    <glyph glyph-name="asterisk" unicode="*" 
d="M-60 370h60v-310h-60v310z" />
    <glyph glyph-name="plus" unicode="+" horiz-adv-x="1456" 
d="M1516 1014h-1516v60h1516v-60zM0 1444h1516v-60h-1516v60z" />
    <glyph glyph-name="comma" unicode="," horiz-adv-x="758" 
d="M226 354l-104 -544h226l204 544h-326zM188 397h435l-236 -630h-326z" />
    <glyph glyph-name="hyphen" unicode="-" horiz-adv-x="758" 
d="M92 377v360h574v-360h-574zM152 437h454v240h-454v-240z" />
    <glyph glyph-name="period" unicode="." horiz-adv-x="758" 
d="M156 0v397h446v-397h-446zM216 60h326v277h-326v-277z" />
    <glyph glyph-name="slash" unicode="/" horiz-adv-x="758" 
d="M-24 32h220l592 1376h-224zM518 1468h363l-641 -1493h-363z" />
    <glyph glyph-name="zero" unicode="0" horiz-adv-x="1516" 
d="M646 427.5q23 -94.5 114 -94.5q117 0 126.5 130.5t9.5 265.5t-9 262.5t-127 127.5t-127.5 -127.5t-9.5 -298.5t23 -265.5zM47 692q0 359 185.5 567.5t521.5 208.5t525 -203.5t189 -543.5q0 -225 -81 -393.5t-242 -260.5t-385 -92t-385.5 93.5t-244.5 263.5t-83 360z
M556 744q0 138 15 285t189 147q168 0 183.5 -147t15.5 -303t-9.5 -245.5t-54 -150.5t-126.5 -61t-125 37t-61.5 96.5t-22.5 131.5t-4 210zM115 698q0 -175 75 -331t222 -242t351 -86t350.5 85t220 239.5t73.5 334.5q0 337 -173 524.5t-477 187.5q-305 0 -473.5 -191
t-168.5 -521z" />
    <glyph glyph-name="one" unicode="1" horiz-adv-x="1065" 
d="M496 60h396v1324h-368l-484 -327l106 -270l307 226l43 -43v-910zM952 1444v-1444h-516v938l-317 -233l-146 376l539 363h440z" />
    <glyph glyph-name="two" unicode="2" horiz-adv-x="1212" 
d="M101 60h1010v228h-593v105q186 83 266 137t202.5 160.5t124.5 304.5q-19 225 -179 317t-410 96q-113 0 -392 -33v-250q83 38 259 43q143 -6 228 -65t98 -196q-11 -107 -69 -173t-201 -161t-344 -198v-315zM522 1468q275 0 462 -108t187 -365q0 -217 -135.5 -340.5
t-223.5 -177.5t-226 -125v-4h585v-348h-1130v406q236 118 418 235q91 63 143.5 124t52.5 153t-77 141t-189 49q-177 0 -319 -61v376q244 45 452 45z" />
    <glyph glyph-name="three" unicode="3" horiz-adv-x="1212" 
d="M118 1360v-192q38 14 122 27.5t161 11.5q127 1 200 -53t71 -146t-66 -133t-171 -51t-152 -6v-183q54 9 116 7q121 0 203 -48.5t91 -153.5q-5 -104 -85 -144t-186 -43t-206 20.5t-113 25.5v-214q49 -17 183.5 -34t276.5 -15t266.5 43t196.5 116t83 204q-5 224 -295 289v99
q270 57 275 275q-3 94 -52 162t-174.5 126t-334.5 58q-142 4 -251 -11t-159 -37zM633 440q0 142 -234 142q-63 0 -176 -15v316q77 -4 131 -4t110 6t102 32.5t46 94.5t-61 101.5t-186 33.5t-308 -57v323q174 55 443 55t403.5 -69.5t190 -148.5t55.5 -187q0 -246 -275 -326v-4
q295 -77 295 -334q0 -148 -91.5 -243t-234.5 -138t-304 -43q-283 0 -496 60v336q175 -60 322 -60t207.5 27.5t60.5 101.5z" />
    <glyph glyph-name="four" unicode="4" horiz-adv-x="1442" 
d="M766 624v285l-254 -285h254zM1409 584v-308h-252v-276h-347v276h-777v308l777 860h347l1 -860h251zM1100 520v864h-264l-744 -836v-212h780v-276h228v276h248v184h-248zM830 560h-468l468 531v-531z" />
    <glyph glyph-name="five" unicode="5" horiz-adv-x="1212" 
d="M506 1168h538v216h-890v-684q86 20 196 24q164 -4 250 -57t92 -179q-10 -214 -314 -224q-124 -4 -242 24v-196q21 -9 111 -30.5t269 -27.5q162 4 297 47t211 122t84 247q0 118 -52 202t-139 133t-193 47q-104 4 -218 -8v344zM497 -25q-194 0 -421 62v330q183 -43 301 -43
q256 0 256 163q0 100 -83.5 138.5t-199.5 38.5t-256 -33v813h1010v-336h-539v-223q55 6 167 6t214.5 -54t162.5 -155t60 -233q0 -176 -93 -281.5t-239 -149t-340 -43.5z" />
    <glyph glyph-name="six" unicode="6" horiz-adv-x="1401" 
d="M877 486q0 80 -42.5 127t-118.5 47t-115.5 -48t-39.5 -130t41 -131t114 -49t117 52t44 132zM1368 470q0 -156 -89.5 -270.5t-234 -169.5t-329.5 -55t-346 91t-248.5 253.5t-87.5 390.5t98 404t272 265t413 89t421 -38v-334q-25 6 -72.5 18t-109.5 22.5t-188 10.5
t-222 -68t-96 -221q107 88 321 88q130 0 244.5 -54.5t184 -160t69.5 -261.5zM941 486q0 -104 -60.5 -172t-162.5 -68t-159.5 64.5t-57.5 170.5t55.5 170.5t160.5 64.5t164.5 -63t59.5 -167zM1177 1382q-125 32 -355 28t-386 -82t-247 -240.5t-96 -397.5q8 -198 88.5 -343
t228 -224.5t325.5 -87.5q149 5 355 87.5t219 359.5q-5 130 -102.5 270t-335.5 132q-109 -3 -177 -21t-124 -65h-81q-8 234 128 329.5t297 84.5t263 -40v210z" />
    <glyph glyph-name="seven" unicode="7" horiz-adv-x="1212" 
d="M85 1384v-277h643v-76l-566 -971h485l481 1005v319h-1043zM25 1444h1163v-397l-514 -1047h-615l609 1047h-643v397z" />
    <glyph glyph-name="eight" unicode="8" horiz-adv-x="1401" 
d="M577 1036q0 -59 31.5 -98.5t87.5 -39.5t87 40t31 98t-31.5 97t-86.5 39t-87 -38.5t-32 -97.5zM663.5 647q-110.5 0 -110.5 -174q0 -77 34.5 -126.5t110.5 -49.5t113 50t37 128t-37 125t-147.5 47zM25 385q0 282 286 350v4q-89 30 -175.5 92.5t-86.5 241.5
q0 212 190.5 303.5t458.5 91.5q386 0 514.5 -125t128.5 -264q1 -139 -65 -217l-193 -127q132 -33 212.5 -120.5t80.5 -215.5q0 -230 -200 -327t-478 -97q-387 0 -530 130t-143 280zM517 1035q0 82 48 135.5t131 53.5t130 -54.5t47 -135.5t-46.5 -135.5t-130.5 -54.5
t-131.5 54.5t-47.5 136.5zM904 470q0 -104 -51.5 -170.5t-155.5 -66.5t-152 65.5t-48 169.5t47.5 167.5t151.5 63.5t156 -62.5t52 -166.5zM84 386q24 -130 141 -222t473 -128q252 15 427 92t191 258q-20 122 -82 192t-206 114v96q140 44 190 104t62 180q-12 128 -118.5 223
t-463.5 113q-122 -12 -222 -30t-186 -60t-126 -100t-54 -144q10 -90 32 -138t74 -82t164 -66v-84q-272 -52 -296 -318z" />
    <glyph glyph-name="nine" unicode="9" horiz-adv-x="1401" 
d="M523 958q0 -80 42.5 -127t118.5 -47t115.5 48t39.5 130t-41 131t-114 49t-117 -52t-44 -132zM530 498q-130 0 -244.5 54.5t-184 160t-69.5 261.5t89.5 270.5t234 169.5t329.5 55t346 -91t248.5 -253.5t87.5 -390.5t-98 -404t-272 -265t-413 -89t-421 38v334
q25 -6 72.5 -18t109.5 -22.5t188 -10.5t222 68t96 221q-107 -88 -321 -88zM459 958q0 104 60.5 172t162.5 68t159.5 -64.5t57.5 -170.5t-55.5 -170.5t-160.5 -64.5t-164.5 63t-59.5 167zM223 62q125 -32 355 -28t386 82t247 240.5t96 397.5q-8 198 -88.5 343t-228 224.5
t-325.5 87.5q-149 -5 -355 -87.5t-219 -359.5q5 -130 102.5 -270t335.5 -132q109 3 177 21t124 65h81q8 -234 -128 -329.5t-297 -84.5t-263 40v-210z" />
    <glyph glyph-name="colon" unicode=":" horiz-adv-x="758" 
d="M216 1017v-277h331v277h-331zM216 333v-277h331v277h-331zM156 680v397h446v-397h-446zM156 0v397h446v-397h-446z" />
    <glyph glyph-name="semicolon" unicode=";" horiz-adv-x="1440" 
d="M408 740q0 140 58 214t132 117t238 50t290 -93l198 224q-68 76 -178 112t-330 49q-210 -5 -319 -57t-264.5 -183t-162.5 -434q2 -179 66 -285t162 -190t214 -142t304 -62q223 11 327 47.5t189 116.5l-205 214q-123 -90 -307 -86q-148 20 -220 58t-132 114t-60 216z
M10 738q0 175 63.5 308.5t172 222.5t227.5 142t343 62q232 -9 354 -53t246 -160l-284 -316q-72 60 -128 86t-184 34q-124 -16 -185 -51t-105 -95t-52 -180q8 -120 52 -180t105 -95t185 -51q128 8 184 34t128 86l284 -316q-124 -116 -246 -160t-354 -56q-224 12 -339 65.5
t-227.5 142t-176 222t-63.5 308.5z" />
    <glyph glyph-name="less" unicode="&#x3c;" 
d="M-1636 -452h1636v-60h-1636v60zM-1636 -82h1636v-60h-1636v60z" />
    <glyph glyph-name="equal" unicode="=" horiz-adv-x="1456" 
d="M1516 0h-1516v60h1516v-60zM0 430h1516v-60h-1516v60z" />
    <glyph glyph-name="greater" unicode="&#x3e;" 
d="M1636 -512h-1636v60h1636v-60zM1636 -142h-1636v60h1636v-60z" />
    <glyph glyph-name="question" unicode="?" horiz-adv-x="1176" 
d="M530 1468q311 0 436.5 -106t125.5 -226t-48.5 -188.5t-147 -148.5t-142 -132t-43.5 -132h-410q13 240 100 304.5t130.5 98.5t43.5 86t-51.5 68t-135.5 16q-160 0 -304 -68v353q239 75 446 75zM342 333v-277h331v277h-331zM283 385h446v-385h-446v385zM634 1025
q0 -85 -54 -128t-128 -98.5t-96 -204.5h304q-2 48 49 107t145 136t133 131t45 152q-10 104 -113 198.5t-389 89.5q-222 4 -386 -74v-204q83 35 215 39q133 5 204 -27t71 -117z" />
    <glyph glyph-name="at" unicode="@" horiz-adv-x="5507" 
d="M4119 -192v-310h59v-60h-570l-458 477v-477h-522v1444h940q343 -31 450 -296q40 -192 4 -296t-126 -174t-258 -110l108 -138h432v-60h-59zM-888 824l504 -1324h360l156 632h71l-174 -694h-470l-540 1444h512l256 -624l134 624h470l-30 -119l-21 61h-356l-136 -616h-104
l-260 616h-372zM4241 2131v-204h309q24 0 53.5 16.5t31.5 84.5q-5 62 -35.5 82.5t-50.5 20.5h-308zM3183 497v-204h309q24 0 53.5 16.5t31.5 84.5q-5 62 -35.5 82.5t-50.5 20.5h-308zM4181 2185h404q27 0 66 -31.5t46 -130.5q-4 -103 -41.5 -129t-69.5 -26h-405v317z
M3125 551h404q27 0 66 -31.5t46 -130.5q-4 -103 -41.5 -129t-69.5 -26h-405v317zM3744 1132h402v477h97l456 -477h475v310h-407l-133 163v84q206 42 281.5 105t107 154t20 174t-43 137.5t-126.5 118.5t-247 78h-882v-1324zM2688 -502h402v477h97l456 -477h475v310h-407
l-133 163v84q206 42 281.5 105t107 154t20 174t-43 137.5t-126.5 118.5t-249 78h-880v-1324zM-682 1438v-310h1322q264 56 256 288t-352 524q-160 208 172 202l626 4v-1014h348v1014h458v310l-1198 1l-670 -5q-208 -4 -262 -222t286 -534q252 -248 -128 -258h-858z
M2672 1684h238l-110 322zM1632 52h238l-110 322zM2799 2217l205 -593h-426zM1759 585l205 -593h-426zM1008 -500h394l93 260h515l94 -260h413l-440 1324h-628zM2048 1132h394l93 260h515l94 -260h413l-440 1324h-628zM3684 1072v1444h940q343 -31 450 -296q40 -192 4 -296
t-126 -174t-258 -110l108 -138h432v-430h-570l-458 477v-477h-522zM1968 1072l475 1444h717l483 -1444h-546l-91 260h-429l-91 -260h-518zM392 882l201 -624l207 624h510l-475 -1444h-470l-181 614l20 80h36l172 -632h380l420 1324h-348l-224 -616h-88l-190 553zM932 -560
l478 1442h716l481 -1442h-546l-91 260h-429l-91 -260h-518zM2206 2516v-430h-458v-1014h-470v1014h-567q-256 18 -76 -142q324 -284 318 -552t-318 -320h-1376v430h912q284 -14 72 158q-348 320 -296 588t328 268h1931zM4179 -562v60l769 6q264 56 256 288t-352 524
q-160 208 172 202h282v310h-718q-208 -4 -262 -222t286 -534q252 -248 -128 -264h-305v60h307q284 -14 72 158q-348 320 -296 588t328 268h781l-1 -430h-344q-256 18 -76 -142q324 -284 318 -552t-318 -320h-771zM362 761l-158 -629h-1l158 631zM4178 -192h1v-310h-1v310z
" />
    <glyph glyph-name="A" unicode="A" horiz-adv-x="1492" 
d="M660 612h238l-110 322zM787 1145l205 -593h-426zM1492 430v-60h-60l-326 1014h-630l-354 -1014h-62v60h12l354 1014h730l324 -1014h12zM60 60h370l92 260h508l92 -260h370v-60h-410l-92 260h-428l-92 -260h-410v60z" />
    <glyph glyph-name="B" unicode="B" horiz-adv-x="1628" 
d="M120 1074v-704h-60v704h60zM582 532v-212h319q105 2 142 28t43 76q1 54 -39.5 80t-145.5 28h-319zM522 592h379q111 4 182 -43t63 -125q2 -72 -69 -120t-176 -45h-379v333zM60 1384v60h985q237 -2 360.5 -82t149.5 -268q9 -144 -61 -226t-231 -135v-4
q157 -20 255.5 -116.5t98.5 -213.5q0 -171 -87.5 -259t-225 -115t-333.5 -25h-911v60h911q193 -4 393.5 36t192.5 303q0 98 -59 155.5t-116 86t-189 56.5v65q171 48 241.5 121t60.5 211q-22 158 -129 222.5t-321 67.5h-985zM582 1059v-147h261q79 6 107.5 20.5t39.5 51.5
q-1 38 -32.5 54.5t-112.5 20.5h-263zM522 1119h321q91 -1 151 -35t58 -96t-62.5 -99.5t-146.5 -36.5h-321v267z" />
    <glyph glyph-name="C" unicode="C" horiz-adv-x="1484" 
d="M1484 1074v-60h-452q-152 0 -225 -9t-130 -30t-101 -73t-51 -184q5 -128 51 -183t137.5 -80t318.5 -25h452v-60h-452q-224 -3 -387.5 41t-179.5 307q11 168 68 225t122 83t144.5 35.5t232.5 12.5h452zM1484 1384h-640q-525 -6 -647.5 -243t-126.5 -398q-2 -227 102 -379
t280 -226t392 -78h640v-60h-640q-235 0 -425 83.5t-299.5 250.5t-109.5 409q0 170 65.5 303.5t238.5 265.5t530 132h640v-60z" />
    <glyph glyph-name="D" unicode="D" horiz-adv-x="1662" 
d="M60 370v704h60v-704h-60zM574 1054l1 -650h243q103 3 151 41t72.5 82t36.5 201q-9 132 -36 188.5t-76.5 96t-149.5 41.5h-242zM60 60h828q240 6 343 47t171 104t126 186t64 325q-8 194 -29 251t-54 122t-103 133t-195 114t-299 42h-852v60h852q345 0 542.5 -179
t197.5 -543q-21 -390 -214 -559.5t-550 -162.5h-828v60zM514 1114h302q188 0 253 -115.5t69 -270.5q-12 -169 -77 -276.5t-243 -107.5h-304v770z" />
    <glyph glyph-name="E" unicode="E" horiz-adv-x="1360" 
d="M1360 60v-60h-1300v60h1300zM1300 1074v-60h-770v-166h496v-252h-496v-166h830v-60h-890v284h496v134h-496v286h830zM120 370h-60v704h60v-704zM60 1384v60h1240v-60h-1240z" />
    <glyph glyph-name="F" unicode="F" horiz-adv-x="1300" 
d="M470 60v594h496v134h-496v286h830v-60h-770v-166h496v-252h-496v-596h-470v60h410zM120 370h-60v704h60v-704zM60 1384v60h1240v-60h-1240z" />
    <glyph glyph-name="G" unicode="G" horiz-adv-x="1484" 
d="M1484 1074v-60h-452q-152 0 -225 -9t-130 -30t-101 -73t-51 -184q5 -128 51 -183t137.5 -80t318.5 -25v292h452v-722h-640q-235 0 -425 83.5t-299.5 250.5t-109.5 409q0 170 65.5 303.5t238.5 265.5t530 132h640v-60h-640q-525 -6 -647.5 -243t-126.5 -398
q-2 -227 102 -379t280 -226t392 -78h580v602h-332v-292h-60q-224 -3 -387.5 41t-179.5 307q11 168 68 225t122 83t144.5 35.5t232.5 12.5h452z" />
    <glyph glyph-name="H" unicode="H" horiz-adv-x="1378" 
d="M1378 60v-60h-470v520h-378v-520h-470v60h410v520h498v-520h410zM1378 1074v-704h-60v704h60zM60 370v704h60v-704h-60zM908 946v498h470v-60h-410v-498h-498v498h-410v60h470v-498h378z" />
    <glyph glyph-name="I" unicode="I" horiz-adv-x="1404" 
d="M60 0v60h410v430h83l527 -770q110 -176 324 -172v-60q-250 -2 -352 180l-522 762v-430h-470zM120 1074v-704h-60v704h60zM60 1384v60h470v-470l330 470h470l-538 -722l460 -718q62 -92 152 -86v-60q-124 -2 -176 94l-496 744v51l483 637h-324l-320 -470h-101v470h-410z
" />
    <glyph glyph-name="J" unicode="J" horiz-adv-x="877" 
d="M0 -512v60q150 0 242 8t203 40t174 85t86 109t31 202v1082h141v-60h-81v-1022q-6 -166 -36 -234t-107 -128t-193 -91t-210 -41t-250 -10zM386 1384v-1260q-7 -114 -36.5 -156t-80.5 -69t-104 -35t-165 -6v60q158 -4 213 23t78 60t35 123v1320h551v-60h-491z" />
    <glyph glyph-name="K" unicode="K" horiz-adv-x="1404" 
d="M60 0v60h410v430h83l371 -430h480v-60h-510l-364 430v-430h-470zM120 1074v-704h-60v704h60zM60 1384v60h470v-470l330 470h470l-538 -722l240 -292h372v-60h-401l-271 326v51l483 637h-324l-320 -470h-101v470h-410z" />
    <glyph glyph-name="L" unicode="L" horiz-adv-x="1312" 
d="M60 60h1252v-60h-1252v60zM60 1074h60v-704h-60v704zM60 1384v60h470v-1014h782v-60h-842v1014h-410z" />
    <glyph glyph-name="M" unicode="M" horiz-adv-x="1630" 
d="M120 1074v-704h-60v704h60zM1630 1074v-704h-60v704h60zM1630 60v-60h-470v600l-302 -600h-26l-302 600v-600h-470v60h410v606h92l280 -582l285 576h93v-600h410zM60 1444h470l316 -600l314 600h470v-60h-435l-331 -624h-36l-333 624h-435v60z" />
    <glyph glyph-name="N" unicode="N" horiz-adv-x="1430" 
d="M120 1074v-704h-60v704h60zM1430 1074v-704h-60v704h60zM1430 60v-60h-470l-430 540v-540h-470v60h410v540h95l430 -540h435zM60 1384v60h470l430 -540v540h470v-60h-410v-538h-95l-420 538h-445z" />
    <glyph glyph-name="O" unicode="O" horiz-adv-x="1550" 
d="M120 1074v-704h-60v704h60zM60 60h462v477h97l585 -873q88 -128 346 -116v-60q-286 -8 -374 112l-594 877v-477h-522v60zM619 1051v-204h309q24 0 53.5 16.5t31.5 84.5q-5 62 -35.5 82.5t-50.5 20.5h-308zM557 1109h404q27 0 66 -31.5t46 -130.5q-4 -103 -41.5 -129
t-69.5 -26h-405v317zM60 1384v60h940q174 -16 279 -86t143 -135t54 -159t-21 -205t-127 -181t-258 -110l372 -608q36 -52 108 -42v-60q-102 -4 -138 52l-402 623v84q206 42 281.5 105t107 154t20 174t-43 137.5t-126.5 118.5t-249 78h-940z" />
    <glyph glyph-name="P" unicode="P" horiz-adv-x="1501" 
d="M120 1074v-704h-60v704h60zM619 1051v-204h309q24 0 53.5 16.5t31.5 84.5q-5 62 -35.5 82.5t-50.5 20.5h-308zM557 1109h404q27 0 66 -31.5t46 -130.5q-4 -103 -41.5 -129t-69.5 -26h-405v317zM60 0v60h462v477h512q314 65 371.5 257t0 315t-148.5 189t-257 86h-940v60
h940q174 -22 281 -90t151 -166t52 -167t4 -136t-29 -136t-135 -157t-290 -115h-452v-477h-522z" />
    <glyph glyph-name="Q" unicode="Q" horiz-adv-x="1639" 
d="M551 702q0 -123 55 -216t218 -93v64q244 -24 263 66.5t24 178.5q-5 124 -59 216t-228 92q-273 0 -273 -308zM499 703q0 363 330 363q210 0 275 -109.5t72 -253.5q-7 -105 -29.5 -212.5t-317.5 -77.5v-76q-197 0 -263.5 109t-66.5 257zM864 1396q-391 0 -588.5 -173.5
t-205.5 -507.5q8 -446 266.5 -563t498.5 -117l744 25h60v-60l-859 -25q-566 15 -668 291.5t-102 456.5t53 310.5t155 226.5t246 144t368 54q228 -6 402 -70t284 -212t98 -440q-24 -132 -96 -231t77 -75h42v-60h-60q-177 10 -149 83t62 119t64 164q37 424 -222.5 542
t-469.5 118z" />
    <glyph glyph-name="R" unicode="R" horiz-adv-x="1550" 
d="M120 1074v-704h-60v704h60zM60 60h462v477h97l456 -477h475v-60h-510l-458 477v-477h-522v60zM619 1051v-204h309q24 0 53.5 16.5t31.5 84.5q-5 62 -35.5 82.5t-50.5 20.5h-308zM557 1109h404q27 0 66 -31.5t46 -130.5q-4 -103 -41.5 -129t-69.5 -26h-405v317zM60 1384
v60h940q174 -16 279 -86t143 -135t54 -159t-21 -205t-127 -181t-258 -110l108 -138h372v-60h-407l-133 163v84q206 42 281.5 105t107 154t20 174t-43 137.5t-126.5 118.5t-249 78h-940z" />
    <glyph glyph-name="S" unicode="S" horiz-adv-x="1135" 
d="M1135 1014h-291q-257 8 -76 -142q324 -284 318 -552t-318 -320h-708v60h708q264 56 256 288t-352 524q-160 208 172 202h291v-60zM1135 1444v-60h-727q-208 -4 -262 -222t286 -534q252 -248 -128 -258h-244v60h244q283 -8 72 158q-348 320 -296 588t328 268h727z" />
    <glyph glyph-name="T" unicode="T" horiz-adv-x="1266" 
d="M1266 1384h-1266v60l1266 -1v-59zM458 60h350v1014h458v-60h-398v-1014h-470v1014h-398v60h458v-1014z" />
    <glyph glyph-name="U" unicode="U" horiz-adv-x="1494" 
d="M1434 1074h60v-477q-3 -180 -59.5 -287.5t-188.5 -217.5t-462 -118q-133 3 -270.5 36.5t-240 105.5t-158 185t-55.5 295v478h60v-478q10 -178 55 -267t136 -157t219 -101t254 -37q150 6 274 45t199 104t124 154t53 260v477zM530 1444v-854q-6 -146 56 -203t194 -61
q106 2 177 62t67 202v854h470v-60h-410v-794q6 -152 -66 -231t-238 -93q-174 6 -244 84t-66 240v794h-410v60h470z" />
    <glyph glyph-name="V" unicode="V" horiz-adv-x="1586" 
d="M60 1014v60h62l352 -1014h693l365 1014h54v-60h-12l-371 -1014h-767l-364 1014h-12zM60 1444h419l328 -1109l332 1109h447v-60h-404l-329 -1109h-87l-334 1109h-372v60z" />
    <glyph glyph-name="W" unicode="W" horiz-adv-x="1932" 
d="M1932 1074v-60h-12l-257 -1014h-470l-183 612l-152 -612h-470l-316 1014h-12v60h60l318 -1014h374l158 611h82l187 -611h380l253 1014h60zM60 1384v60h358l198 -624l172 624h432l201 -624l134 624h377v-60h-329l-148 -624h-67l-209 624h-340l-180 -624h-86l-198 624h-315
z" />
    <glyph glyph-name="X" unicode="X" horiz-adv-x="1248" 
d="M1248 370h-60l-256 322v70l256 312h60v-60h-12l-244 -292l244 -292h12v-60zM60 370v60h12l244 292l-244 292h-12v60h60l256 -312v-70l-256 -322h-60zM1248 0h-300l-298 446l-294 -446h-296v60h268l286 446h80l288 -446h266v-60zM60 1384v60h296l294 -446l298 446h300v-60
h-262l-303 -446h-65l-296 446h-262z" />
    <glyph glyph-name="Y" unicode="Y" horiz-adv-x="1264" 
d="M1264 1074v-60h-26l-340 -484v-530h-472v530l-340 484h-26v60h60l368 -526v-488h352v488l364 526h60zM60 1384v60h306l294 -446l298 446h306v-60h-266l-303 -446h-65l-296 446h-274z" />
    <glyph glyph-name="Z" unicode="Z" horiz-adv-x="1380" 
d="M1380 0h-1320v430l699 584h-699v60h755v-85l-695 -586v-343h1260v-60zM60 1384v60h1320v-430l-699 -584h699v-60h-759v85l699 578v351h-1260z" />
    <glyph glyph-name="bracketleft" unicode="[" 
d="M60 1384h-240v-310h240v-60h-300v430h300v-60z" />
    <glyph glyph-name="backslash" unicode="\" 
d="M1636 -82h300v-430h-300v60h240v310h-240v60z" />
    <glyph glyph-name="bracketright" unicode="]" 
d="M0 1444h300v-430h-300v60h240v310h-240v60z" />
    <glyph glyph-name="asciicircum" unicode="^" 
d="M60 370h60v-310h-60v310z" />
    <glyph glyph-name="underscore" unicode="_" horiz-adv-x="1440" 
d="M1380 60v602h-318v-292q-58 -22 -242 -18q-148 20 -220 58t-132 114t-60 216t58 214t132 117t238 50t290 -93l198 224q-68 76 -178 112t-330 49q-210 -5 -319 -57t-264.5 -183t-162.5 -434q22 -203 72 -301t118 -168t218 -138t338 -72h564zM1001 722h439v-722h-621
q-228 0 -412.5 83.5t-290.5 250.5t-106 409q0 170 63.5 303.5t176 222t227.5 142t339 65.5q232 -12 354 -56t246 -160l-284 -316q-72 60 -128 86t-184 34q-124 -16 -182 -54t-102 -98t-56 -184q12 -124 56 -174t110 -82t142 -40t213 -2v292z" />
    <glyph glyph-name="grave" unicode="`" horiz-adv-x="1615" 
d="M835 1145l205 -593h-426zM708 612h238l-110 322zM40 1384v-310h382l-338 -1014h394l93 260h515l94 -260h413l-440 1324h-1113zM-20 1014v430h1212l483 -1444h-546l-91 260h-429l-91 -260h-518l333 1014h-353z" />
    <glyph glyph-name="a" unicode="a" horiz-adv-x="1615" 
d="M708 612h238l-110 322zM84 60h394l93 260h515l94 -260h413l-440 1324h-628zM835 1145l205 -593h-426zM0 0l475 1444h717l483 -1444h-546l-91 260h-429l-91 -260h-518z" />
    <glyph glyph-name="b" unicode="b" horiz-adv-x="1628" 
d="M582 532v-212h319q105 2 142 28t43 76q1 54 -39.5 80t-145.5 28h-319zM522 592h379q111 4 182 -43t63 -125q2 -72 -69 -120t-176 -45h-379v333zM120 60h851q193 -4 393.5 36t192.5 303q0 98 -59 155.5t-116 86t-189 56.5v65q171 48 241.5 121t60.5 211
q-22 158 -129 222.5t-321 67.5h-925v-1324zM582 1059v-147h261q79 6 107.5 20.5t39.5 51.5q-1 38 -32.5 54.5t-112.5 20.5h-263zM522 1119h321q91 -1 151 -35t58 -96t-62.5 -99.5t-146.5 -36.5h-321v267zM60 0v1444h985q237 -2 360.5 -82t149.5 -268q9 -144 -61 -226
t-231 -135v-4q157 -20 255.5 -116.5t98.5 -213.5q0 -171 -87.5 -259t-225 -115t-333.5 -25h-911z" />
    <glyph glyph-name="c" unicode="c" horiz-adv-x="1484" 
d="M1484 430v-430h-640q-235 0 -425 83.5t-299.5 250.5t-109.5 409q0 170 65.5 303.5t238.5 265.5t530 132h640v-430h-452q-152 0 -225 -9t-130 -30t-101 -73t-51 -184q5 -128 51 -183t137.5 -80t318.5 -25h452zM1424 1384h-580q-525 -6 -647.5 -243t-126.5 -398
q-2 -227 102 -379t280 -226t392 -78h580v310h-392q-224 -3 -387.5 41t-179.5 307q11 168 68 225t122 83t144.5 35.5t232.5 12.5h392v310z" />
    <glyph glyph-name="d" unicode="d" horiz-adv-x="1662" 
d="M574 1054l1 -650h243q103 3 151 41t72.5 82t36.5 201q-9 132 -36 188.5t-76.5 96t-149.5 41.5h-242zM120 60h768q240 6 343 47t171 104t126 186t64 325q-8 194 -29 251t-54 122t-103 133t-195 114t-299 42h-792v-1324zM514 1114h302q188 0 253 -115.5t69 -270.5
q-12 -169 -77 -276.5t-243 -107.5h-304v770zM60 0v1444h852q345 0 542.5 -179t197.5 -543q-21 -390 -214 -559.5t-550 -162.5h-828z" />
    <glyph glyph-name="e" unicode="e" horiz-adv-x="1360" 
d="M120 1384v-1324h1180v310h-830v284h496v134h-496v286h768v310h-1118zM60 0v1444h1238v-430h-768v-166h496v-252h-496v-166h830v-430h-1300z" />
    <glyph glyph-name="f" unicode="f" horiz-adv-x="1298" 
d="M120 1384v-1324h350v594h496v134h-496v286h768v310h-1118zM60 0v1444h1238v-430h-768v-166h496v-252h-496v-596h-470z" />
    <glyph glyph-name="g" unicode="g" horiz-adv-x="1484" 
d="M1484 1444v-430h-452q-152 0 -225 -9t-130 -30t-101 -73t-51 -184q5 -128 51 -183t137.5 -80t318.5 -25v292h452v-722h-640q-235 0 -425 83.5t-299.5 250.5t-109.5 409q0 170 65.5 303.5t238.5 265.5t530 132h640zM1424 1074v310h-580q-525 -6 -647.5 -243t-126.5 -398
q-2 -227 102 -379t280 -226t392 -78h580v602h-332v-292h-60q-224 -3 -387.5 41t-179.5 307q11 168 68 225t122 83t144.5 35.5t232.5 12.5h392z" />
    <glyph glyph-name="h" unicode="h" horiz-adv-x="1378" 
d="M120 1384v-1324h350v520h498v-520h350v1324h-350v-498h-498v498h-350zM908 946v498h470v-1444h-470v520h-378v-520h-470v1444h470v-498h378z" />
    <glyph glyph-name="i" unicode="i" horiz-adv-x="530" 
d="M120 1384v-1324h350v1324h-350zM60 1444h470v-1444h-470v1444z" />
    <glyph glyph-name="j" unicode="j" horiz-adv-x="856" 
d="M386 1384v-798q-13 -114 -65 -152t-128 -57t-133 -13v-304q209 -2 344 14q134 28 206.5 86t99 113.5t26.5 180.5v620h60v310h-410zM856 1444v-430h-60v-560q-6 -166 -80.5 -276t-311.5 -164q-136 -10 -221 -11t-183 -3v430q78 -20 166 -1t118 43t42 114v858h530z" />
    <glyph glyph-name="k" unicode="k" horiz-adv-x="1404" 
d="M120 1384v-1324h350v430h83l371 -430h420v310h-341l-271 326v51l483 637h-324l-320 -470h-101v470h-350zM530 1444v-470l330 470h470l-538 -722l240 -292h372v-430h-510l-364 430v-430h-470v1444h470z" />
    <glyph glyph-name="l" unicode="l" horiz-adv-x="1312" 
d="M120 1384v-1324h1132v310h-782v1014h-350zM60 0v1444h470v-1014h782v-430h-1252z" />
    <glyph glyph-name="m" unicode="m" horiz-adv-x="1630" 
d="M120 1384v-1324h350v606h92l280 -582l285 576h93v-600h350v1324h-375l-331 -624h-36l-333 624h-375zM60 0v1444h470l316 -600l314 600h470v-1444h-470v600l-302 -600h-26l-302 600v-600h-470z" />
    <glyph glyph-name="n" unicode="n" horiz-adv-x="1430" 
d="M120 1384v-1324h350v540h95l430 -540h375v1324h-350v-538h-95l-420 538h-385zM60 0v1444h470l430 -540v540h470v-1444h-470l-430 540v-540h-470z" />
    <glyph glyph-name="o" unicode="o" horiz-adv-x="1677" 
d="M551 709q0 -127 56 -221.5t223 -94.5q128 0 192 50t80 113t21 153q-5 127 -60.5 221t-232.5 94q-279 0 -279 -315zM486 712q0 380 340 380q216 0 283 -113.5t75 -266.5q-8 -107 -27 -183.5t-96.5 -136t-234.5 -59.5q-202 0 -271 113.5t-69 265.5zM1668 714
q0 -237 -99 -404t-286.5 -251t-447.5 -84t-542.5 128t-282.5 611q0 358 215.5 549.5t609.5 191.5q259 0 447 -85.5t287 -252t99 -403.5zM864 1396q-391 0 -588.5 -173.5t-205.5 -507.5q8 -446 266.5 -563t498.5 -117t413 77.5t264.5 231t95.5 370.5q-8 443 -271 562.5
t-473 119.5z" />
    <glyph glyph-name="p" unicode="p" horiz-adv-x="1501" 
d="M619 1051v-204h309q24 0 53.5 16.5t31.5 84.5q-5 62 -35.5 82.5t-50.5 20.5h-308zM120 60h402v477h512q314 65 371.5 257t0 315t-148.5 189t-257 86h-880v-1324zM557 1109h404q27 0 66 -31.5t46 -130.5q-4 -103 -41.5 -129t-69.5 -26h-405v317zM60 0v1444h940
q174 -22 281 -90t151 -166t52 -167t4 -136t-29 -136t-135 -157t-290 -115h-452v-477h-522z" />
    <glyph glyph-name="q" unicode="q" horiz-adv-x="1639" 
d="M551 702q0 -123 55 -216t218 -93v64q244 -24 263 66.5t24 178.5q-5 124 -59 216t-228 92q-273 0 -273 -308zM499 703q0 363 330 363q210 0 275 -109.5t72 -253.5q-7 -105 -29.5 -212.5t-317.5 -77.5v-76q-197 0 -263.5 109t-66.5 257zM864 1396q-391 0 -588.5 -173.5
t-205.5 -507.5q8 -446 266.5 -563t498.5 -117l744 25v310q-177 10 -149 83t62 119t64 164q37 424 -222.5 542t-469.5 118zM1639 430v-430l-859 -25q-566 15 -668 291.5t-102 456.5t53 310.5t155 226.5t246 144t368 54q228 -6 402 -70t284 -212t98 -440q-24 -132 -96 -231
t77 -75h42z" />
    <glyph glyph-name="r" unicode="r" horiz-adv-x="1550" 
d="M619 1051v-204h309q24 0 53.5 16.5t31.5 84.5q-5 62 -35.5 82.5t-50.5 20.5h-308zM557 1109h404q27 0 66 -31.5t46 -130.5q-4 -103 -41.5 -129t-69.5 -26h-405v317zM120 60h402v477h97l456 -477h415v310h-347l-133 163v84q206 42 281.5 105t107 154t20 174t-43 137.5
t-126.5 118.5t-249 78h-880v-1324zM60 0v1444h940q174 -16 279 -86t143 -135t54 -159t-21 -205t-127 -181t-258 -110l108 -138h372v-430h-510l-458 477v-477h-522z" />
    <glyph glyph-name="s" unicode="s" horiz-adv-x="1135" 
d="M60 370v-310h708q264 56 256 288t-352 524q-160 208 172 202h231v310h-667q-208 -4 -262 -222t286 -534q252 -248 -128 -258h-244zM1135 1444v-430h-291q-257 8 -76 -142q324 -284 318 -552t-318 -320h-768v430h304q283 -8 72 158q-348 320 -296 588t328 268h727z" />
    <glyph glyph-name="t" unicode="t" horiz-adv-x="1266" 
d="M60 1384v-310h398v-1014h350v1014h398v310h-1146zM1266 1444v-430h-398v-1014h-470v1014h-398v430h1266z" />
    <glyph glyph-name="u" unicode="u" horiz-adv-x="1494" 
d="M120 1384v-788q10 -178 55 -267t136 -157t219 -101t254 -37q150 6 274 45t199 104t124 154t53 260v787h-350v-794q6 -152 -66 -231t-238 -93q-174 6 -244 84t-66 240v794h-350zM530 1444v-854q-6 -146 56 -203t194 -61q106 2 177 62t67 202v854h470v-847
q-3 -180 -59.5 -287.5t-188.5 -217.5t-462 -118q-133 3 -270.5 36.5t-240 105.5t-158 185t-55.5 295v848h470z" />
    <glyph glyph-name="v" unicode="v" horiz-adv-x="1722" 
d="M546 60h693l475 1324h-460l-329 -1109h-87l-334 1109h-417zM551 1444l328 -1109l332 1109h579l-515 -1444h-767l-508 1444h551z" />
    <glyph glyph-name="w" unicode="w" horiz-adv-x="2003" 
d="M76 1384l414 -1324h374l158 611h82l187 -611h380l333 1324h-349l-148 -624h-67l-209 624h-340l-180 -624h-86l-198 624h-351zM1062 612l-152 -612h-470l-440 1444h470l198 -624l172 624h432l201 -624l134 624h470l-362 -1444h-470z" />
    <glyph glyph-name="x" unicode="x" horiz-adv-x="1616" 
d="M114 1384l476 -622v-70l-470 -632h422l286 446h80l288 -446h422l-476 629v68l478 627h-420l-303 -446h-65l-296 446h-422zM1732 1444l-530 -722l530 -722h-570l-298 446l-294 -446h-570l530 722l-530 722h570l294 -446l298 446h570z" />
    <glyph glyph-name="y" unicode="y" horiz-adv-x="1614" 
d="M692 60h352v488l578 836h-420l-303 -446h-65l-296 446h-422l576 -836v-488zM1102 0h-472v530l-630 914h570l294 -446l298 446h570l-630 -914v-530z" />
    <glyph glyph-name="z" unicode="z" horiz-adv-x="1380" 
d="M120 1384v-310h695v-85l-695 -586v-343h1200v310h-699v85l699 578v351h-1200zM60 1444h1320v-430l-699 -584h699v-430h-1320v430l699 584h-699v430z" />
    <glyph glyph-name="braceleft" unicode="{" 
d="M60 370h-240v-310h240v-60h-300v430h300v-60z" />
    <glyph glyph-name="bar" unicode="|" 
d="M-1636 -142h-240v-310h240v-60h-300v430h300v-60z" />
    <glyph glyph-name="braceright" unicode="}" 
d="M0 430h300v-430h-300v60h240v310h-240v60z" />
    <glyph glyph-name="asciitilde" unicode="~" horiz-adv-x="1615" 
d="M1040 552h-426l205 593zM818 934l-110 -322h238zM1614 1074v310h-1113l-440 -1324h413l94 260h515l93 -260h394l-338 1014h382zM1674 1444v-430h-353l333 -1014h-518l-91 260h-429l-91 -260h-546l483 1444h1212z" />
    <glyph glyph-name="paragraph" unicode="&#xb6;" horiz-adv-x="2048" 
d="M1407 -283h448v-140h-112v-140h253q-197 196 -56 280h280v-112l-140 -56q168 -169 0 -253h-449l-28 253l-112 28l-28 -281h-85l-140 141v-141h-112v421q112 56 224 -112q0 112 57 112zM841 -624l113 28l-28 197l-141 -28q-28 -140 56 -197zM1094 -399q56 -225 -140 -309
q-281 0 -309 141q-56 140 140 280q281 0 309 -112zM224 -287h393v-140l-196 -28h140v-84h-112l-56 -169l-113 28l-56 253v140zM1447 -51h85l-29 140l-56 -56v-84zM998 -51v-85l141 28l-28 57h-113zM998 33h113v56h-113v-56zM858 201q365 28 393 -56q28 -140 -56 -168
q84 28 84 -85l112 309h197l112 -337v-84l-281 84l-56 -84l-140 56q-112 -84 -365 -56v421zM578 -136l112 28l-28 197l-140 -28q-29 -140 56 -197zM101 -51v-85l140 28l-28 57h-112zM101 33h112v56h-112v-56zM-124 61v140q477 28 477 -56q28 -140 -56 -168l56 -28
q56 224 169 252q280 0 308 -112q56 -225 -140 -309h-168l-141 141q-28 -169 -393 -141l-28 281h-84zM2077 370q-20 50 -60.5 47.5t-74.5 -22.5t-96 -28.5t-107 -20t78.5 -2.5t259.5 26zM340 338q-147 -30 -188.5 -51t-24 -34.5t65 -6.5t147.5 92zM577 2364l-53 -587l71 587
h-18zM1493 1888q67 -2 89.5 -43t13.5 -48.5t-22 -3.5t-33 9t-56.5 39t8.5 47zM1443 1883q16 -69 52.5 -87.5t60.5 -23.5t40.5 13.5t2.5 43.5t-40.5 43.5t-48 21t-67.5 -10.5zM1173.5 1995q-60.5 0 -110 -7.5t-109.5 -54.5q151 -17 233 -21t165.5 -9t100 4t7.5 26t-43 32
t-108.5 22.5t-135 7.5zM1317.5 1566q247.5 0 426.5 -69l5 -37l-83 20l-270 19l-197 10l-240 5l-172 -2l-142 -13l-85 -14l-5 12l27 22q140 37 314 42t421.5 5zM555 1514l-11 -15l16 -24l121 17l131 12l179 3l298 -12l195 -20l204 -3l66 -27l-5 67q-83 32 -177 46t-233 23
t-276 6t-251 -8t-257 -65zM1767 648q-39 280 -72 373t-71 79q-62 -39 -83.5 -86t-30 -93t-29.5 -189l-15 -164l-10 -96l311 163v13zM1067 459q-37 133 -56.5 208t-45 163t-69.5 175t-137 118q-98 -7 -135 -53t-69.5 -126.5t-68.5 -261.5zM1747 1267v104l-51 -6l28 38l7 44
l-80 15l-33 -101l29 -1l-231 -26l-3 -870l23 3q53 498 94.5 599.5t69.5 133.5t74.5 49.5t72.5 17.5zM1432 1315l292 41l10 -72q-66 -20 -101 -35t-60.5 -54.5t-58.5 -121t-63 -324.5l-23 -213zM544 1395l335 -34l213 -42l-15 -728l-21 191q-22 210 -47 289t-80.5 138.5
t-111 88t-116.5 32.5t-144 8zM1557 1462l-20 -106l40 2l36 97zM610 1423h10l8 37l-71 5v-37zM764 1400l15 90l-30 2l-20 -92h35zM918 1492l-35 -99l96 -20l20 114zM1408 1348v124l-106 10v-173l10 -20l-5 -827l81 -5l5 891h15zM499 2515l379 39l20 -64l-167 -119l-106 -10
l-70 -738q80 208 191.5 285t260.5 97t303 2.5t234.5 -69.5t136 -166t71.5 -233l20 -40l5 -183l81 -649l-283 -148l5 -25l30 -25q316 79 334 -10l122 -19q69 -80 -1 -114l-1445 -40l-485 -59q-75 54 182 173l313 25l-45 49l-20 50l40 59l5 25l-141 64l60 644v62l8 -59
q63 2 132.5 -1.5t129 -34.5t113.5 -88t77 -128t78 -528l23 -13l18 810l-230 40l-349 38v66q-40 10 -60 69l86 807l-66 30l-25 84zM1696 1365l-5 -7l-44 2zM529 1378l-5 37l5 -1v-36z" />
    <glyph glyph-name="questiondown" unicode="&#xbf;" horiz-adv-x="1176" 
d="M84 332q0 120 48.5 188.5t147 148.5t142 132t43.5 132h410q-13 -240 -100 -304.5t-130.5 -98.5t-43.5 -86t51.5 -68t135.5 -16q160 0 304 68v-353q-239 -75 -446 -75q-311 0 -436.5 106t-125.5 226zM834 1135v277h-331v-277h331zM893 1083h-446v385h446v-385zM542 443
q0 85 54 128t128 98.5t96 204.5h-304q2 -48 -49 -107t-145 -136t-133 -131t-45 -152q10 -104 113 -198.5t389 -89.5q222 -4 386 74v204q-83 -35 -215 -39q-133 -5 -204 27t-71 117z" />
    <glyph glyph-name="Agrave" unicode="&#xc0;" horiz-adv-x="1492" 
d="M480 1742l320 -150l-98 150h-222zM267 1800h462l176 -318zM660 612h238l-110 322zM787 1145l205 -593h-426zM1492 430v-60h-60l-326 1014h-630l-354 -1014h-62v60h12l354 1014h730l324 -1014h12zM60 60h370l92 260h508l92 -260h370v-60h-410l-92 260h-428l-92 -260h-410
v60z" />
    <glyph glyph-name="Aacute" unicode="&#xc1;" horiz-adv-x="1492" 
d="M902 1742l-94 -150l310 150h-216zM685 1478l176 318h462zM660 612h238l-110 322zM787 1145l205 -593h-426zM1492 430v-60h-60l-326 1014h-630l-354 -1014h-62v60h12l354 1014h730l324 -1014h12zM60 60h370l92 260h508l92 -260h370v-60h-410l-92 260h-428l-92 -260h-410
v60z" />
    <glyph glyph-name="Acircumflex" unicode="&#xc2;" horiz-adv-x="1492" 
d="M784 1704l196 -120l-196 172l-190 -180zM1066 1472l-277 174l-280 -171v59l278 283l279 -283v-62zM660 612h238l-110 322zM787 1145l205 -593h-426zM1492 430v-60h-60l-326 1014h-630l-354 -1014h-62v60h12l354 1014h730l324 -1014h12zM60 60h370l92 260h508l92 -260h370
v-60h-410l-92 260h-428l-92 -260h-410v60z" />
    <glyph glyph-name="Atilde" unicode="&#xc3;" horiz-adv-x="1492" 
d="M1164 1636q-240 -232 -408 -50t-253 15l-60 47q147 270 322 79t323 -51zM560 1724q64 -4 121 -20t153 -118t210 14q-120 -42 -171 -15t-131 112t-182 27zM660 612h238l-110 322zM787 1145l205 -593h-426zM1492 430v-60h-60l-326 1014h-630l-354 -1014h-62v60h12l354 1014
h730l324 -1014h12zM60 60h370l92 260h508l92 -260h370v-60h-410l-92 260h-428l-92 -260h-410v60z" />
    <glyph glyph-name="Adieresis" unicode="&#xc4;" horiz-adv-x="1492" 
d="M947 1576q64 0 70 69q0 28 -18.5 46.5t-48.5 18.5t-48.5 -18.5t-18.5 -48.5t18.5 -48.5t45.5 -18.5zM627 1572q64 0 70 69q0 28 -18.5 46.5t-48.5 18.5t-48.5 -18.5t-18.5 -48.5t18.5 -48.5t45.5 -18.5zM950 1768q52 0 84.5 -33.5t32.5 -83.5q-5 -61 -38.5 -92t-82.5 -31
t-82 33t-33 86t33.5 87t85.5 34zM630 1764q52 0 84.5 -33.5t32.5 -83.5q-5 -61 -38.5 -92t-82.5 -31t-82 33t-33 86t33.5 87t85.5 34zM660 612h238l-110 322zM787 1145l205 -593h-426zM1492 430v-60h-60l-326 1014h-630l-354 -1014h-62v60h12l354 1014h730l324 -1014h12z
M60 60h370l92 260h508l92 -260h370v-60h-410l-92 260h-428l-92 -260h-410v60z" />
    <glyph glyph-name="Aring" unicode="&#xc5;" horiz-adv-x="1492" 
d="M780 1768q-52 0 -85.5 -34t-33.5 -87t33 -86t82 -33t82.5 31t38.5 92q0 50 -32.5 83.5t-84.5 33.5zM784 1848q85 0 139.5 -55t54.5 -137t-60 -140t-140 -58t-134.5 53t-54.5 139t55 142t140 56zM660 612h238l-110 322zM787 1145l205 -593h-426zM1492 430v-60h-60
l-326 1014h-630l-354 -1014h-62v60h12l354 1014h730l324 -1014h12zM60 60h370l92 260h508l92 -260h370v-60h-410l-92 260h-428l-92 -260h-410v60z" />
    <glyph glyph-name="AE" unicode="&#xc6;" horiz-adv-x="2094" 
d="M60 60h370l87 260h331v-260h1246v-60h-1306v260h-227l-91 -260h-410v60zM1972 1384h-1496l-356 -1014h-60v60h12l354 1014h1606v-430h-768v-166h496v-252h-496v-166h830v-60h-890v284h496v134h-496v286h768v310zM796 612v314l-136 -314h136zM848 552h-268l268 648v-648z
" />
    <glyph glyph-name="Ccedilla" unicode="&#xc7;" horiz-adv-x="1484" 
d="M1484 1074v-60h-452q-152 0 -225 -9t-130 -30t-101 -73t-51 -184q5 -128 51 -183t137.5 -80t318.5 -25h452v-60h-452q-224 -3 -387.5 41t-179.5 307q11 168 68 225t122 83t144.5 35.5t232.5 12.5h452zM1484 1384h-640q-525 -6 -647.5 -243t-126.5 -398q-2 -227 102 -379
t280 -226t360 -76v-228q44 -4 109 -44t69 -108t-21 -100t-133 -54q173 19 219.5 75.5t50.5 100.5q-8 66 -65 98t-147 50v208h590v-60h-526v-112q107 -20 159 -68t52 -116q0 -92 -101.5 -160.5t-261.5 -68.5q-63 0 -159 8l15 87q42 -12 121 -13q150 -2 150 115q0 38 -38.5 66
t-76.5 28t-65 -3l-1 241q-143 -4 -333 79.5t-299.5 250.5t-109.5 409q0 170 65.5 303.5t238.5 265.5t530 132h640v-60z" />
    <glyph glyph-name="Egrave" unicode="&#xc8;" horiz-adv-x="1360" 
d="M408 1742l320 -150l-98 150h-222zM203 1796h462l176 -318zM1360 60v-60h-1300v60h1300zM1300 1074v-60h-770v-166h496v-252h-496v-166h830v-60h-890v284h496v134h-496v286h830zM120 370h-60v704h60v-704zM60 1384v60h1240v-60h-1240z" />
    <glyph glyph-name="Eacute" unicode="&#xc9;" horiz-adv-x="1360" 
d="M886 1742l-94 -150l310 150h-216zM673 1478l176 318h462zM1360 60v-60h-1300v60h1300zM1300 1074v-60h-770v-166h496v-252h-496v-166h830v-60h-890v284h496v134h-496v286h830zM120 370h-60v704h60v-704zM60 1384v60h1240v-60h-1240z" />
    <glyph glyph-name="Ecircumflex" unicode="&#xca;" horiz-adv-x="1360" 
d="M752 1696l196 -120l-196 172l-190 -180zM1030 1472l-277 174l-280 -171v59l278 283l279 -283v-62zM1360 60v-60h-1300v60h1300zM1300 1074v-60h-770v-166h496v-252h-496v-166h830v-60h-890v284h496v134h-496v286h830zM120 370h-60v704h60v-704zM60 1384v60h1240v-60
h-1240z" />
    <glyph glyph-name="Edieresis" unicode="&#xcb;" horiz-adv-x="1360" 
d="M937 1574q64 0 70 69q0 28 -18.5 46.5t-48.5 18.5t-48.5 -18.5t-18.5 -48.5t18.5 -48.5t45.5 -18.5zM559 1572q64 0 70 69q0 28 -18.5 46.5t-48.5 18.5t-48.5 -18.5t-18.5 -48.5t18.5 -48.5t45.5 -18.5zM940 1764q52 0 84.5 -33.5t32.5 -83.5q-5 -61 -38.5 -92t-82.5 -31
t-82 33t-33 86t33.5 87t85.5 34zM562 1764q52 0 84.5 -33.5t32.5 -83.5q-5 -61 -38.5 -92t-82.5 -31t-82 33t-33 86t33.5 87t85.5 34zM1360 60v-60h-1300v60h1300zM1300 1074v-60h-770v-166h496v-252h-496v-166h830v-60h-890v284h496v134h-496v286h830zM120 370h-60v704h60
v-704zM60 1384v60h1240v-60h-1240z" />
    <glyph glyph-name="Igrave" unicode="&#xcc;" horiz-adv-x="550" 
d="M168 1746l260 -150l-80 150h-180zM100 1384v-1324h350v1324h-350zM26 1796h371l113 -316zM40 1444h470v-1444h-470v1444z" />
    <glyph glyph-name="Iacute" unicode="&#xcd;" horiz-adv-x="550" 
d="M188 1746l-75 -150l243 150h-168zM100 1384v-1324h350v1324h-350zM26 1480l113 316h371zM508 1444v-1444h-468v1444h468z" />
    <glyph glyph-name="Icircumflex" unicode="&#xce;" horiz-adv-x="550" 
d="M272 1704l160 -120l-160 172l-154 -180zM100 1384v-1324h350v1324h-350zM502 1478l-228 174l-229 -171v59l228 283l229 -283v-62zM40 1444h470v-1444h-470v1444z" />
    <glyph glyph-name="Idieresis" unicode="&#xcf;" horiz-adv-x="550" 
d="M431 1572q64 0 70 69q0 28 -18.5 46.5t-48.5 18.5t-48.5 -18.5t-18.5 -48.5t18.5 -48.5t45.5 -18.5zM119 1572q64 0 70 69q0 28 -18.5 46.5t-48.5 18.5t-48.5 -18.5t-18.5 -48.5t18.5 -48.5t45.5 -18.5zM100 1384v-1324h350v1324h-350zM434 1764q52 0 84.5 -33.5
t32.5 -83.5q-5 -61 -38.5 -92t-82.5 -31t-82 33t-33 86t33.5 87t85.5 34zM122 1764q52 0 84.5 -33.5t32.5 -83.5q-5 -61 -38.5 -92t-82.5 -31t-82 33t-33 86t33.5 87t85.5 34zM40 1444h470v-1444h-470v1444z" />
    <glyph glyph-name="Eth" unicode="&#xd0;" horiz-adv-x="1804" 
d="M1040 796v-252h-288l2 -127h207q87 3 128 39t61.5 77.5t31.5 189.5q-8 125 -31 178t-65 90.5t-127 39.5h-205l-2 -235h288zM272 60h768q240 6 343 47t171 104t126 186t64 325q-8 194 -29 251t-54 122t-103 133t-195 114t-299 42h-792v-662l-252 2v-116h252v-548z
M967 1086q170 0 229 -109t62 -255q-10 -160 -69 -261t-220 -101h-275l-2 248h280v128h-280l2 350h273zM212 0v542h-254v252h254v650h852q506 0 623 -257t117 -470q-22 -386 -214.5 -555t-549.5 -162h-828z" />
    <glyph glyph-name="Ntilde" unicode="&#xd1;" horiz-adv-x="1430" 
d="M456 1724q64 -4 121 -20t153 -118t210 14q-120 -42 -171 -15t-131 112t-182 27zM1064 1628q-240 -232 -408 -50t-253 15l-60 47q147 270 322 79t323 -51zM120 1074v-704h-60v704h60zM1430 1074v-704h-60v704h60zM1430 60v-60h-470l-430 540v-540h-470v60h410v540h95
l430 -540h435zM60 1384v60h470l430 -540v540h470v-60h-410v-538h-95l-420 538h-445z" />
    <glyph glyph-name="Ograve" unicode="&#xd2;" horiz-adv-x="1677" 
d="M551 709q0 -127 56 -221.5t223 -94.5q128 0 192 50t80 113t21 153q-5 127 -60.5 221t-232.5 94q-279 0 -279 -315zM486 712q0 380 340 380q216 0 283 -113.5t75 -266.5q-8 -107 -27 -183.5t-96.5 -136t-234.5 -59.5q-202 0 -271 113.5t-69 265.5zM408 1742l320 -150
l-98 150h-222zM864 1396q-391 0 -588.5 -173.5t-205.5 -507.5q8 -446 266.5 -563t498.5 -117t413 77.5t264.5 231t95.5 370.5q-8 443 -271 562.5t-473 119.5zM203 1796h462l176 -318zM1668 714q0 -237 -99 -404t-286.5 -251t-447.5 -84t-542.5 128t-282.5 611
q0 358 215.5 549.5t609.5 191.5q259 0 447 -85.5t287 -252t99 -403.5z" />
    <glyph glyph-name="Oacute" unicode="&#xd3;" horiz-adv-x="1677" 
d="M551 709q0 -127 56 -221.5t223 -94.5q128 0 192 50t80 113t21 153q-5 127 -60.5 221t-232.5 94q-279 0 -279 -315zM486 712q0 380 340 380q216 0 283 -113.5t75 -266.5q-8 -107 -27 -183.5t-96.5 -136t-234.5 -59.5q-202 0 -271 113.5t-69 265.5zM886 1742l-94 -150
l310 150h-216zM864 1396q-391 0 -588.5 -173.5t-205.5 -507.5q8 -446 266.5 -563t498.5 -117t413 77.5t264.5 231t95.5 370.5q-8 443 -271 562.5t-473 119.5zM673 1478l176 318h462zM1668 714q0 -237 -99 -404t-286.5 -251t-447.5 -84t-542.5 128t-282.5 611
q0 358 215.5 549.5t609.5 191.5q259 0 447 -85.5t287 -252t99 -403.5z" />
    <glyph glyph-name="Ocircumflex" unicode="&#xd4;" horiz-adv-x="1677" 
d="M551 709q0 -127 56 -221.5t223 -94.5q128 0 192 50t80 113t21 153q-5 127 -60.5 221t-232.5 94q-279 0 -279 -315zM486 712q0 380 340 380q216 0 283 -113.5t75 -266.5q-8 -107 -27 -183.5t-96.5 -136t-234.5 -59.5q-202 0 -271 113.5t-69 265.5zM824 1713l196 -127
l-196 183l-190 -193zM864 1396q-391 0 -588.5 -173.5t-205.5 -507.5q8 -446 266.5 -563t498.5 -117t413 77.5t264.5 231t95.5 370.5q-8 443 -271 562.5t-473 119.5zM1114 1472l-287 185l-290 -181v62l287 300l290 -300v-66zM1668 714q0 -237 -99 -404t-286.5 -251
t-447.5 -84t-542.5 128t-282.5 611q0 358 215.5 549.5t609.5 191.5q259 0 447 -85.5t287 -252t99 -403.5z" />
    <glyph glyph-name="Otilde" unicode="&#xd5;" horiz-adv-x="1677" 
d="M551 709q0 -127 56 -221.5t223 -94.5q128 0 192 50t80 113t21 153q-5 127 -60.5 221t-232.5 94q-279 0 -279 -315zM486 712q0 380 340 380q216 0 283 -113.5t75 -266.5q-8 -107 -27 -183.5t-96.5 -136t-234.5 -59.5q-202 0 -271 113.5t-69 265.5zM592 1720q64 -4 121 -20
t153 -118t210 14q-120 -42 -171 -15t-131 112t-182 27zM1196 1628q-240 -232 -408 -50t-253 15l-60 47q147 270 322 79t323 -51zM864 1396q-391 0 -588.5 -173.5t-205.5 -507.5q8 -446 266.5 -563t498.5 -117t413 77.5t264.5 231t95.5 370.5q-8 443 -271 562.5t-473 119.5z
M1668 714q0 -237 -99 -404t-286.5 -251t-447.5 -84t-542.5 128t-282.5 611q0 358 215.5 549.5t609.5 191.5q259 0 447 -85.5t287 -252t99 -403.5z" />
    <glyph glyph-name="Odieresis" unicode="&#xd6;" horiz-adv-x="1677" 
d="M551 709q0 -127 56 -221.5t223 -94.5q128 0 192 50t80 113t21 153q-5 127 -60.5 221t-232.5 94q-279 0 -279 -315zM486 712q0 380 340 380q216 0 283 -113.5t75 -266.5q-8 -107 -27 -183.5t-96.5 -136t-234.5 -59.5q-202 0 -271 113.5t-69 265.5zM559 1576q64 0 70 69
q0 28 -18.5 46.5t-48.5 18.5t-48.5 -18.5t-18.5 -48.5t18.5 -48.5t45.5 -18.5zM1119 1572q64 0 70 69q0 28 -18.5 46.5t-48.5 18.5t-48.5 -18.5t-18.5 -48.5t18.5 -48.5t45.5 -18.5zM864 1396q-391 0 -588.5 -173.5t-205.5 -507.5q8 -446 266.5 -563t498.5 -117t413 77.5
t264.5 231t95.5 370.5q-8 443 -271 562.5t-473 119.5zM562 1764q52 0 84.5 -33.5t32.5 -83.5q-5 -61 -38.5 -92t-82.5 -31t-82 33t-33 86t33.5 87t85.5 34zM1122 1764q52 0 84.5 -33.5t32.5 -83.5q-5 -61 -38.5 -92t-82.5 -31t-82 33t-33 86t33.5 87t85.5 34zM1668 714
q0 -237 -99 -404t-286.5 -251t-447.5 -84t-542.5 128t-282.5 611q0 358 215.5 549.5t609.5 191.5q259 0 447 -85.5t287 -252t99 -403.5z" />
    <glyph glyph-name="Oslash" unicode="&#xd8;" horiz-adv-x="1677" 
d="M822 394q136 0 200 49t80 112t18 155l-6 56l-436 -334q8 -38 144 -38zM830 1024q-278 0 -278 -314l6 -68l450 340q-4 42 -178 42zM862 1396q-391 0 -588.5 -173.5t-205.5 -507.5q4 -220 134 -481l-122 -98l44 -62l154 122q315 -161 555 -161t413 77.5t264.5 231
t95.5 370.5q-4 218 -110 418l102 86l-52 72l-104 -86q-23 34 -196.5 113t-383.5 79zM826 1092q218 0 268 -112l-566 -436q-38 14 -42 168q0 380 340 380zM1668 714q0 -237 -99 -404t-286.5 -251t-447.5 -84t-555 149l-168 -132l-110 148l134 108q-126 227 -126 466
q0 358 215.5 549.5t609.5 191.5q259 0 410 -71.5t201 -109.5l110 88l112 -150l-88 -78q88 -183 88 -420zM566 424l588 444q22 -16 30 -156q-8 -106 -27 -183t-97 -136t-234 -59q-202 8 -260 90z" />
    <glyph glyph-name="Ugrave" unicode="&#xd9;" horiz-adv-x="1494" 
d="M476 1742l320 -150l-98 150h-222zM279 1796h462l176 -318zM1434 1074h60v-477q-3 -180 -59.5 -287.5t-188.5 -217.5t-462 -118q-133 3 -270.5 36.5t-240 105.5t-158 185t-55.5 295v478h60v-478q10 -178 55 -267t136 -157t219 -101t254 -37q150 6 274 45t199 104t124 154
t53 260v477zM530 1444v-854q-6 -146 56 -203t194 -61q106 2 177 62t67 202v854h470v-60h-410v-794q6 -152 -66 -231t-238 -93q-174 6 -244 84t-66 240v794h-410v60h470z" />
    <glyph glyph-name="Uacute" unicode="&#xda;" horiz-adv-x="1494" 
d="M930 1742l-94 -150l310 150h-216zM709 1478l176 318h462zM1434 1074h60v-477q-3 -180 -59.5 -287.5t-188.5 -217.5t-462 -118q-133 3 -270.5 36.5t-240 105.5t-158 185t-55.5 295v478h60v-478q10 -178 55 -267t136 -157t219 -101t254 -37q150 6 274 45t199 104t124 154
t53 260v477zM530 1444v-854q-6 -146 56 -203t194 -61q106 2 177 62t67 202v854h470v-60h-410v-794q6 -152 -66 -231t-238 -93q-174 6 -244 84t-66 240v794h-410v60h470z" />
    <glyph glyph-name="Ucircumflex" unicode="&#xdb;" horiz-adv-x="1494" 
d="M776 1713l196 -127l-196 183l-190 -193zM1066 1472l-287 185l-290 -181v62l287 300l290 -300v-66zM1434 1074h60v-477q-3 -180 -59.5 -287.5t-188.5 -217.5t-462 -118q-133 3 -270.5 36.5t-240 105.5t-158 185t-55.5 295v478h60v-478q10 -178 55 -267t136 -157t219 -101
t254 -37q150 6 274 45t199 104t124 154t53 260v477zM530 1444v-854q-6 -146 56 -203t194 -61q106 2 177 62t67 202v854h470v-60h-410v-794q6 -152 -66 -231t-238 -93q-174 6 -244 84t-66 240v794h-410v60h470z" />
    <glyph glyph-name="Udieresis" unicode="&#xdc;" horiz-adv-x="1494" 
d="M1019 1568q64 0 70 69q0 28 -18.5 46.5t-48.5 18.5t-48.5 -18.5t-18.5 -48.5t18.5 -48.5t45.5 -18.5zM1022 1760q52 0 84.5 -33.5t32.5 -83.5q-5 -61 -38.5 -92t-82.5 -31t-82 33t-33 86t33.5 87t85.5 34zM543 1572q64 0 70 69q0 28 -18.5 46.5t-48.5 18.5t-48.5 -18.5
t-18.5 -48.5t18.5 -48.5t45.5 -18.5zM546 1764q52 0 84.5 -33.5t32.5 -83.5q-5 -61 -38.5 -92t-82.5 -31t-82 33t-33 86t33.5 87t85.5 34zM1434 1074h60v-477q-3 -180 -59.5 -287.5t-188.5 -217.5t-462 -118q-133 3 -270.5 36.5t-240 105.5t-158 185t-55.5 295v478h60v-478
q10 -178 55 -267t136 -157t219 -101t254 -37q150 6 274 45t199 104t124 154t53 260v477zM530 1444v-854q-6 -146 56 -203t194 -61q106 2 177 62t67 202v854h470v-60h-410v-794q6 -152 -66 -231t-238 -93q-174 6 -244 84t-66 240v794h-410v60h470z" />
    <glyph glyph-name="Yacute" unicode="&#xdd;" horiz-adv-x="1264" 
d="M814 1742l-94 -150l310 150h-216zM597 1478l176 318h462zM1264 1074v-60h-26l-340 -484v-530h-472v530l-340 484h-26v60h60l368 -526v-488h352v488l364 526h60zM60 1384v60h306l294 -446l298 446h306v-60h-266l-303 -446h-65l-296 446h-274z" />
    <glyph glyph-name="Thorn" unicode="&#xde;" horiz-adv-x="1394" 
d="M120 1074v-704h-60v704h60zM754 518h-284v400h280q86 0 144 -15.5t107 -60t47 -124.5q-8 -90 -72 -145t-222 -55zM530 849v-259l223 -1q131 0 180 36.5t58 93.5q-3 53 -51 91.5t-189 38.5h-221zM530 0h-470v60h410v272h302q408 -5 479 138.5t81 259.5q-10 122 -45 193
t-98 115t-167 71t-552 19v256h-410v60h470v-253q400 1 630.5 -58t230.5 -404q-16 -245 -173 -353.5t-448 -104.5l-240 1v-272z" />
    <glyph glyph-name="germandbls" unicode="&#xdf;" horiz-adv-x="1628" 
d="M120 -236h378l-1 1390h411q32 0 88.5 -41t66.5 -126q-3 -73 -56 -126t-99 -46l-204 1v-196l175 -1q118 4 196.5 -50.5t70.5 -142.5t-87.5 -141.5t-180.5 -52.5h-132v-172h225q193 -4 393.5 36t192.5 303q0 98 -59 155.5t-116 86t-189 56.5v65q171 48 241.5 121t60.5 211
q-22 158 -129 222.5t-321 67.5h-925v-1620zM558 1094v-1390h-498v1740h985q237 -2 360.5 -82t149.5 -268q9 -144 -61 -226t-231 -135v-4q157 -20 255.5 -116.5t98.5 -213.5q0 -171 -87.5 -259t-225 -115t-333.5 -25h-287v292h195q83 -3 145 36t65 99t-53.5 96t-156.5 36
l-235 1v316l264 -1q29 0 61 30.5t34 81.5q-4 59 -38.5 83t-57.5 24h-349z" />
    <glyph glyph-name="agrave" unicode="&#xe0;" horiz-adv-x="1615" 
d="M504 1742l320 -150l-98 150h-222zM307 1796h462l176 -318zM708 612h238l-110 322zM84 60h394l93 260h515l94 -260h413l-440 1324h-628zM835 1145l205 -593h-426zM0 0l475 1444h717l483 -1444h-546l-91 260h-429l-91 -260h-518z" />
    <glyph glyph-name="aacute" unicode="&#xe1;" horiz-adv-x="1615" 
d="M958 1742l-94 -150l310 150h-216zM745 1478l176 318h462zM708 612h238l-110 322zM84 60h394l93 260h515l94 -260h413l-440 1324h-628zM835 1145l205 -593h-426zM0 0l475 1444h717l483 -1444h-546l-91 260h-429l-91 -260h-518z" />
    <glyph glyph-name="acircumflex" unicode="&#xe2;" horiz-adv-x="1615" 
d="M832 1696l196 -120l-196 172l-190 -180zM1114 1472l-277 174l-280 -171v59l278 283l279 -283v-62zM708 612h238l-110 322zM84 60h394l93 260h515l94 -260h413l-440 1324h-628zM835 1145l205 -593h-426zM0 0l475 1444h717l483 -1444h-546l-91 260h-429l-91 -260h-518z" />
    <glyph glyph-name="atilde" unicode="&#xe3;" horiz-adv-x="1615" 
d="M1208 1636q-240 -232 -408 -50t-253 15l-60 47q147 270 322 79t323 -51zM604 1724q64 -4 121 -20t153 -118t210 14q-120 -42 -171 -15t-131 112t-182 27zM708 612h238l-110 322zM84 60h394l93 260h515l94 -260h413l-440 1324h-628zM835 1145l205 -593h-426zM0 0l475 1444
h717l483 -1444h-546l-91 260h-429l-91 -260h-518z" />
    <glyph glyph-name="adieresis" unicode="&#xe4;" horiz-adv-x="1615" 
d="M999 1572q64 0 70 69q0 28 -18.5 46.5t-48.5 18.5t-48.5 -18.5t-18.5 -48.5t18.5 -48.5t45.5 -18.5zM667 1572q64 0 70 69q0 28 -18.5 46.5t-48.5 18.5t-48.5 -18.5t-18.5 -48.5t18.5 -48.5t45.5 -18.5zM1000 1764q52 0 84.5 -33.5t32.5 -83.5q-5 -61 -38.5 -92
t-82.5 -31t-82 33t-33 86t33.5 87t85.5 34zM670 1764q52 0 84.5 -33.5t32.5 -83.5q-5 -61 -38.5 -92t-82.5 -31t-82 33t-33 86t33.5 87t85.5 34zM708 612h238l-110 322zM84 60h394l93 260h515l94 -260h413l-440 1324h-628zM835 1145l205 -593h-426zM0 0l475 1444h717
l483 -1444h-546l-91 260h-429l-91 -260h-518z" />
    <glyph glyph-name="aring" unicode="&#xe5;" horiz-adv-x="1615" 
d="M836 1768q-52 0 -85.5 -34t-33.5 -87t33 -86t82 -33t82.5 31t38.5 92q0 50 -32.5 83.5t-84.5 33.5zM832 1848q85 0 139.5 -55t54.5 -137t-60 -140t-140 -58t-134.5 53t-54.5 139t55 142t140 56zM708 612h238l-110 322zM84 60h394l93 260h515l94 -260h413l-440 1324h-628z
M835 1145l205 -593h-426zM0 0l475 1444h717l483 -1444h-546l-91 260h-429l-91 -260h-518z" />
    <glyph glyph-name="ae" unicode="&#xe6;" horiz-adv-x="2118" 
d="M1996 1384h-1501l-441 -1324h394l93 260h331v-260h1186v310h-830v284h496v134h-496v286h768v310zM820 612v314l-136 -314h136zM812 0v260h-227l-91 -260h-518l475 1444h1605v-430h-768v-166h496v-252h-496v-166h830v-430h-1306zM872 552h-268l268 648v-648z" />
    <glyph glyph-name="ccedilla" unicode="&#xe7;" horiz-adv-x="1484" 
d="M1424 1384h-580q-525 -6 -647.5 -243t-126.5 -398q-2 -227 102 -379t280 -226t360 -76v-228q44 -4 109 -44t69 -108t-21 -100t-133 -54q173 19 219.5 75.5t50.5 100.5q-8 66 -65 98t-147 50v208h530v310h-392q-224 -3 -387.5 41t-179.5 307q11 168 68 225t122 83
t144.5 35.5t232.5 12.5h392v310zM10 743q0 170 65.5 303.5t238.5 265.5t530 132h640v-430h-452q-152 0 -225 -9t-130 -30t-101 -73t-51 -184q5 -128 51 -183t137.5 -80t318.5 -25h452v-430h-526v-112q107 -20 159 -68t52 -116q0 -92 -101.5 -160.5t-261.5 -68.5
q-63 0 -159 8l15 87q42 -12 121 -13q150 -2 150 115q0 38 -38.5 66t-76.5 28t-65 -3l-1 241q-143 -4 -333 79.5t-299.5 250.5t-109.5 409z" />
    <glyph glyph-name="egrave" unicode="&#xe8;" horiz-adv-x="1360" 
d="M408 1742l320 -150l-98 150h-222zM120 1384v-1324h1180v310h-830v284h496v134h-496v286h768v310h-1118zM203 1796h462l176 -318zM60 0v1444h1238v-430h-768v-166h496v-252h-496v-166h830v-430h-1300z" />
    <glyph glyph-name="eacute" unicode="&#xe9;" horiz-adv-x="1360" 
d="M886 1742l-94 -150l310 150h-216zM120 1384v-1324h1180v310h-830v284h496v134h-496v286h768v310h-1118zM673 1478l176 318h462zM60 0v1444h1238v-430h-768v-166h496v-252h-496v-166h830v-430h-1300z" />
    <glyph glyph-name="ecircumflex" unicode="&#xea;" horiz-adv-x="1360" 
d="M752 1696l196 -120l-196 172l-190 -180zM120 1384v-1324h1180v310h-830v284h496v134h-496v286h768v310h-1118zM1030 1472l-277 174l-280 -171v59l278 283l279 -283v-62zM60 0v1444h1238v-430h-768v-166h496v-252h-496v-166h830v-430h-1300z" />
    <glyph glyph-name="edieresis" unicode="&#xeb;" horiz-adv-x="1360" 
d="M937 1578q64 0 70 69q0 28 -18.5 46.5t-48.5 18.5t-48.5 -18.5t-18.5 -48.5t18.5 -48.5t45.5 -18.5zM559 1576q64 0 70 69q0 28 -18.5 46.5t-48.5 18.5t-48.5 -18.5t-18.5 -48.5t18.5 -48.5t45.5 -18.5zM120 1384v-1324h1180v310h-830v284h496v134h-496v286h768v310
h-1118zM940 1764q52 0 84.5 -33.5t32.5 -83.5q-5 -61 -38.5 -92t-82.5 -31t-82 33t-33 86t33.5 87t85.5 34zM562 1764q52 0 84.5 -33.5t32.5 -83.5q-5 -61 -38.5 -92t-82.5 -31t-82 33t-33 86t33.5 87t85.5 34zM60 0v1444h1238v-430h-768v-166h496v-252h-496v-166h830v-430
h-1300z" />
    <glyph glyph-name="igrave" unicode="&#xec;" horiz-adv-x="550" 
d="M168 1746l260 -150l-80 150h-180zM100 1384v-1324h350v1324h-350zM26 1796h371l113 -316zM40 1444h470v-1444h-470v1444z" />
    <glyph glyph-name="iacute" unicode="&#xed;" horiz-adv-x="550" 
d="M188 1746l-75 -150l243 150h-168zM100 1384v-1324h350v1324h-350zM26 1480l113 316h371zM508 1444v-1444h-468v1444h468z" />
    <glyph glyph-name="icircumflex" unicode="&#xee;" horiz-adv-x="550" 
d="M272 1704l160 -120l-160 172l-154 -180zM100 1384v-1324h350v1324h-350zM502 1478l-228 174l-229 -171v59l228 283l229 -283v-62zM40 1444h470v-1444h-470v1444z" />
    <glyph glyph-name="idieresis" unicode="&#xef;" horiz-adv-x="550" 
d="M431 1572q64 0 70 69q0 28 -18.5 46.5t-48.5 18.5t-48.5 -18.5t-18.5 -48.5t18.5 -48.5t45.5 -18.5zM119 1572q64 0 70 69q0 28 -18.5 46.5t-48.5 18.5t-48.5 -18.5t-18.5 -48.5t18.5 -48.5t45.5 -18.5zM100 1384v-1324h350v1324h-350zM434 1764q52 0 84.5 -33.5
t32.5 -83.5q-5 -61 -38.5 -92t-82.5 -31t-82 33t-33 86t33.5 87t85.5 34zM122 1764q52 0 84.5 -33.5t32.5 -83.5q-5 -61 -38.5 -92t-82.5 -31t-82 33t-33 86t33.5 87t85.5 34zM40 1444h470v-1444h-470v1444z" />
    <glyph glyph-name="eth" unicode="&#xf0;" horiz-adv-x="1804" 
d="M1040 796v-252h-288l2 -127h207q87 3 128 39t61.5 77.5t31.5 189.5q-8 125 -31 178t-65 90.5t-127 39.5h-205l-2 -235h288zM272 60h768q240 6 343 47t171 104t126 186t64 325q-8 194 -29 251t-54 122t-103 133t-195 114t-299 42h-792v-662l-252 2v-116h252v-548z
M967 1086q170 0 229 -109t62 -255q-10 -160 -69 -261t-220 -101h-275l-2 248h280v128h-280l2 350h273zM212 0v542h-254v252h254v650h852q506 0 623 -257t117 -470q-22 -386 -214.5 -555t-549.5 -162h-828z" />
    <glyph glyph-name="ntilde" unicode="&#xf1;" horiz-adv-x="1430" 
d="M456 1724q64 -4 121 -20t153 -118t210 14q-120 -42 -171 -15t-131 112t-182 27zM1064 1628q-240 -232 -408 -50t-253 15l-60 47q147 270 322 79t323 -51zM120 1384v-1324h350v540h95l430 -540h375v1324h-350v-538h-95l-420 538h-385zM60 0v1444h470l430 -540v540h470
v-1444h-470l-430 540v-540h-470z" />
    <glyph glyph-name="ograve" unicode="&#xf2;" horiz-adv-x="1677" 
d="M551 709q0 -127 56 -221.5t223 -94.5q128 0 192 50t80 113t21 153q-5 127 -60.5 221t-232.5 94q-279 0 -279 -315zM486 712q0 380 340 380q216 0 283 -113.5t75 -266.5q-8 -107 -27 -183.5t-96.5 -136t-234.5 -59.5q-202 0 -271 113.5t-69 265.5zM408 1742l320 -150
l-98 150h-222zM864 1396q-391 0 -588.5 -173.5t-205.5 -507.5q8 -446 266.5 -563t498.5 -117t413 77.5t264.5 231t95.5 370.5q-8 443 -271 562.5t-473 119.5zM203 1796h462l176 -318zM1668 714q0 -237 -99 -404t-286.5 -251t-447.5 -84t-542.5 128t-282.5 611
q0 358 215.5 549.5t609.5 191.5q259 0 447 -85.5t287 -252t99 -403.5z" />
    <glyph glyph-name="oacute" unicode="&#xf3;" horiz-adv-x="1677" 
d="M551 709q0 -127 56 -221.5t223 -94.5q128 0 192 50t80 113t21 153q-5 127 -60.5 221t-232.5 94q-279 0 -279 -315zM486 712q0 380 340 380q216 0 283 -113.5t75 -266.5q-8 -107 -27 -183.5t-96.5 -136t-234.5 -59.5q-202 0 -271 113.5t-69 265.5zM886 1742l-94 -150
l310 150h-216zM864 1396q-391 0 -588.5 -173.5t-205.5 -507.5q8 -446 266.5 -563t498.5 -117t413 77.5t264.5 231t95.5 370.5q-8 443 -271 562.5t-473 119.5zM673 1478l176 318h462zM1668 714q0 -237 -99 -404t-286.5 -251t-447.5 -84t-542.5 128t-282.5 611
q0 358 215.5 549.5t609.5 191.5q259 0 447 -85.5t287 -252t99 -403.5z" />
    <glyph glyph-name="ocircumflex" unicode="&#xf4;" horiz-adv-x="1677" 
d="M551 709q0 -127 56 -221.5t223 -94.5q128 0 192 50t80 113t21 153q-5 127 -60.5 221t-232.5 94q-279 0 -279 -315zM486 712q0 380 340 380q216 0 283 -113.5t75 -266.5q-8 -107 -27 -183.5t-96.5 -136t-234.5 -59.5q-202 0 -271 113.5t-69 265.5zM824 1713l196 -127
l-196 183l-190 -193zM864 1396q-391 0 -588.5 -173.5t-205.5 -507.5q8 -446 266.5 -563t498.5 -117t413 77.5t264.5 231t95.5 370.5q-8 443 -271 562.5t-473 119.5zM1114 1472l-287 185l-290 -181v62l287 300l290 -300v-66zM1668 714q0 -237 -99 -404t-286.5 -251
t-447.5 -84t-542.5 128t-282.5 611q0 358 215.5 549.5t609.5 191.5q259 0 447 -85.5t287 -252t99 -403.5z" />
    <glyph glyph-name="otilde" unicode="&#xf5;" horiz-adv-x="1677" 
d="M551 709q0 -127 56 -221.5t223 -94.5q128 0 192 50t80 113t21 153q-5 127 -60.5 221t-232.5 94q-279 0 -279 -315zM486 712q0 380 340 380q216 0 283 -113.5t75 -266.5q-8 -107 -27 -183.5t-96.5 -136t-234.5 -59.5q-202 0 -271 113.5t-69 265.5zM592 1720q64 -4 121 -20
t153 -118t210 14q-120 -42 -171 -15t-131 112t-182 27zM1196 1628q-240 -232 -408 -50t-253 15l-60 47q147 270 322 79t323 -51zM864 1396q-391 0 -588.5 -173.5t-205.5 -507.5q8 -446 266.5 -563t498.5 -117t413 77.5t264.5 231t95.5 370.5q-8 443 -271 562.5t-473 119.5z
M1668 714q0 -237 -99 -404t-286.5 -251t-447.5 -84t-542.5 128t-282.5 611q0 358 215.5 549.5t609.5 191.5q259 0 447 -85.5t287 -252t99 -403.5z" />
    <glyph glyph-name="odieresis" unicode="&#xf6;" horiz-adv-x="1677" 
d="M551 709q0 -127 56 -221.5t223 -94.5q128 0 192 50t80 113t21 153q-5 127 -60.5 221t-232.5 94q-279 0 -279 -315zM486 712q0 380 340 380q216 0 283 -113.5t75 -266.5q-8 -107 -27 -183.5t-96.5 -136t-234.5 -59.5q-202 0 -271 113.5t-69 265.5zM559 1576q64 0 70 69
q0 28 -18.5 46.5t-48.5 18.5t-48.5 -18.5t-18.5 -48.5t18.5 -48.5t45.5 -18.5zM1119 1572q64 0 70 69q0 28 -18.5 46.5t-48.5 18.5t-48.5 -18.5t-18.5 -48.5t18.5 -48.5t45.5 -18.5zM864 1396q-391 0 -588.5 -173.5t-205.5 -507.5q8 -446 266.5 -563t498.5 -117t413 77.5
t264.5 231t95.5 370.5q-8 443 -271 562.5t-473 119.5zM562 1764q52 0 84.5 -33.5t32.5 -83.5q-5 -61 -38.5 -92t-82.5 -31t-82 33t-33 86t33.5 87t85.5 34zM1122 1764q52 0 84.5 -33.5t32.5 -83.5q-5 -61 -38.5 -92t-82.5 -31t-82 33t-33 86t33.5 87t85.5 34zM1668 714
q0 -237 -99 -404t-286.5 -251t-447.5 -84t-542.5 128t-282.5 611q0 358 215.5 549.5t609.5 191.5q259 0 447 -85.5t287 -252t99 -403.5z" />
    <glyph glyph-name="oslash" unicode="&#xf8;" horiz-adv-x="1677" 
d="M822 394q136 0 200 49t80 112t18 155l-6 56l-436 -334q8 -38 144 -38zM830 1024q-278 0 -278 -314l6 -68l450 340q-4 42 -178 42zM862 1396q-391 0 -588.5 -173.5t-205.5 -507.5q4 -220 134 -481l-122 -98l44 -62l154 122q315 -161 555 -161t413 77.5t264.5 231
t95.5 370.5q-4 218 -110 418l102 86l-52 72l-104 -86q-23 34 -196.5 113t-383.5 79zM826 1092q218 0 268 -112l-566 -436q-38 14 -42 168q0 380 340 380zM1668 714q0 -237 -99 -404t-286.5 -251t-447.5 -84t-555 149l-168 -132l-110 148l134 108q-126 227 -126 466
q0 358 215.5 549.5t609.5 191.5q259 0 410 -71.5t201 -109.5l110 88l112 -150l-88 -78q88 -183 88 -420zM566 424l588 444q22 -16 30 -156q-8 -106 -27 -183t-97 -136t-234 -59q-202 8 -260 90z" />
    <glyph glyph-name="ugrave" unicode="&#xf9;" horiz-adv-x="1494" 
d="M476 1742l320 -150l-98 150h-222zM279 1796h462l176 -318zM120 1384v-788q10 -178 55 -267t136 -157t219 -101t254 -37q150 6 274 45t199 104t124 154t53 260v787h-350v-794q6 -152 -66 -231t-238 -93q-174 6 -244 84t-66 240v794h-350zM530 1444v-854q-6 -146 56 -203
t194 -61q106 2 177 62t67 202v854h470v-847q-3 -180 -59.5 -287.5t-188.5 -217.5t-462 -118q-133 3 -270.5 36.5t-240 105.5t-158 185t-55.5 295v848h470z" />
    <glyph glyph-name="uacute" unicode="&#xfa;" horiz-adv-x="1494" 
d="M930 1742l-94 -150l310 150h-216zM709 1478l176 318h462zM120 1384v-788q10 -178 55 -267t136 -157t219 -101t254 -37q150 6 274 45t199 104t124 154t53 260v787h-350v-794q6 -152 -66 -231t-238 -93q-174 6 -244 84t-66 240v794h-350zM530 1444v-854q-6 -146 56 -203
t194 -61q106 2 177 62t67 202v854h470v-847q-3 -180 -59.5 -287.5t-188.5 -217.5t-462 -118q-133 3 -270.5 36.5t-240 105.5t-158 185t-55.5 295v848h470z" />
    <glyph glyph-name="ucircumflex" unicode="&#xfb;" horiz-adv-x="1494" 
d="M776 1713l196 -127l-196 183l-190 -193zM1066 1472l-287 185l-290 -181v62l287 300l290 -300v-66zM120 1384v-788q10 -178 55 -267t136 -157t219 -101t254 -37q150 6 274 45t199 104t124 154t53 260v787h-350v-794q6 -152 -66 -231t-238 -93q-174 6 -244 84t-66 240v794
h-350zM530 1444v-854q-6 -146 56 -203t194 -61q106 2 177 62t67 202v854h470v-847q-3 -180 -59.5 -287.5t-188.5 -217.5t-462 -118q-133 3 -270.5 36.5t-240 105.5t-158 185t-55.5 295v848h470z" />
    <glyph glyph-name="udieresis" unicode="&#xfc;" horiz-adv-x="1494" 
d="M1019 1568q64 0 70 69q0 28 -18.5 46.5t-48.5 18.5t-48.5 -18.5t-18.5 -48.5t18.5 -48.5t45.5 -18.5zM543 1572q64 0 70 69q0 28 -18.5 46.5t-48.5 18.5t-48.5 -18.5t-18.5 -48.5t18.5 -48.5t45.5 -18.5zM1022 1760q52 0 84.5 -33.5t32.5 -83.5q-5 -61 -38.5 -92
t-82.5 -31t-82 33t-33 86t33.5 87t85.5 34zM546 1764q52 0 84.5 -33.5t32.5 -83.5q-5 -61 -38.5 -92t-82.5 -31t-82 33t-33 86t33.5 87t85.5 34zM120 1384v-788q10 -178 55 -267t136 -157t219 -101t254 -37q150 6 274 45t199 104t124 154t53 260v787h-350v-794
q6 -152 -66 -231t-238 -93q-174 6 -244 84t-66 240v794h-350zM530 1444v-854q-6 -146 56 -203t194 -61q106 2 177 62t67 202v854h470v-847q-3 -180 -59.5 -287.5t-188.5 -217.5t-462 -118q-133 3 -270.5 36.5t-240 105.5t-158 185t-55.5 295v848h470z" />
    <glyph glyph-name="yacute" unicode="&#xfd;" horiz-adv-x="1614" 
d="M1006 1742l-94 -150l310 150h-216zM793 1478l176 318h462zM692 60h352v488l578 836h-420l-303 -446h-65l-296 446h-422l576 -836v-488zM1102 0h-472v530l-630 914h570l294 -446l298 446h570l-630 -914v-530z" />
    <glyph glyph-name="thorn" unicode="&#xfe;" horiz-adv-x="1394" 
d="M530 849v-259l223 -1q131 0 180 36.5t58 93.5q-3 53 -51 91.5t-189 38.5h-221zM754 518h-284v400h280q86 0 144 -15.5t107 -60t47 -124.5q-8 -90 -72 -145t-222 -55zM120 1384v-1324h350v272h302q408 -5 479 138.5t81 259.5q-10 122 -45 193t-98 115t-167 71t-552 19v256
h-350zM530 0h-470v1444h470v-253q400 1 630.5 -58t230.5 -404q-16 -245 -173 -353.5t-448 -104.5l-240 1v-272z" />
    <glyph glyph-name="ydieresis" unicode="&#xff;" horiz-adv-x="1614" 
d="M1111 1576q64 0 70 69q0 28 -18.5 46.5t-48.5 18.5t-48.5 -18.5t-18.5 -48.5t18.5 -48.5t45.5 -18.5zM1114 1768q52 0 84.5 -33.5t32.5 -83.5q-5 -61 -38.5 -92t-82.5 -31t-82 33t-33 86t33.5 87t85.5 34zM647 1572q64 0 70 69q0 28 -18.5 46.5t-48.5 18.5t-48.5 -18.5
t-18.5 -48.5t18.5 -48.5t45.5 -18.5zM650 1764q52 0 84.5 -33.5t32.5 -83.5q-5 -61 -38.5 -92t-82.5 -31t-82 33t-33 86t33.5 87t85.5 34zM692 60h352v488l578 836h-420l-303 -446h-65l-296 446h-422l576 -836v-488zM1102 0h-472v530l-630 914h570l294 -446l298 446h570
l-630 -914v-530z" />
    <glyph glyph-name="OE" unicode="&#x152;" horiz-adv-x="2062" 
d="M551 709q0 -127 56 -221.5t223 -94.5v631q-279 0 -279 -315zM486 712q0 380 402 384v-766q-264 3 -333 116.5t-69 265.5zM2062 60v-60h-1306q-176 -8 -360 86t-280 244t-92 386q-14 326 204 523t604 205h1168v-430h-768v-166h496v-252h-496v-166h830v-60h-890v284h496
v134h-496v286h768v310h-1108q-377 -4 -508.5 -134t-190 -246.5t-49.5 -287.5q0 -224 82 -357t255 -218t335 -81h1306z" />
    <glyph glyph-name="oe" unicode="&#x153;" horiz-adv-x="2062" 
d="M2062 430v-430h-1306q-176 -8 -360 86t-280 244t-92 386q-14 326 204 523t604 205h1168v-430h-768v-166h496v-252h-496v-166h830zM551 709q0 -127 56 -221.5t223 -94.5v631q-279 0 -279 -315zM486 712q0 380 402 384v-766q-264 3 -333 116.5t-69 265.5zM2002 60v310h-830
v284h496v134h-496v286h768v310h-1108q-377 -4 -508.5 -134t-190 -246.5t-49.5 -287.5q0 -224 82 -357t255 -218t335 -81h1246z" />
    <glyph glyph-name="Scaron" unicode="&#x160;" horiz-adv-x="1135" 
d="M436 1776l196 -243l192 231l-192 -166zM922 1824l-290 -366l-287 366v76l290 -221l287 225v-80zM1135 1014h-291q-257 8 -76 -142q324 -284 318 -552t-318 -320h-708v60h708q264 56 256 288t-352 524q-160 208 172 202h291v-60zM1135 1444v-60h-727q-208 -4 -262 -222
t286 -534q252 -248 -128 -258h-244v60h244q283 -8 72 158q-348 320 -296 588t328 268h727z" />
    <glyph glyph-name="scaron" unicode="&#x161;" horiz-adv-x="1135" 
d="M436 1776l196 -243l192 231l-192 -166zM60 370v-310h708q264 56 256 288t-352 524q-160 208 172 202h231v310h-667q-208 -4 -262 -222t286 -534q252 -248 -128 -258h-244zM922 1824l-290 -366l-287 366v76l290 -221l287 225v-80zM1135 1444v-430h-291q-257 8 -76 -142
q324 -284 318 -552t-318 -320h-768v430h304q283 -8 72 158q-348 320 -296 588t328 268h727z" />
    <glyph glyph-name="Ydieresis" unicode="&#x178;" horiz-adv-x="1264" 
d="M887 1572q64 0 70 69q0 28 -18.5 46.5t-48.5 18.5t-48.5 -18.5t-18.5 -48.5t18.5 -48.5t45.5 -18.5zM431 1568q64 0 70 69q0 28 -18.5 46.5t-48.5 18.5t-48.5 -18.5t-18.5 -48.5t18.5 -48.5t45.5 -18.5zM890 1764q52 0 84.5 -33.5t32.5 -83.5q-5 -61 -38.5 -92t-82.5 -31
t-82 33t-33 86t33.5 87t85.5 34zM434 1760q52 0 84.5 -33.5t32.5 -83.5q-5 -61 -38.5 -92t-82.5 -31t-82 33t-33 86t33.5 87t85.5 34zM1264 1074v-60h-26l-340 -484v-530h-472v530l-340 484h-26v60h60l368 -526v-488h352v488l364 526h60zM60 1384v60h306l294 -446l298 446
h306v-60h-266l-303 -446h-65l-296 446h-274z" />
    <glyph glyph-name="Zcaron" unicode="&#x17d;" horiz-adv-x="1380" 
d="M456 1776l196 -243l192 231l-192 -166zM942 1824l-290 -366l-287 366v76l290 -221l287 225v-80zM1380 0h-1320v430l699 584h-699v60h755v-85l-695 -586v-343h1260v-60zM60 1384v60h1320v-430l-699 -584h699v-60h-759v85l699 578v351h-1260z" />
    <glyph glyph-name="zcaron" unicode="&#x17e;" horiz-adv-x="1380" 
d="M120 1384v-310h695v-85l-695 -586v-343h1200v310h-699v85l699 578v351h-1200zM456 1776l196 -243l192 231l-192 -166zM942 1824l-290 -366l-287 366v76l290 -221l287 225v-80zM60 1444h1320v-430l-699 -584h699v-430h-1320v430l699 584h-699v430z" />
    <glyph glyph-name="quoteleft" unicode="&#x2018;" horiz-adv-x="647" 
d="M170 1444h307v-630l-307 314v316zM417 1384h-187v-222l187 -191v413z" />
    <glyph glyph-name="quoteright" unicode="&#x2019;" horiz-adv-x="647" 
d="M169 1444h307v-316l-307 -314v630zM416 1384h-187v-413l187 191v222z" />
    <glyph glyph-name="quotedblleft" unicode="&#x201c;" horiz-adv-x="1139" 
d="M444 1384h-187v-222l187 -191v413zM882 1384h-187v-222l187 -191v413zM635 1444h307v-630l-307 314v316zM197 1444h307v-630l-307 314v316z" />
    <glyph glyph-name="quotedblright" unicode="&#x201d;" horiz-adv-x="1139" 
d="M881 1384h-187v-413l187 191v222zM443 1384h-187v-413l187 191v222zM196 1444h307v-316l-307 -314v630zM634 1444h307v-316l-307 -314v630z" />
    <glyph glyph-name="quotedblbase" unicode="&#x201e;" horiz-adv-x="1649" 
d="M1361 178v-118h228v612h-540v-134h200v-60q-99 -206 -277 -197t-338.5 68t-162.5 367q5 149 39 216t82.5 119t141 83.5t163 30t123.5 -18t83.5 -37t54.5 -48t62 -77.5h314q-13 43 -42 102.5t-105 138.5t-224 130t-307 53t-303 -43.5t-246.5 -122.5t-167.5 -201t-69 -298
q-8 -239 115 -407t333.5 -239.5t347.5 -61.5q179 2 254.5 29.5t111 55t69.5 58.5h60zM10 743q0 176 67.5 313.5t245.5 274.5t543 137q153 -4 315 -56t272 -162t168 -326h-436q-74 124 -142 152t-148 28t-148 -26t-108 -70t-72 -106t-36 -186q0 -132 50 -208t112 -112
t163 -46t180 15t147 113h-194v254h660v-732h-348v118q-101 -143 -435 -143q-356 -6 -537.5 141.5t-250 262t-68.5 364.5z" />
    <glyph glyph-name="dagger" unicode="&#x2020;" horiz-adv-x="1650" 
d="M1196 469q-14 -49 -68.5 -95t-113.5 -65t-135 -15t-162.5 42t-158 124.5t-78.5 255.5q8 153 36 218t76.5 117t138.5 78.5t190.5 27t182.5 -65t92 -151.5h354q-15 75 -61 145t-182 193.5t-441 129.5q-169 2 -313 -43.5t-246.5 -122.5t-167.5 -201t-69 -298
q-8 -239 108.5 -409t333.5 -239.5t354 -59.5q154 1 314 75t256 191.5t114 167.5h-354zM10 743q0 176 67.5 313.5t245.5 274.5t526 137q347 0 504.5 -140t219.5 -270t68 -178h-497q-16 100 -61 145t-78.5 60t-105.5 15t-146 -24t-114 -68t-64 -98t-36 -194
q21 -247 144.5 -305.5t197.5 -62.5t111.5 8t87.5 49t64 123h497q-6 -48 -124 -216t-278 -250t-373 -87q-241 0 -436 86t-307.5 259t-112.5 423z" />
    <glyph glyph-name="NULL" 
 />
    <glyph glyph-name="glyph98" horiz-adv-x="2059" 
d="M1144 1990q239 -35 431 -164l175 -151q117 -135 187 -298q6 -53 41 -128q117 -467 -193 -887q-297 -333 -694 -362q-181 -6 -286 18q-700 180 -793 898q-6 181 17 286q175 671 846 788h269zM53 1062v-152l11 -17v-59l12 -11l12 -82l11 -6v-29l82 -181l117 -152l58 -58
l128 -99q216 -128 455 -152l199 6q99 18 245 64v12l64 17l123 76l163 146l117 163q99 222 110 380q18 210 -64 426l-99 181q-280 385 -753 408l-157 -6l-204 -47q-286 -99 -479 -367q-128 -204 -151 -461zM1721 904h-35l-6 -46l-64 11l12 94l12 6h58l198 -30l-6 -99l-52 6
l-6 -6l-6 47l-35 12l-6 -35l-46 -6l-18 6v40zM1675 1173v-18l17 -17h18l35 58q99 47 145 -52q0 -30 -46 -35l-41 35l-41 -59q-105 -41 -157 59l46 29h24zM1721 1500l47 -53l12 -35q17 -82 -111 -88l-35 -75l-70 5l6 30l58 75v6l-82 -52l-35 29q-6 29 12 35zM1710 753
q64 -18 52 -41q12 -23 -29 -64q-53 -18 -76 35q0 70 53 70zM1651 1377h35l29 23v18l-64 -35v-6zM1488 607l35 -6q0 -18 23 -18l-17 -52l76 -6l35 -23l23 -76l-23 -64q-18 -6 -59 35l18 46l-29 12q-88 -12 -105 76zM1465 1710q99 17 128 -59q12 -58 -47 -134q-58 -64 -99 -64
q-88 6 -99 82q11 122 117 175zM1418 1570v-41l12 -6l46 12l47 64v41l-12 5q-41 12 -93 -75zM1278 414q23 40 52 58t59 -40l-35 -47q-12 -47 52 -76l59 6l23 -29l-6 -41q-152 -17 -204 105v64zM998 1564l46 -12l47 -47l23 -46l-5 -24q46 12 52 -70h12l128 -175l53 -105
q11 -23 -53 -64h-17q-35 41 -59 35l29 -64q-23 -29 -52 -35l-47 41q0 99 -52 128l-47 23l-35 6l-23 -35v-99l58 -70l93 -47l12 -11l12 -82q-24 -146 -53 -158l-303 6q-88 123 -111 362v123l35 128l35 64l70 76q64 53 158 82zM1289 1103v-18l24 12v6h-24zM1138 1855l46 -5
l12 -12q-17 -35 -17 -88l29 -5h23l18 87l52 -6l6 -11l-58 -251l-59 11q6 70 18 70q17 41 -35 41l-18 -6l-17 -87l-59 6q18 140 59 256zM1138 397h35l52 -234v-23l-46 -12q-24 18 -65 222q-11 47 24 47zM1132 1307l17 -23l12 5l-12 18h-17zM834 560l280 -6l24 -17l11 -47
l12 -12l-6 -11l-367 11q35 88 46 82zM823 648h291l24 -18v-17l-333 5q6 30 18 30zM811 601l327 -6l-12 -29l-309 6l-12 17zM1068 1190v-6h11v6h-11zM747 1068l17 -140h12l23 -88l47 -93l152 -6l70 6l-105 12l-82 -6q-35 -6 -99 175q-23 64 -23 134l5 122l-11 -17l-6 -70
q12 -12 0 -29zM893 403q41 -65 35 -105l23 -18l47 99q23 6 23 -17q35 -146 23 -152l12 -23v-53l-35 -17l-23 6l-18 105l-52 -88l-47 88l-29 -100l-53 30l35 110l12 12q-6 23 35 93v24zM998 1202l11 -18h12l-17 18h-6zM928 1791q41 0 58 -29q18 -52 -41 -76q-58 6 -64 35
q-23 35 47 70zM939 1254v-17h12l-6 17h-6zM834 1336v-6h6v6h6v6h-6v-6h-6zM554 1762l35 -6l24 -46l17 -12l-6 105l65 -23l5 -94q76 -23 88 -52l-6 -64l-87 46h-12l6 -23h11l24 -53l-41 -29l-64 76l-82 134v24zM671 461q29 6 82 -18l23 -29v-81q-41 -111 -128 -135
q-88 12 -100 70q0 146 123 193zM613 280q17 0 11 -17q53 0 88 87q6 35 -18 53q-17 5 -58 -41l-23 -53v-29zM461 595q76 23 128 -47l-41 -52h-23q-12 23 -52 23q-30 -23 -41 -52q6 -64 17 -64l-46 -41q-35 -6 -41 87q35 134 99 146zM379 1605l59 -18l40 -64l88 -12l12 -29
v-41l-117 18v-12l70 -41l-23 -47l-41 12l-76 64q-35 12 -99 76q41 82 87 94zM455 1465v-6h6v6h-6zM449 1254h-58l-18 -52l30 -53l-35 -17q-30 -6 -35 12l-170 163l76 17l187 -5l12 -6q-6 -24 11 -29v-30zM373 1529l53 -47h6l-12 41l-17 12zM181 1079q82 18 163 -40l41 -94
l-6 -23l-181 -18h-75l-6 12q-18 140 64 163zM286 776h47l23 -23q0 -76 -29 -76q-64 -12 -76 47q6 40 35 52zM286 1266v-6h12v-11l17 -12l12 12l-6 17l-23 -6v6h-12zM181 992v-23l117 5q11 18 -53 47q-41 0 -64 -29zM1021 1184v-11h23l-5 11h-18zM986 1208v-6h6v6h-6z
M986 1208v6h-12v-6h12zM963 1225v-11h11l-5 11h-6zM951 1237v-12h12l-6 12h-6zM829 1319h5v5h-5v-5zM829 1319h-6v-6h6v6zM823 1313l-12 -6v-12l12 6v12zM811 1295l-23 -23l-24 -58v-30l35 88l12 6v17z" />
  </font>
</defs>
</svg>
