<?xml version="1.0" standalone="no"?>
<!DOCTYPE svg PUBLIC "-//W3C//DTD SVG 1.1//EN" "http://www.w3.org/Graphics/SVG/1.1/DTD/svg11.dtd" >
<svg xmlns="http://www.w3.org/2000/svg">
<metadata>
Created by FontPrep 20130207 at Sun Dec 13 18:40:32 2015
 By Justin Ruckman
1998 by Boba Fonts - Davide Canavero - canavero@pianeta.net
</metadata>
<defs>
<font id="7fc7a1ec5d18e8cadffae18ba6f44d3f" horiz-adv-x='1024' >
  <font-face 
    font-family="StarJedi"
    font-weight="400"
    font-stretch="normal"
    units-per-em="2048"
    panose-1="4 11 0 0 0 0 0 0 0 0"
    ascent="1638"
    descent="-410"
    x-height="1444"
    cap-height="1444"
    bbox="-1656 -708 5371 2560"
    underline-thickness="50"
    underline-position="-75"
    unicode-range="U+0020-2020"
  />
<missing-glyph horiz-adv-x="3072" 
d="M2494 66v2428h-1916v-2428h1916zM512 0v2560h2048v-2560h-2048z" />
    <glyph glyph-name=".notdef" horiz-adv-x="3072" 
d="M2494 66v2428h-1916v-2428h1916zM512 0v2560h2048v-2560h-2048z" />
    <glyph glyph-name=".null" horiz-adv-x="0" 
 />
    <glyph glyph-name="nonmarkingreturn" horiz-adv-x="0" 
 />
    <glyph glyph-name="space" unicode=" " horiz-adv-x="950" 
 />
    <glyph glyph-name="exclam" unicode="!" horiz-adv-x="872" 
d="M213 385h446v-385h-446v385zM162 1444h549l-80 -909h-389z" />
    <glyph glyph-name="quotedbl" unicode="&#x22;" horiz-adv-x="1139" 
d="M197 813v631h307v-631h-307zM635 813v631h307v-631h-307z" />
    <glyph glyph-name="numbersign" unicode="#" horiz-adv-x="2035" 
d="M886 457h173l-42 269l104 42l62 55l118 -97h14l69 -69q27 0 97 146v20l-236 76q-20 0 -13 35q20 35 13 97l-13 76q27 0 249 90l-21 55l-69 90v14l-208 -173q-97 83 -166 90l35 270l-35 7l-145 -7l48 -270q-104 -28 -159 -90h-21l-186 159h-14l-83 -138v-21l256 -90
q-21 -14 -14 -159l14 -28l-14 -13h-28q-152 -77 -201 -77l-13 -13l90 -153l20 7l49 56q48 20 131 103h21l35 -34l76 -42l48 -14l-41 -228v-41zM1695 643q28 -6 62 125l28 159q7 139 -14 256l-69 187l-41 -21l48 -138l-62 -21q-21 -7 -14 -41q41 -56 0 -319l76 -20l-42 -153
q28 0 28 -14zM1024 180l125 14q103 27 235 90q55 27 173 138l97 118v20l-28 14l-28 -14l-14 -41l-55 -55h-21l-41 48h-21l-104 -97l-131 -62l-56 -14l14 -76q-55 -35 -138 -35zM927 180v48l-152 21l14 90q-237 82 -298 173l-48 -55h-28l-90 110l-34 -20q-7 -21 41 -70
l152 -145l173 -97l222 -55h48zM1439 1494l21 7l48 49l28 -35q21 7 69 -76q14 -7 42 21l-42 69h-21l-20 42l-83 83q-166 124 -450 173l-21 -7l7 -49l111 -7l34 -14l-13 -89q242 -77 290 -167zM318 1425l90 111h28l34 -42l21 -6q139 138 291 173l-21 89l152 21h7l-7 56
l-145 -21l-118 -42l-152 -83q-90 -76 -131 -131h-21l-62 -90l7 -21zM235 637q28 -7 42 13l-49 139l70 27h6l-20 146q-7 55 20 214l-76 21l42 131l-14 28l-35 -7l-62 -256q-7 -318 76 -456zM1882 1086l-7 -235l-41 -166l-42 -97l-14 -7q-97 -214 -339 -373
q-131 -83 -346 -118h-242l-118 21l-13 14l-90 20l-146 76l-103 70l-90 90q-194 235 -229 505q-27 235 63 491l34 62l14 7q-7 28 125 194l83 76q242 180 463 201h256q194 -35 339 -125q388 -242 443 -706z" />
    <glyph glyph-name="dollar" unicode="$" horiz-adv-x="2059" 
d="M500 1737h14q-114 -149 -170 -327l-15 -135q36 -355 299 -462q128 -14 199 64q21 0 78 171v184l-42 121q-107 164 -185 192q14 50 85 121l29 -7q71 -57 120 -149h8q7 64 -22 156l-57 100l171 199l171 -206l-64 -107l-15 -50l-7 -99h15l78 121l50 42q21 7 64 -42l42 -64
l-121 -114l-85 -128q-114 -406 171 -505q156 -14 263 121q71 85 121 284q42 228 -178 519q334 -206 405 -647v-213q-28 -206 -92 -327q-256 -448 -740 -498q-426 -21 -704 242q-270 277 -284 583q-29 547 398 860z" />
    <glyph glyph-name="percent" unicode="%" horiz-adv-x="1923" 
d="M1548 243h-28l-20 21l-132 62q-84 0 -91 -62q-7 -21 21 -104q-21 -14 21 -132l-14 -28q-21 -7 -41 21q-84 111 -84 139l-48 55q-35 14 -105 0l-27 -41q14 -56 -35 -139l-49 7q-20 27 -13 139q-42 69 -139 27l-104 -159l-42 -35l-21 21v41l14 28l14 125q62 49 -49 111h-41
l-42 -35l-104 -48l-28 7l21 76l48 42v41q35 35 21 49l-48 63h-77q-145 -42 -208 -35q-14 35 7 42l69 34l63 56l48 14q56 76 28 104l-69 34l-139 35v21l187 49q42 76 0 125l-215 125l-21 34l21 14l195 -42l90 -6q35 76 55 69v28l-55 104q-56 55 -7 83h28l34 -41l28 -7
q70 -98 181 0q-28 69 -28 138q-21 28 -14 77q-35 21 -14 97l35 -14l76 -90v-28l63 -62l34 -63v-97l-20 -21l-63 -21l-28 -27l-48 -21l-56 -42l-76 -90q-14 -63 -35 -70l-14 -48v-56q-41 -21 -7 -208l56 -132l41 -62l70 -49l28 -49l69 -27l42 -49l139 -28l13 -21h125l84 42
q34 -14 125 35l27 48q42 0 56 28v28l35 21l83 132q14 145 42 152l-21 56v49l-28 34q14 28 0 56q-21 21 -14 48q-35 21 -41 63l-98 104l-187 111l-14 76l28 70l48 55l7 35q70 104 84 97l20 42l28 -7v-76l-28 -77q7 -55 -20 -118l7 -55l48 -35h70l138 83l28 -7l-28 -69
l-41 -42l-7 -34l-35 -35l42 -77l146 14q125 42 166 7l-111 -97l-69 -35l-35 -41l21 -97q76 -42 132 -42l48 -28l7 -21q-55 -34 -173 -48q-28 -14 -28 -139l111 -49l97 -83l-14 -21l-104 21q-62 -7 -104 21q-56 7 -97 -21l7 -76l76 -132v-35zM1062 1562v187l14 21
q97 -21 111 -48l-69 -160l-21 -21q-35 7 -35 21zM958 1916v-62l14 -28l14 -104l-7 -42q48 -160 42 -215q-14 -63 0 -125l-21 -21h-118q-28 21 -28 76l7 84l21 48q-21 35 14 132l-14 97l21 70v118l13 21h21q7 -49 21 -49zM778 1777q34 0 41 -28q-14 -104 0 -208l-21 -21
l-34 14l-21 77l-56 90q-7 42 21 48zM889 1104h76l139 -63q76 21 125 -215q7 -62 -49 -153l-48 -55l-98 -49q-159 -21 -256 49l-21 14l-77 139l14 152l28 35q-28 56 167 146z" />
    <glyph glyph-name="ampersand" unicode="&#x26;" horiz-adv-x="1887" 
d="M1080 425q21 7 42 -21l69 -139l-7 -35l-76 -35q-35 -7 -42 21v188zM780 446q21 7 42 -21q-14 -105 0 -209l-21 -28l-111 42v35l55 90l21 77zM857 561q0 73 28 87h118l21 -21q-14 -49 0 -153l-21 -133l-11 -59l-20 -296l-20 -224q-6 -34 -14 -102q-32 347 -32 361l-14 123
l-2 74l-6 90l-10 114v32q-17 34 -17 107zM885 1400h153l104 -56l56 -69l35 -105l-28 -146l-56 -91l-146 -48l-35 -21h-76l-98 49l-70 62v35q-34 7 -41 132v56l76 139zM1553 1728v-35l-76 -140q-28 -83 28 -90h69q133 42 209 35q7 -28 -104 -105q-21 7 -98 -49l7 -118l14 -14
l160 -35l21 -21l-69 -48q-28 20 -119 -42l-21 -105l209 -146l7 -14l-21 -14h-90q-70 28 -202 35q-28 -70 -42 -63v-21q49 -27 49 -69q69 -84 55 -105l-167 77q-125 0 -118 -91l21 -62q0 -98 28 -147l-7 -69l-35 14l-7 27l-35 28q-70 98 -63 119q-34 14 -48 55l-21 56l14 77
l181 111l111 112q0 42 35 62q-7 21 21 77l-7 28l28 42q-7 28 21 90q-35 21 -42 147l-28 27l-14 49l-42 63l-34 21v28l-63 34l-21 21q7 28 -77 56q-90 0 -132 42h-125l-14 -21q-63 0 -154 -35q0 -21 -83 -69l-56 -63q-97 -35 -167 -328v-76l21 -42v-56l55 -132l70 -77
q167 -104 202 -111l14 -21q7 -98 -21 -132q-35 -56 -76 -84v-28l-91 -104l-28 7v69l21 28v49l21 49v55q21 49 14 70l-70 35l-62 -7q-28 -7 -42 -42q-42 -7 -63 -49l-49 14v49q98 125 84 146l-42 35l-14 42q-70 7 -265 -49l-41 14l27 42l216 132q28 28 0 112l-195 48
q-7 28 14 28l119 28l14 14q104 14 48 119q-7 -14 -209 125q-7 35 21 35l209 -42l77 7l35 56q7 21 -21 55v42l-49 35l-21 56l7 28l56 -14l97 -49q42 -63 126 42q-7 48 -21 48v70l-28 91l7 55l28 -7l77 -90q0 -35 62 -98q42 -21 91 -14l42 35q-7 119 20 154q56 7 56 -14
q28 -56 28 -140q21 -42 132 -28l42 49l49 105l56 62l35 -14l-28 -104l7 -56q-56 -83 28 -153l62 7l119 56l14 21h27z" />
    <glyph glyph-name="quotesingle" unicode="'" horiz-adv-x="647" 
d="M170 813v631h307v-631h-307z" />
    <glyph glyph-name="parenleft" unicode="(" horiz-adv-x="758" 
d="M72 817q0 458 278 932h375q-231 -426 -231 -929q0 -502 231 -925h-375q-278 464 -278 922z" />
    <glyph glyph-name="parenright" unicode=")" horiz-adv-x="758" 
d="M688 823q0 -457 -278 -928h-375q231 424 231 926q0 377 -89 605.5t-142 322.5h375q278 -469 278 -926z" />
    <glyph glyph-name="asterisk" unicode="*" horiz-adv-x="1620" 
d="M871 427q35 11 46 -29l6 -69l-6 -104h18l5 -46l-17 -23v-18l-35 -75q0 266 -40 329q0 29 23 35zM588 456q-5 28 15 34t60 -40l-11 -121v-121l-35 69q0 110 -29 179zM1027 1096l29 69l63 52l29 58l29 35h29l75 -64l80 -81l6 -23l12 -6q29 -63 40 -57q81 -179 98 -381
q23 -23 -75 -179q-57 -63 -138 -86q-156 -6 -196 34v12q28 -17 98 -12l57 29l58 46l40 81q-11 139 -75 214l-121 155l-92 75l-12 23q-5 -11 -34 6zM427 1361v24q-40 69 -35 69l29 34l29 81q-12 64 23 81l17 -29q-23 -75 -5 -190l52 -58q17 12 86 -52l46 -75l6 -46l23 -35
v-17l17 6l18 46l-6 46q-35 6 -23 144l-69 127v23l-41 41l-17 -6l-52 46l-29 81q-40 34 -34 46q-6 75 17 98l34 29h12l40 40q12 12 87 -23l-64 -132l87 -47v-109l29 104v46l-46 29l17 34l58 69l29 -11q98 6 109 -12l17 -17l133 29q23 -12 46 0q23 -17 29 -133l-29 -63
l-40 -41v-17l-46 -29l-81 -29l-29 -52q-40 -11 -104 -69q0 -75 29 -138l-6 -6l23 -133h12l23 145l35 5l109 58l69 81l-11 109l46 81l23 23l17 -29v-46q-17 6 -11 -46l17 6l23 -116l-5 -28l-93 -104l-52 -104q18 -6 12 -35q0 -29 -23 -40l-87 -52l-11 -35v-23l29 -57
q-12 -12 5 -70l-40 -51q-12 -35 0 -75l-29 -52l6 -139q23 -11 23 -63q-17 -35 -63 -46l-18 -41l6 -52q29 -23 17 -40h-5l5 -116l-17 -34l17 -41l-5 -5l5 -127l-23 17v-17l-29 6l12 265l-17 185l5 5l-11 58q11 104 0 133l40 57l23 116q35 63 23 109q-23 6 -80 -40
q11 -46 0 -98l-23 -104l-41 75l6 87l-52 98l-17 -52q-6 -35 17 -139q58 -52 52 -69l-12 -40l12 -127q29 -58 17 -87l12 -404h-6q12 -28 -6 -40q-17 12 -52 0q12 104 0 110l23 294l-17 63l-104 121l23 179l-5 162l-35 46l-6 58l23 40v40l-75 70l6 28l-23 35q-92 58 -98 81
q23 17 23 34zM363 1275q29 0 168 -162l-6 -34q-127 -81 -219 -199t-104 -245q35 -81 52 -93l115 -86q58 -6 93 11l23 41h17q11 -18 -29 -81l-63 -35q-75 -11 -197 52q-86 64 -126 196q-6 116 17 179l11 12l6 63l17 35l18 75l17 17q17 52 110 173z" />
    <glyph glyph-name="plus" unicode="+" horiz-adv-x="1456" 
d="M-100 1014v430h1656v-430h-1656z" />
    <glyph glyph-name="comma" unicode="," horiz-adv-x="758" 
d="M188 397h435l-236 -630h-326z" />
    <glyph glyph-name="hyphen" unicode="-" horiz-adv-x="758" 
d="M92 377v360h574v-360h-574z" />
    <glyph glyph-name="period" unicode="." horiz-adv-x="758" 
d="M156 0v397h446v-397h-446z" />
    <glyph glyph-name="slash" unicode="/" horiz-adv-x="758" 
d="M518 1468h363l-641 -1493h-363z" />
    <glyph glyph-name="zero" unicode="0" horiz-adv-x="1516" 
d="M613 401.5q29 -104.5 147 -104.5q143 0 157.5 140t14.5 287t-14 285t-160 138t-160 -138t-14 -321q0 -182 29 -286.5zM47 692q0 359 185.5 567.5t521.5 208.5t525 -203.5t189 -543.5q0 -225 -81 -393.5t-242 -260.5t-385 -92t-385.5 93.5t-244.5 263.5t-83 360z" />
    <glyph glyph-name="one" unicode="1" horiz-adv-x="1065" 
d="M952 1444v-1444h-516v938l-317 -233l-146 376l539 363h440z" />
    <glyph glyph-name="two" unicode="2" horiz-adv-x="1212" 
d="M522 1468q275 0 462 -108t187 -365q0 -217 -135.5 -340.5t-223.5 -177.5t-226 -125v-4h585v-348h-1130v406q236 118 418 235q91 63 143.5 124t52.5 153t-77 141t-189 49q-177 0 -319 -61v376q244 45 452 45z" />
    <glyph glyph-name="three" unicode="3" horiz-adv-x="1212" 
d="M633 440q0 142 -234 142q-63 0 -176 -15v316q77 -4 131 -4t110 6t102 32.5t46 94.5t-61 101.5t-186 33.5t-308 -57v323q174 55 443 55t403.5 -69.5t190 -148.5t55.5 -187q0 -246 -275 -326v-4q295 -77 295 -334q0 -148 -91.5 -243t-234.5 -138t-304 -43q-283 0 -496 60
v336q175 -60 322 -60t207.5 27.5t60.5 101.5z" />
    <glyph glyph-name="four" unicode="4" horiz-adv-x="1442" 
d="M1409 584v-308h-252v-276h-347v276h-777v308l777 860h347l1 -860h251zM810 584v451l-384 -451h384z" />
    <glyph glyph-name="five" unicode="5" horiz-adv-x="1212" 
d="M497 -25q-194 0 -421 62v330q183 -43 301 -43q256 0 256 163q0 100 -83.5 138.5t-199.5 38.5t-256 -33v813h1010v-336h-539v-223q55 6 167 6t214.5 -54t162.5 -155t60 -233q0 -176 -93 -281.5t-239 -149t-340 -43.5z" />
    <glyph glyph-name="six" unicode="6" horiz-adv-x="1401" 
d="M897 483q0 86 -47 137.5t-130 51.5t-127 -53t-44 -141t45.5 -140.5t125.5 -52.5t128.5 56t48.5 142zM1368 470q0 -156 -89.5 -270.5t-234 -169.5t-329.5 -55t-346 91t-248.5 253.5t-87.5 390.5t98 404t272 265t413 89t421 -38v-334q-25 6 -72.5 18t-109.5 22.5t-188 10.5
t-222 -68t-96 -221q107 88 321 88q130 0 244.5 -54.5t184 -160t69.5 -261.5z" />
    <glyph glyph-name="seven" unicode="7" horiz-adv-x="1212" 
d="M25 1444h1163v-397l-514 -1047h-615l609 1047h-643v397z" />
    <glyph glyph-name="eight" unicode="8" horiz-adv-x="1401" 
d="M545 1032q0 -71 40.5 -118.5t110.5 -47.5t110 47.5t40 117.5t-39.5 117.5t-109.5 47.5t-111 -46.5t-41 -117.5zM660.5 651q-119.5 0 -119.5 -188q0 -84 37.5 -137.5t119.5 -53.5t122 54.5t40 138.5t-40 135t-159.5 51zM25 385q0 282 286 350v4q-89 30 -175.5 92.5
t-86.5 241.5q0 212 190.5 303.5t458.5 91.5q386 0 514.5 -125t128.5 -264q1 -139 -65 -217l-193 -127q132 -33 212.5 -120.5t80.5 -215.5q0 -230 -200 -327t-478 -97q-387 0 -530 130t-143 280z" />
    <glyph glyph-name="nine" unicode="9" horiz-adv-x="1401" 
d="M504 962q0 -86 48 -138t130 -52t126 53t44 141t-44 140.5t-126 52.5t-130 -55.5t-48 -141.5zM530 498q-129 0 -243 53.5t-184 159.5t-70 242q0 256 186.5 385.5t446.5 129.5q315 0 508.5 -199t193.5 -515q0 -248 -98 -424.5t-271.5 -265.5t-410.5 -89t-424 39v334
q190 -51 342 -51t249 68t97 221q-110 -88 -322 -88z" />
    <glyph glyph-name="colon" unicode=":" horiz-adv-x="758" 
d="M156 680v397h446v-397h-446zM156 0v397h446v-397h-446z" />
    <glyph glyph-name="semicolon" unicode=";" horiz-adv-x="1360" 
d="M60 0v1014h-60v430h1298v-430h-768v-166h496v-252h-496v-166h1230v-430h-1700z" />
    <glyph glyph-name="less" unicode="&#x3c;" horiz-adv-x="0" 
d="M-1656 -512v430h1656v-430h-1656z" />
    <glyph glyph-name="equal" unicode="=" horiz-adv-x="1456" 
d="M-100 0v430h1656v-430h-1656z" />
    <glyph glyph-name="greater" unicode="&#x3e;" horiz-adv-x="0" 
d="M0 -512v430h1656v-430h-1656z" />
    <glyph glyph-name="question" unicode="?" horiz-adv-x="1176" 
d="M283 385h446v-385h-446v385zM530 1468q311 0 436.5 -106t125.5 -226t-48.5 -188.5t-147 -148.5t-142 -132t-43.5 -132h-410q13 240 100 304.5t130.5 98.5t43.5 86t-51.5 68t-135.5 16q-160 0 -304 -68v353q239 75 446 75z" />
    <glyph glyph-name="at" unicode="@" horiz-adv-x="5507" 
d="M949 2516v-430h-238q-256 18 -76 -142q324 -284 318 -552t-318 -320h-1376v430h912q284 -14 72 158q-348 320 -296 588t328 268h674zM4190 2164v-266h364q29 0 63 21.5t36 108.5q-5 83 -40.5 109.5t-59.5 26.5h-363zM3684 1072v1444h940q343 -31 450 -296q40 -192 4 -296
t-126 -174t-258 -110l108 -138h432v-430h-570l-458 477v-477h-522zM2807 2180l-207 -572h398zM1968 1072l475 1444h717l483 -1444h-546l-91 260h-429l-91 -260h-518zM392 882l201 -624l207 624h510l-475 -1444h-470l-181 614zM-469 882l256 -624l134 624h470l-362 -1444
h-470l-540 1444h512zM3150 532v-266h364q29 0 63 21.5t36 108.5q-5 83 -40.5 109.5t-59.5 26.5h-363zM2628 -562v1444h940q343 -31 450 -296q40 -192 4 -296t-126 -174t-258 -110l108 -138h432v-430h-570l-458 477v-477h-522zM1771 548l-207 -572h398zM932 -560l478 1442
h716l481 -1442h-546l-91 260h-429l-91 -260h-518zM2206 2516v-430h-458v-1014h-470v1014h-328v430h1256zM4179 -562v430h307q284 -14 72 158q-348 320 -296 588t328 268h781l-1 -430h-344q-256 18 -76 -142q324 -284 318 -552t-318 -320h-771z" />
    <glyph glyph-name="A" unicode="A" 
d="M-100 1014v430h1212l483 -1444h-546l-91 260h-429l-91 -260h-518l333 1014h-353zM755 1124l-207 -572h398z" />
    <glyph glyph-name="B" unicode="B" horiz-adv-x="1628" 
d="M558 1094v-219h350q29 0 61 30.5t34 81.5q-4 59 -38.5 83t-57.5 24h-349zM558 559v-267h321q83 -3 145 36t62 96q6 63 -50.5 99t-156.5 36h-321zM60 0v1014h-300v430h1285q237 -2 360.5 -82t149.5 -268q9 -144 -61 -226t-231 -135v-4q157 -20 255.5 -116.5t98.5 -213.5
q0 -171 -87.5 -259t-225 -115t-333.5 -25h-911z" />
    <glyph glyph-name="C" unicode="C" horiz-adv-x="1440" 
d="M10 738q0 175 63.5 308.5t176 222t227.5 142t339 65.5q232 -12 354 -56t246 -160l-284 -316q-72 60 -128 86t-184 34q-124 -16 -185 -51t-105 -95t-52 -180q8 -120 52 -180t105 -95t185 -51q128 8 184 34t128 86l284 -316q-124 -116 -246 -160t-354 -56
q-224 12 -339 65.5t-227.5 142t-176 222t-63.5 308.5z" />
    <glyph glyph-name="D" unicode="D" horiz-adv-x="1662" 
d="M542 1086v-726h275q161 0 220 101t69 261q-3 146 -62 255t-229 109h-273zM60 0v1014h-300v430h1152q506 0 623 -257t117 -470q-22 -386 -214.5 -555t-549.5 -162h-828z" />
    <glyph glyph-name="E" unicode="E" horiz-adv-x="1360" 
d="M60 0v1014h-300v430h1538v-430h-768v-166h496v-252h-496v-166h890v-430h-1360z" />
    <glyph glyph-name="F" unicode="F" horiz-adv-x="1328" 
d="M60 0v1014h-300v430h1538v-430h-768v-166h496v-252h-496v-596h-470z" />
    <glyph glyph-name="G" unicode="G" horiz-adv-x="1440" 
d="M1001 722h439v-722h-621q-228 0 -412.5 83.5t-290.5 250.5t-106 409q0 170 63.5 303.5t176 222t227.5 142t339 65.5q232 -12 354 -56t246 -160l-284 -316q-72 60 -128 86t-184 34q-124 -16 -182 -54t-102 -98t-56 -184q12 -124 56 -174t110 -82t142 -40t213 -2v292z" />
    <glyph glyph-name="H" unicode="H" horiz-adv-x="1398" 
d="M888 946v498h470v-1444h-470v520h-378v-520h-470v1014h-300v430h770v-498h378z" />
    <glyph glyph-name="I" unicode="I" horiz-adv-x="1398" 
d="M888 946v498h870v-430h-400v-1014h-470v520h-378v-520h-470v1444h470v-498h378z" />
    <glyph glyph-name="J" unicode="J" horiz-adv-x="877" 
d="M1046 1444v-430h-250v-1022q-6 -166 -36 -234t-107 -128t-193 -91t-210 -41t-250 -10v430q158 -4 213 23t78 60t35 123v1320h720z" />
    <glyph glyph-name="K" unicode="K" horiz-adv-x="1404" 
d="M530 1444v-470l330 470h470l-538 -722l240 -292h772v-430h-910l-364 430v-430h-470v1444h470z" />
    <glyph glyph-name="L" unicode="L" horiz-adv-x="1312" 
d="M60 0v1014h-300v430h770v-1014h782v-430h-1252z" />
    <glyph glyph-name="M" unicode="M" horiz-adv-x="1650" 
d="M40 0v1014h-300v430h770l316 -600l314 600h470v-1444h-470v600l-302 -600h-26l-302 600v-600h-470z" />
    <glyph glyph-name="N" unicode="N" horiz-adv-x="1430" 
d="M60 0v1444h470l430 -540v540h870v-430h-400v-1014h-470l-430 540v-540h-470z" />
    <glyph glyph-name="O" unicode="O" horiz-adv-x="1430" 
d="M60 0v1014h-300v430h770l430 -540v540h470v-1444h-470l-430 540v-540h-470z" />
    <glyph glyph-name="P" unicode="P" horiz-adv-x="1501" 
d="M582 1084v-266h364q29 0 63 21.5t36 108.5q-5 83 -40.5 109.5t-59.5 26.5h-363zM60 0v1014h-300v430h1240q354 -33 450 -296q44 -160 36 -240t-32 -150t-132 -162t-288 -119h-452v-477h-522z" />
    <glyph glyph-name="Q" unicode="Q" horiz-adv-x="1650" 
d="M1140 0v600l-302 -600h-26l-302 600v-600h-470v1444h470l314 -600l316 600h870v-430h-400v-1014h-470z" />
    <glyph glyph-name="R" unicode="R" horiz-adv-x="1550" 
d="M582 1084v-266h364q29 0 63 21.5t36 108.5q-5 83 -40.5 109.5t-59.5 26.5h-363zM60 0v1444h940q343 -31 450 -296q40 -192 4 -296t-126 -174t-258 -110l108 -138h772v-430h-910l-458 477v-477h-522z" />
    <glyph glyph-name="S" unicode="S" horiz-adv-x="1135" 
d="M1298 1014h-454q-257 8 -76 -142q324 -284 318 -552t-318 -320h-1260v430h796q283 -8 72 158q-348 320 -296 588t328 268h890v-430z" />
    <glyph glyph-name="T" unicode="T" horiz-adv-x="1070" 
d="M1228 1444v-430h-458v-1014h-470v1014h-458v430h1386z" />
    <glyph glyph-name="U" unicode="U" horiz-adv-x="1404" 
d="M60 0v1444h470v-470l330 470h470l-538 -722l460 -718q62 -92 152 -86v-430q-250 -2 -352 180l-522 762v-430h-470z" />
    <glyph glyph-name="V" unicode="V" horiz-adv-x="1550" 
d="M582 1084v-266h364q29 0 63 21.5t36 108.5q-5 83 -40.5 109.5t-59.5 26.5h-363zM60 0v1444h940q174 -16 279 -86t143 -135t54 -159t-21 -205t-127 -181t-258 -110l372 -608q36 -52 108 -42v-430q-286 -8 -374 112l-594 877v-477h-522z" />
    <glyph glyph-name="W" unicode="W" horiz-adv-x="1800" 
d="M-248 1014v430h662l198 -624l172 624h432l201 -624l134 624h465l-357 -1444h-470l-183 612l-152 -612h-470l-332 1014h-300z" />
    <glyph glyph-name="X" unicode="X" horiz-adv-x="1550" 
d="M0 1014v430h1000q343 -31 450 -296q40 -192 4 -296t-126 -174t-258 -110l108 -138h432v-430h-570l-458 477v-477h-522v864h886q96 0 99 73q-5 47 -40.5 61.5t-59.5 14.5l-381 1h-564z" />
    <glyph glyph-name="Y" unicode="Y" horiz-adv-x="1472" 
d="M972 0h-472v530l-336 484h-300v430h576l298 -446l294 446h570l-630 -914v-530z" />
    <glyph glyph-name="Z" unicode="Z" 
d="M1594 1444v-430h-353l333 -1014h-518l-91 260h-429l-91 -260h-546l483 1444h1212zM548 552h398l-207 572z" />
    <glyph glyph-name="bracketleft" unicode="[" horiz-adv-x="1404" 
d="M530 1444v-470l330 470h470l-538 -722l240 -292h772v-430h-910l-364 430v-430h-470v1014h-300v430h770z" />
    <glyph glyph-name="backslash" unicode="\" horiz-adv-x="56" 
d="M-296 0v430h650v-430h-650z" />
    <glyph glyph-name="bracketright" unicode="]" horiz-adv-x="1800" 
d="M2230 1444v-430h-400l-255 -1014h-470l-183 612l-152 -612h-470l-440 1444h470l198 -624l172 624h432l201 -624l134 624h763z" />
    <glyph glyph-name="asciicircum" unicode="^" horiz-adv-x="2059" 
d="M0 787h361q184 -450 675 -432q213 24 379 172l526 260q-71 -343 -331 -562q-266 -207 -562 -225q-142 -6 -255 12q-621 136 -793 728v47zM1941 1202h-367q-53 201 -301 361q-243 130 -509 47l-119 -53q-195 -119 -284 -355h-361v47q107 385 450 604q297 161 509 136
q337 18 651 -225q249 -219 331 -539v-23zM923 1302q284 12 356 -266q11 -284 -267 -355q-284 -12 -355 266q-12 284 266 355z" />
    <glyph glyph-name="underscore" unicode="_" horiz-adv-x="1454" 
d="M1444 1444v-848q0 -182 -55.5 -295t-158 -185t-240 -105.5t-270.5 -36.5q-330 8 -462 118t-188.5 217.5t-59.5 287.5v417h-300v430h770v-854q-4 -142 67 -202t177 -62q132 4 194 61t56 203v854h470z" />
    <glyph glyph-name="grave" unicode="`" horiz-adv-x="1630" 
d="M-242 1014v430h734l332 -1109l328 1109h551l-508 -1444h-767l-371 1014h-299z" />
    <glyph glyph-name="a" unicode="a" 
d="M755 1124l-207 -572h398zM-80 0l475 1444h717l483 -1444h-546l-91 260h-429l-91 -260h-518z" />
    <glyph glyph-name="b" unicode="b" horiz-adv-x="1628" 
d="M558 1094v-219h350q29 0 61 30.5t34 81.5q-4 59 -38.5 83t-57.5 24h-349zM558 559v-267h321q83 -3 145 36t62 96q6 63 -50.5 99t-156.5 36h-321zM60 0v1444h985q237 -2 360.5 -82t149.5 -268q9 -144 -61 -226t-231 -135v-4q157 -20 255.5 -116.5t98.5 -213.5
q0 -171 -87.5 -259t-225 -115t-333.5 -25h-911z" />
    <glyph glyph-name="c" unicode="c" horiz-adv-x="1484" 
d="M1032 430h452v-430h-640q-235 0 -425 83.5t-299.5 250.5t-109.5 409q0 170 65.5 303.5t238.5 265.5t530 132h640v-430h-452q-152 0 -225 -9t-130 -30t-101 -73t-51 -184q5 -128 51 -183t137.5 -80t318.5 -25z" />
    <glyph glyph-name="d" unicode="d" horiz-adv-x="1662" 
d="M542 1086v-726h275q161 0 220 101t69 261q-3 146 -62 255t-229 109h-273zM60 0v1444h852q506 0 623 -257t117 -470q-22 -386 -214.5 -555t-549.5 -162h-828z" />
    <glyph glyph-name="e" unicode="e" horiz-adv-x="1360" 
d="M60 0v1444h1238v-430h-768v-166h496v-252h-496v-166h890v-430h-1360z" />
    <glyph glyph-name="f" unicode="f" horiz-adv-x="1328" 
d="M60 0v1444h1238v-430h-768v-166h496v-252h-496v-596h-470z" />
    <glyph glyph-name="g" unicode="g" horiz-adv-x="1484" 
d="M1032 430v292h452v-722h-640q-235 0 -425 83.5t-299.5 250.5t-109.5 409q0 170 65.5 303.5t238.5 265.5t530 132h640v-430h-452q-152 0 -225 -9t-130 -30t-101 -73t-51 -184q5 -128 51 -183t137.5 -80t318.5 -25z" />
    <glyph glyph-name="h" unicode="h" horiz-adv-x="1398" 
d="M888 946v498h470v-1444h-470v520h-378v-520h-470v1444h470v-498h378z" />
    <glyph glyph-name="i" unicode="i" horiz-adv-x="550" 
d="M40 1444h470v-1444h-470v1444z" />
    <glyph glyph-name="j" unicode="j" horiz-adv-x="879" 
d="M878 1444v-430h-74v-560q-6 -166 -80.5 -276t-311.5 -164q-136 -10 -221 -11t-183 -3v430q78 -20 166 -1t118 43t42 114v858h544z" />
    <glyph glyph-name="k" unicode="k" horiz-adv-x="1404" 
d="M530 1444v-470l330 470h470l-538 -722l240 -292h432v-430h-570l-364 430v-430h-470v1444h470z" />
    <glyph glyph-name="l" unicode="l" horiz-adv-x="1312" 
d="M60 0v1444h470v-1014h782v-430h-1252z" />
    <glyph glyph-name="m" unicode="m" horiz-adv-x="1650" 
d="M40 0v1444h470l316 -600l314 600h470v-1444h-470v600l-302 -600h-26l-302 600v-600h-470z" />
    <glyph glyph-name="n" unicode="n" horiz-adv-x="1430" 
d="M60 0v1444h470l430 -540v540h470v-1444h-470l-430 540v-540h-470z" />
    <glyph glyph-name="o" unicode="o" horiz-adv-x="1677" 
d="M523 710q0 -139 62.5 -242t246.5 -103q142 0 212.5 54t88 123.5t23.5 167.5q-6 139 -67 242.5t-257 103.5q-309 0 -309 -346zM1668 714q0 -237 -99 -404t-286.5 -251t-447.5 -84t-542.5 128t-282.5 611q0 358 215.5 549.5t609.5 191.5q259 0 447 -85.5t287 -252
t99 -403.5z" />
    <glyph glyph-name="p" unicode="p" horiz-adv-x="1501" 
d="M582 1084v-266h364q29 0 63 21.5t36 108.5q-5 83 -40.5 109.5t-59.5 26.5h-363zM60 0v1444h940q354 -33 450 -296q44 -160 36 -240t-32 -150t-132 -162t-288 -119h-452v-477h-522z" />
    <glyph glyph-name="q" unicode="q" horiz-adv-x="1639" 
d="M527 702q0 -139 62.5 -242t246.5 -103v71q276 -28 297 73.5t27 200.5q-6 137 -67 240.5t-257 103.5q-309 0 -309 -344zM1639 430v-430l-859 -25q-566 15 -668 291.5t-102 456.5t53 310.5t155 226.5t246 144t368 60q228 -12 402 -76t284 -212t98 -440q-24 -132 -94.5 -230
t75.5 -76h42z" />
    <glyph glyph-name="r" unicode="r" horiz-adv-x="1550" 
d="M582 1084v-266h364q29 0 63 21.5t36 108.5q-5 83 -40.5 109.5t-59.5 26.5h-363zM60 0v1444h940q343 -31 450 -296q40 -192 4 -296t-126 -174t-258 -110l108 -138h432v-430h-570l-458 477v-477h-522z" />
    <glyph glyph-name="s" unicode="s" horiz-adv-x="1135" 
d="M1196 1014h-352q-257 8 -76 -142q324 -284 318 -552t-318 -320h-768v430h304q283 -8 72 158q-348 320 -296 588t328 268h788v-430z" />
    <glyph glyph-name="t" unicode="t" horiz-adv-x="1366" 
d="M1376 1444v-430h-458v-1014h-470v1014h-458v430h1386z" />
    <glyph glyph-name="u" unicode="u" horiz-adv-x="1454" 
d="M480 1444v-854q-6 -146 56 -203t194 -61q106 2 177 62t67 202v854h470v-847q-3 -180 -59.5 -287.5t-188.5 -217.5t-462 -118q-133 3 -270.5 36.5t-240 105.5t-158 185t-55.5 295v848h470z" />
    <glyph glyph-name="v" unicode="v" horiz-adv-x="1630" 
d="M471 1444l328 -1109l332 1109h579l-515 -1444h-767l-508 1444h551z" />
    <glyph glyph-name="w" unicode="w" horiz-adv-x="1800" 
d="M922 612l-152 -612h-470l-440 1444h470l198 -624l172 624h432l201 -624l134 624h470l-362 -1444h-470z" />
    <glyph glyph-name="x" unicode="x" horiz-adv-x="1472" 
d="M1602 1444l-530 -722l530 -722h-570l-298 446l-294 -446h-570l530 722l-530 722h570l294 -446l298 446h570z" />
    <glyph glyph-name="y" unicode="y" horiz-adv-x="1472" 
d="M972 0h-472v530l-630 914h570l294 -446l298 446h570l-630 -914v-530z" />
    <glyph glyph-name="z" unicode="z" horiz-adv-x="1400" 
d="M40 1444h1320v-430l-699 -584h699v-430h-1320v430l699 584h-699v430z" />
    <glyph glyph-name="braceleft" unicode="{" horiz-adv-x="1675" 
d="M1265 205v20h-32l12 38h-19l-13 -38l-38 -7v-13h19l-26 -83l-12 -13v-38l38 6l39 39v12l-45 -25l38 102h39zM1387 103l13 -26h38l32 45q13 6 -25 71l6 19q32 6 38 -19l7 6l-7 32l-44 -6l-20 -26v-45q32 -38 20 -58q-39 -6 -52 13zM884 79h32l34 72l36 48l9 -7l13 -4
l12 17l1 19l-30 2l-14 -22l-30 -37l-2 8l11 31l1 20h-29l-23 -22l3 -10l16 14l8 -5l-10 -34zM632 185l-4 11l59 81l9 -2l-20 -85l-7 -6zM1548 439v49h12l15 -18l17 18h12v-49h-12v16l-16 -16l-16 16l-1 -16h-11zM224 145l58 -4q20 13 45 64q33 13 39 0v-19l-24 -6l-2 -39
q39 -6 58 45q4 42 -26 64l-57 1q-58 -90 -84 -68v29l33 7l-1 38l-44 -2l-26 -30v-45zM270 544l70 -14l-69 -10zM199 597v-39l38 -8l2 -35l-39 -12l-1 -41l38 1q63 24 155 38v58l-154 38h-39zM366 886v-26l-38 -12l-1 -39h52l19 32q15 83 -58 96q-138 17 -146 -60l5 -34
l21 -33l56 -1l1 40l-45 6l-1 31h135zM398 1233v38h-173l-13 -6l-19 -45q-7 -45 38 -71l165 2l-1 43h-157q-13 32 6 39h154zM199 1464h39l1 58l157 2l1 42h-192l-6 -12v-90zM90 1746h404v-1342h1111v-404h-1515v1746zM1503 488h38v-12l-12 -2l-1 -34h-13l2 34l-14 1v13z
M1278 751q0 135 -33 180l-102 -13q-129 13 -180 0l-160 -481l-20 -20h-19l-13 52l39 51l32 64l6 97l19 32l20 77l32 38l25 96l-12 7l-13 160q25 97 32 251q19 13 13 58l-20 19l-38 6q-103 129 -135 135q13 19 -32 71l6 45l-12 19l6 13l13 -13l32 -13l6 -45l142 -173h19
q-7 -45 38 -39l33 39q6 -19 89 -13l20 71l-13 38l45 90h38l64 -51v-71l-51 -90v-13l39 -6l45 6l19 -19l32 26l71 13l57 32l135 102l-13 -45l-45 -57h-25q-26 -39 -58 -52l-128 -25l-71 -45q-26 -65 58 -386l6 -276l-6 -57q19 -13 19 -154l-6 -45l-13 -7h-20l-6 32l6 109
l-12 7v109l-26 13q26 25 26 51zM1274 1936v29l19 -3l5 -9zM1378 1829l12 33l14 1l36 38h18l4 -18l-30 -32l-17 -2l-18 -19zM1162 1810h51l45 103l13 -6l-32 -109l45 -13l6 -13h39l19 38h26q0 -38 -26 -44q-19 -39 19 -58l84 -39l83 77h20l-39 -64q-45 -6 -45 -38l39 -33
q6 -38 -20 -45q-109 58 -89 90l-52 20q-45 57 -96 90l-19 -7l-26 13h-58v13l-64 -13h-173l-65 -19q-12 -32 -51 -20l7 52q-45 70 -39 90q32 0 32 -13l39 -90h32l25 26l32 6v32l-38 90l13 32l32 -38q0 -65 32 -110q64 -6 103 13l19 45q-26 84 -6 97l19 -13v-122l64 -7v-13z
M520 71h51q13 122 97 96q11 -72 -6 -96h51q-13 32 6 263l-45 -26l-6 -38l-122 -174l-26 -19v-6z" />
    <glyph glyph-name="bar" unicode="|" horiz-adv-x="56" 
d="M-296 1014v430h650v-430h-650z" />
    <glyph glyph-name="braceright" unicode="}" horiz-adv-x="2043" 
d="M804 624l8 11l11 11l291 1l18 -10l6 -16l-6 -5l-315 -2zM807 597l19 3h285l18 -2l12 -4l-15 -22l-305 -1zM847 1345l-31 -33l-20 -31l-15 -30l-11 -29l-8 -28l7 -6l20 51l22 45zM1316 1106l-28 1l1 -25zM1067 1194l-1 -9l15 -5v11zM1129 1308l9 -21l14 -6l13 18l-15 9
h-21zM373 1529l53 -47h6l-12 41l-17 12zM298 1260v-11l17 -12l12 12l-6 17zM181 992v-23l117 5q11 18 -53 47q-41 0 -64 -29zM613 280q17 0 11 -17q53 0 88 87q6 35 -18 53q-17 5 -58 -41l-23 -53v-29zM1651 1377h35l29 23v18l-64 -35v-6zM1418 1570v-41l12 -6l46 12l47 64
v41l-12 5q-41 12 -93 -75zM834 560l278 -1l26 -22l11 -47l12 -12l-7 -3h-365q34 91 45 85zM747 1068l17 -140h12l23 -88l47 -93l152 -6l70 6l-105 12l-82 -6q-35 -6 -99 175q-23 64 -23 134l5 122l-11 -17l-6 -70q12 -12 0 -29zM998 1564l46 -12l47 -47l23 -46l-5 -24
q46 12 52 -70h12l128 -175l53 -105q11 -23 -53 -64h-17q-35 41 -59 35l29 -64q-23 -29 -52 -35l-47 41q0 99 -52 128l-47 23l-35 6l-23 -35v-99l58 -70l93 -47l12 -11l12 -82q-24 -146 -53 -152h-303q-88 123 -111 362v123l35 128l35 64l70 76q64 53 158 82zM928 1791
q41 0 58 -29q18 -52 -41 -76q-58 6 -64 35q-23 35 47 70zM554 1762l35 -6l24 -46l17 -12l-6 105l65 -23l5 -94q76 -23 88 -52l-6 -64l-87 46h-12l6 -23h11l24 -53l-41 -29l-64 76l-82 134v24zM379 1605l59 -18l40 -64l88 -12l12 -29v-41l-117 18v-12l70 -41l-23 -47l-41 12
l-76 64q-35 12 -99 76q41 82 87 94zM449 1254h-58l-18 -52l30 -53l-35 -17q-30 -6 -35 12l-170 163l76 17l187 -5l12 -6q-6 -24 11 -29v-30zM181 1079q82 18 163 -40l41 -94l-6 -23l-181 -18h-75l-6 12q-18 140 64 163zM286 776h47l23 -23q0 -76 -29 -76q-64 -12 -76 47
q6 40 35 52zM461 595q76 23 128 -47l-41 -52h-23q-12 23 -52 23q-30 -23 -41 -52q6 -64 17 -64l-46 -41q-35 -6 -41 87q35 134 99 146zM671 461q29 6 82 -18l23 -29v-81q-41 -111 -128 -135q-88 12 -100 70q0 146 123 193zM893 403q41 -65 35 -105l23 -18l47 99q23 6 23 -17
q35 -146 23 -152l12 -23v-53l-35 -17l-23 6l-18 105l-52 -88l-47 88l-29 -100l-53 30l35 110l12 12q-6 23 35 93v24zM1138 397h35l52 -234v-23l-46 -12q-24 18 -65 222q-11 47 24 47zM1278 414q23 40 52 58t59 -40l-35 -47q-12 -47 52 -76l59 6l23 -29l-6 -41
q-152 -17 -204 105v64zM1488 607l35 -6q0 -18 23 -18l-17 -52l76 -6l35 -23l23 -76l-23 -64q-18 -6 -59 35l18 46l-29 12q-88 -12 -105 76zM1710 753q64 -18 52 -41q12 -23 -29 -64q-53 -18 -76 35q0 70 53 70zM1721 904h-35l-6 -46l-64 11l12 94l12 6h58l198 -30l-6 -99
l-52 6l-6 -6l-6 47l-35 12l-6 -35l-46 -6l-18 6v40zM1675 1173v-18l17 -17h18l35 58q99 47 145 -52q0 -30 -46 -35l-41 35l-41 -59q-105 -41 -157 59l46 29h24zM1721 1500l47 -53l12 -35q17 -82 -111 -88l-35 -75l-70 5l6 30l58 75v6l-82 -52l-35 29q-6 29 12 35zM1465 1710
q99 17 128 -59q12 -58 -47 -134q-58 -64 -99 -64q-88 6 -99 82q11 122 117 175zM1138 1855l46 -5l12 -12q-17 -35 -17 -88l29 -5h23l18 87l52 -6l6 -11l-58 -251l-59 11q6 70 18 70q17 41 -35 41l-18 -6l-17 -87l-59 6q18 140 59 256zM58 1062l2 -148v-24l8 -54l2 -30
l18 -65l11 -6v-29l82 -181l117 -152l58 -58l128 -99q216 -128 455 -152l199 6q99 18 245 64l64 29l123 76l163 146l117 163q99 222 110 380q18 210 -64 426l-99 181q-280 385 -753 408l-157 -6l-204 -47q-286 -99 -469 -366q-138 -205 -156 -462zM1144 1990
q239 -35 431 -164l175 -151q117 -135 187 -298q21 -59 41 -128q117 -467 -193 -887q-303 -326 -694 -362q-181 -6 -286 18q-700 180 -793 898q-6 181 17 286q175 671 846 788q137 20 269 0zM937 1254l1 7v-10zM937 1257v-11l1 3l1 -12l29 -25l47 -30l10 -10h19l-3 14l-24 8
l-41 29l-38 42zM938 1249l1 1l-1 1v-2z" />
    <glyph glyph-name="asciitilde" unicode="~" horiz-adv-x="1472" 
d="M1708 1444v-430h-400l-336 -484v-530h-472v530l-630 914h570l294 -446l298 446h676z" />
    <glyph glyph-name="paragraph" unicode="&#xb6;" horiz-adv-x="2048" 
d="M1407 -283h448v-140h-112v-140h253q-197 196 -56 280h280v-112l-140 -56q168 -169 0 -253h-449l-28 253l-112 28l-28 -281h-85l-140 141v-141h-112v421q112 56 224 -112q0 112 57 112zM841 -624l113 28l-28 197l-141 -28q-28 -140 56 -197zM1094 -399q56 -225 -140 -309
q-281 0 -309 141q-56 140 140 280q281 0 309 -112zM224 -287h393v-140l-196 -28h140v-84h-112l-56 -169l-113 28l-56 253v140zM1447 -51h85l-29 140l-56 -56v-84zM998 -51v-85l141 28l-28 57h-113zM998 33h113v56h-113v-56zM858 201q365 28 393 -56q28 -140 -56 -168
q84 28 84 -85l112 309h197l112 -337v-84l-281 84l-56 -84l-140 56q-112 -84 -365 -56v421zM578 -136l112 28l-28 197l-140 -28q-29 -140 56 -197zM101 -51v-85l140 28l-28 57h-112zM101 33h112v56h-112v-56zM-124 61v140q477 28 477 -56q28 -140 -56 -168l56 -28
q56 224 169 252q280 0 308 -112q56 -225 -140 -309h-168l-141 141q-28 -169 -393 -141l-28 281h-84zM2077 370q-20 50 -60.5 47.5t-74.5 -22.5t-96 -28.5t-107 -20t78.5 -2.5t259.5 26zM340 338q-147 -30 -188.5 -51t-24 -34.5t65 -6.5t147.5 92zM577 2364l-53 -587l71 587
h-18zM1493 1888q67 -2 89.5 -43t13.5 -48.5t-22 -3.5t-33 9t-56.5 39t8.5 47zM1443 1883q16 -69 52.5 -87.5t60.5 -23.5t40.5 13.5t2.5 43.5t-40.5 43.5t-48 21t-67.5 -10.5zM1173.5 1995q-60.5 0 -110 -7.5t-109.5 -54.5q151 -17 233 -21t165.5 -9t100 4t7.5 26t-43 32
t-108.5 22.5t-135 7.5zM1317.5 1566q247.5 0 426.5 -69l5 -37l-83 20l-270 19l-197 10l-240 5l-172 -2l-142 -13l-85 -14l-5 12l27 22q140 37 314 42t421.5 5zM555 1514l-11 -15l16 -24l121 17l131 12l179 3l298 -12l195 -20l204 -3l66 -27l-5 67q-83 32 -177 46t-233 23
t-276 6t-251 -8t-257 -65zM1767 648q-39 280 -72 373t-71 79q-62 -39 -83.5 -86t-30 -93t-29.5 -189l-15 -164l-10 -96l311 163v13zM1067 459q-37 133 -56.5 208t-45 163t-69.5 175t-137 118q-98 -7 -135 -53t-69.5 -126.5t-68.5 -261.5zM1747 1267v104l-51 -6l28 38l7 44
l-80 15l-33 -101l29 -1l-231 -26l-3 -870l23 3q53 498 94.5 599.5t69.5 133.5t74.5 49.5t72.5 17.5zM1432 1315l292 41l10 -72q-66 -20 -101 -35t-60.5 -54.5t-58.5 -121t-63 -324.5l-23 -213zM544 1395l335 -34l213 -42l-15 -728l-21 191q-22 210 -47 289t-80.5 138.5
t-111 88t-116.5 32.5t-144 8zM1557 1462l-20 -106l40 2l36 97zM610 1423h10l8 37l-71 5v-37zM764 1400l15 90l-30 2l-20 -92h35zM918 1492l-35 -99l96 -20l20 114zM1408 1348v124l-106 10v-173l10 -20l-5 -827l81 -5l5 891h15zM499 2515l379 39l20 -64l-167 -119l-106 -10
l-70 -738q80 208 191.5 285t260.5 97t303 2.5t234.5 -69.5t136 -166t71.5 -233l20 -40l5 -183l81 -649l-283 -148l5 -25l30 -25q316 79 334 -10l122 -19q69 -80 -1 -114l-1445 -40l-485 -59q-75 54 182 173l313 25l-45 49l-20 50l40 59l5 25l-141 64l60 644v62l8 -59
q63 2 132.5 -1.5t129 -34.5t113.5 -88t77 -128t78 -528l23 -13l18 810l-230 40l-349 38v66q-40 10 -60 69l86 807l-66 30l-25 84zM1696 1365l-5 -7l-44 2zM529 1378l-5 37l5 -1v-36z" />
    <glyph glyph-name="questiondown" unicode="&#xbf;" horiz-adv-x="1176" 
d="M893 1083h-446v385h446v-385zM84 332q0 120 48.5 188.5t147 148.5t142 132t43.5 132h410q-13 -240 -100 -304.5t-130.5 -98.5t-43.5 -86t51.5 -68t135.5 -16q160 0 304 68v-353q-239 -75 -446 -75q-311 0 -436.5 106t-125.5 226z" />
    <glyph glyph-name="Agrave" unicode="&#xc0;" 
d="M203 1796h462l176 -318zM755 1124l-207 -572h398zM-80 0l475 1444h717l483 -1444h-546l-91 260h-429l-91 -260h-518z" />
    <glyph glyph-name="Aacute" unicode="&#xc1;" 
d="M755 1124l-207 -572h398zM-80 0l475 1444h717l483 -1444h-546l-91 260h-429l-91 -260h-518zM673 1478l176 318h462z" />
    <glyph glyph-name="Acircumflex" unicode="&#xc2;" 
d="M755 1124l-207 -572h398zM-80 0l475 1444h717l483 -1444h-546l-91 260h-429l-91 -260h-518zM1030 1472l-277 174l-280 -171v59l278 283l279 -283v-62z" />
    <glyph glyph-name="Atilde" unicode="&#xc3;" 
d="M1128 1636q-240 -232 -408 -50t-253 15l-60 47q147 270 322 79t323 -51zM755 1124l-207 -572h398zM-80 0l475 1444h717l483 -1444h-546l-91 260h-429l-91 -260h-518z" />
    <glyph glyph-name="Adieresis" unicode="&#xc4;" 
d="M940 1764q52 0 84.5 -33.5t32.5 -83.5q-5 -61 -38.5 -92t-82.5 -31t-82 33t-33 86t33.5 87t85.5 34zM562 1764q52 0 84.5 -33.5t32.5 -83.5q-5 -61 -38.5 -92t-82.5 -31t-82 33t-33 86t33.5 87t85.5 34zM755 1124l-207 -572h398zM-80 0l475 1444h717l483 -1444h-546
l-91 260h-429l-91 -260h-518z" />
    <glyph glyph-name="Aring" unicode="&#xc5;" 
d="M752 1768q-52 0 -85.5 -34t-33.5 -87t33 -86t82 -33t82.5 31t38.5 92q0 50 -32.5 83.5t-84.5 33.5zM752 1844q85 0 139.5 -55t54.5 -137t-60 -140t-140 -58t-134.5 53t-54.5 139t55 142t140 56zM755 1124l-207 -572h398zM-80 0l475 1444h717l483 -1444h-546l-91 260h-429
l-91 -260h-518z" />
    <glyph glyph-name="AE" unicode="&#xc6;" horiz-adv-x="2062" 
d="M756 0v260h-227l-91 -260h-518l475 1444h1605v-430h-768v-166h496v-252h-496v-166h890v-430h-1366zM756 552v570l-208 -570h208z" />
    <glyph glyph-name="Ccedilla" unicode="&#xc7;" horiz-adv-x="1440" 
d="M10 738q0 342 176 480.5t291 192t339 65.5q232 -12 354 -56t246 -160l-284 -316q-72 60 -128 86t-184 34q-124 -16 -185 -51t-105 -95t-52 -180q8 -120 52 -180t105 -95t185 -51q128 8 184 34t128 86l284 -316q-124 -116 -246 -160t-272 -55v-113q107 -20 159 -68
t52 -116q0 -92 -101.5 -160.5t-261.5 -68.5q-63 0 -159 8l15 87q42 -12 121 -13q150 -2 150 115q0 38 -38.5 66t-76.5 28t-65 -3l-1 241q-205 16 -443.5 204t-238.5 530z" />
    <glyph glyph-name="Egrave" unicode="&#xc8;" horiz-adv-x="1360" 
d="M203 1796h462l176 -318zM60 0v1444h1238v-430h-768v-166h496v-252h-496v-166h890v-430h-1360z" />
    <glyph glyph-name="Eacute" unicode="&#xc9;" horiz-adv-x="1360" 
d="M673 1478l176 318h462zM60 0v1444h1238v-430h-768v-166h496v-252h-496v-166h890v-430h-1360z" />
    <glyph glyph-name="Ecircumflex" unicode="&#xca;" horiz-adv-x="1360" 
d="M1030 1472l-277 174l-280 -171v59l278 283l279 -283v-62zM60 0v1444h1238v-430h-768v-166h496v-252h-496v-166h890v-430h-1360z" />
    <glyph glyph-name="Edieresis" unicode="&#xcb;" horiz-adv-x="1360" 
d="M940 1764q52 0 84.5 -33.5t32.5 -83.5q-5 -61 -38.5 -92t-82.5 -31t-82 33t-33 86t33.5 87t85.5 34zM562 1764q52 0 84.5 -33.5t32.5 -83.5q-5 -61 -38.5 -92t-82.5 -31t-82 33t-33 86t33.5 87t85.5 34zM60 0v1444h1238v-430h-768v-166h496v-252h-496v-166h890v-430
h-1360z" />
    <glyph glyph-name="Igrave" unicode="&#xcc;" horiz-adv-x="550" 
d="M26 1796h371l113 -316zM40 1444h470v-1444h-470v1444z" />
    <glyph glyph-name="Iacute" unicode="&#xcd;" horiz-adv-x="550" 
d="M41 1480l113 316h368zM508 0h-467v1444h467v-1444z" />
    <glyph glyph-name="Icircumflex" unicode="&#xce;" horiz-adv-x="550" 
d="M502 1478l-228 174l-229 -171v59l228 283l229 -283v-62zM40 1444h470v-1444h-470v1444z" />
    <glyph glyph-name="Idieresis" unicode="&#xcf;" horiz-adv-x="550" 
d="M434 1764q52 0 84.5 -33.5t32.5 -83.5q-5 -61 -38.5 -92t-82.5 -31t-82 33t-33 86t33.5 87t85.5 34zM122 1764q52 0 84.5 -33.5t32.5 -83.5q-5 -61 -38.5 -92t-82.5 -31t-82 33t-33 86t33.5 87t85.5 34zM40 1444h470v-1444h-470v1444z" />
    <glyph glyph-name="Eth" unicode="&#xd0;" horiz-adv-x="1804" 
d="M694 1086v-290h280v-254h-280v-182h275q161 0 220 101t69 261q-3 146 -62 255t-229 109h-273zM212 0v542h-254v252h254v650h852q506 0 623 -257t117 -470q-22 -386 -214.5 -555t-549.5 -162h-828z" />
    <glyph glyph-name="Ntilde" unicode="&#xd1;" horiz-adv-x="1430" 
d="M1112 1636q-240 -232 -408 -50t-253 15l-60 47q147 270 322 79t323 -51zM60 0v1444h470l430 -540v540h470v-1444h-470l-430 540v-540h-470z" />
    <glyph glyph-name="Ograve" unicode="&#xd2;" horiz-adv-x="1677" 
d="M523 710q0 -139 62.5 -242t246.5 -103q142 0 212.5 54t88 123.5t23.5 167.5q-6 139 -67 242.5t-257 103.5q-309 0 -309 -346zM203 1796h462l176 -318zM1668 714q0 -237 -99 -404t-286.5 -251t-447.5 -84t-542.5 128t-282.5 611q0 358 215.5 549.5t609.5 191.5
q259 0 447 -85.5t287 -252t99 -403.5z" />
    <glyph glyph-name="Oacute" unicode="&#xd3;" horiz-adv-x="1677" 
d="M523 710q0 -139 62.5 -242t246.5 -103q142 0 212.5 54t88 123.5t23.5 167.5q-6 139 -67 242.5t-257 103.5q-309 0 -309 -346zM673 1478l176 318h462zM1668 714q0 -237 -99 -404t-286.5 -251t-447.5 -84t-542.5 128t-282.5 611q0 358 215.5 549.5t609.5 191.5
q259 0 447 -85.5t287 -252t99 -403.5z" />
    <glyph glyph-name="Ocircumflex" unicode="&#xd4;" horiz-adv-x="1677" 
d="M523 710q0 -139 62.5 -242t246.5 -103q142 0 212.5 54t88 123.5t23.5 167.5q-6 139 -67 242.5t-257 103.5q-309 0 -309 -346zM1114 1472l-287 185l-290 -181v62l287 300l290 -300v-66zM1668 714q0 -237 -99 -404t-286.5 -251t-447.5 -84t-542.5 128t-282.5 611
q0 358 215.5 549.5t609.5 191.5q259 0 447 -85.5t287 -252t99 -403.5z" />
    <glyph glyph-name="Otilde" unicode="&#xd5;" horiz-adv-x="1677" 
d="M523 710q0 -139 62.5 -242t246.5 -103q142 0 212.5 54t88 123.5t23.5 167.5q-6 139 -67 242.5t-257 103.5q-309 0 -309 -346zM1200 1640q-240 -232 -408 -50t-253 15l-60 47q147 270 322 79t323 -51zM1668 714q0 -237 -99 -404t-286.5 -251t-447.5 -84t-542.5 128
t-282.5 611q0 358 215.5 549.5t609.5 191.5q259 0 447 -85.5t287 -252t99 -403.5z" />
    <glyph glyph-name="Odieresis" unicode="&#xd6;" horiz-adv-x="1677" 
d="M523 710q0 -139 62.5 -242t246.5 -103q142 0 212.5 54t88 123.5t23.5 167.5q-6 139 -67 242.5t-257 103.5q-309 0 -309 -346zM562 1764q52 0 84.5 -33.5t32.5 -83.5q-5 -61 -38.5 -92t-82.5 -31t-82 33t-33 86t33.5 87t85.5 34zM1122 1764q52 0 84.5 -33.5t32.5 -83.5
q-5 -61 -38.5 -92t-82.5 -31t-82 33t-33 86t33.5 87t85.5 34zM1668 714q0 -237 -99 -404t-286.5 -251t-447.5 -84t-542.5 128t-282.5 611q0 358 215.5 549.5t609.5 191.5q259 0 447 -85.5t287 -252t99 -403.5z" />
    <glyph glyph-name="Oslash" unicode="&#xd8;" horiz-adv-x="1677" 
d="M1056 972q0 76 -220 84q-320 0 -306 -349q-6 -67 6 -135zM1668 714q0 -237 -99 -404t-286.5 -251t-447.5 -84t-555 149l-168 -132l-110 148l134 108q-126 227 -126 466q0 358 215.5 549.5t609.5 191.5q259 0 410 -71.5t201 -109.5l110 88l112 -150l-88 -78
q88 -183 88 -420zM640 420q4 -48 188 -52q148 0 238 76t94 245v123z" />
    <glyph glyph-name="Ugrave" unicode="&#xd9;" horiz-adv-x="1454" 
d="M203 1796h462l176 -318zM480 1444v-854q-6 -146 56 -203t194 -61q106 2 177 62t67 202v854h470v-847q-3 -180 -59.5 -287.5t-188.5 -217.5t-462 -118q-133 3 -270.5 36.5t-240 105.5t-158 185t-55.5 295v848h470z" />
    <glyph glyph-name="Uacute" unicode="&#xda;" horiz-adv-x="1454" 
d="M673 1478l176 318h462zM480 1444v-854q-6 -146 56 -203t194 -61q106 2 177 62t67 202v854h470v-847q-3 -180 -59.5 -287.5t-188.5 -217.5t-462 -118q-133 3 -270.5 36.5t-240 105.5t-158 185t-55.5 295v848h470z" />
    <glyph glyph-name="Ucircumflex" unicode="&#xdb;" horiz-adv-x="1454" 
d="M1030 1472l-287 185l-290 -181v62l287 300l290 -300v-66zM480 1444v-854q-6 -146 56 -203t194 -61q106 2 177 62t67 202v854h470v-847q-3 -180 -59.5 -287.5t-188.5 -217.5t-462 -118q-133 3 -270.5 36.5t-240 105.5t-158 185t-55.5 295v848h470z" />
    <glyph glyph-name="Udieresis" unicode="&#xdc;" horiz-adv-x="1454" 
d="M498 1764q52 0 84.5 -33.5t32.5 -83.5q-5 -61 -38.5 -92t-82.5 -31t-82 33t-33 86t33.5 87t85.5 34zM946 1768q52 0 84.5 -33.5t32.5 -83.5q-5 -61 -38.5 -92t-82.5 -31t-82 33t-33 86t33.5 87t85.5 34zM480 1444v-854q-6 -146 56 -203t194 -61q106 2 177 62t67 202v854
h470v-847q-3 -180 -59.5 -287.5t-188.5 -217.5t-462 -118q-133 3 -270.5 36.5t-240 105.5t-158 185t-55.5 295v848h470z" />
    <glyph glyph-name="Yacute" unicode="&#xdd;" horiz-adv-x="1472" 
d="M621 1478l176 318h462zM972 0h-472v530l-630 914h570l294 -446l298 446h570l-630 -914v-530z" />
    <glyph glyph-name="Thorn" unicode="&#xde;" horiz-adv-x="1378" 
d="M510 908v-378l222 -1q131 0 179 53t56 137q-2 76 -49 132.5t-188 56.5h-220zM510 0h-470v1444h470v-253q400 1 630.5 -61t230.5 -401q-16 -245 -173 -353.5t-448 -104.5l-240 1v-272z" />
    <glyph glyph-name="germandbls" unicode="&#xdf;" horiz-adv-x="1628" 
d="M558 1094v-1390h-498v1740h985q237 -2 360.5 -82t149.5 -268q9 -144 -61 -226t-231 -135v-4q157 -20 255.5 -116.5t98.5 -213.5q0 -171 -87.5 -259t-225 -115t-333.5 -25h-287v292h195q83 -3 145 36t62 96q6 63 -50.5 99t-156.5 36l-235 1v316l264 -1q29 0 61 30.5
t34 81.5q-4 59 -38.5 83t-57.5 24h-349z" />
    <glyph glyph-name="agrave" unicode="&#xe0;" 
d="M203 1796h462l176 -318zM755 1124l-207 -572h398zM-80 0l475 1444h717l483 -1444h-546l-91 260h-429l-91 -260h-518z" />
    <glyph glyph-name="aacute" unicode="&#xe1;" 
d="M755 1124l-207 -572h398zM-80 0l475 1444h717l483 -1444h-546l-91 260h-429l-91 -260h-518zM673 1478l176 318h462z" />
    <glyph glyph-name="acircumflex" unicode="&#xe2;" 
d="M1030 1472l-277 174l-280 -171v59l278 283l279 -283v-62zM755 1124l-207 -572h398zM-80 0l475 1444h717l483 -1444h-546l-91 260h-429l-91 -260h-518z" />
    <glyph glyph-name="atilde" unicode="&#xe3;" 
d="M1128 1636q-240 -232 -408 -50t-253 15l-60 47q147 270 322 79t323 -51zM755 1124l-207 -572h398zM-80 0l475 1444h717l483 -1444h-546l-91 260h-429l-91 -260h-518z" />
    <glyph glyph-name="adieresis" unicode="&#xe4;" 
d="M940 1764q52 0 84.5 -33.5t32.5 -83.5q-5 -61 -38.5 -92t-82.5 -31t-82 33t-33 86t33.5 87t85.5 34zM562 1764q52 0 84.5 -33.5t32.5 -83.5q-5 -61 -38.5 -92t-82.5 -31t-82 33t-33 86t33.5 87t85.5 34zM755 1124l-207 -572h398zM-80 0l475 1444h717l483 -1444h-546
l-91 260h-429l-91 -260h-518z" />
    <glyph glyph-name="aring" unicode="&#xe5;" 
d="M752 1768q-52 0 -85.5 -34t-33.5 -87t33 -86t82 -33t82.5 31t38.5 92q0 50 -32.5 83.5t-84.5 33.5zM752 1844q85 0 139.5 -55t54.5 -137t-60 -140t-140 -58t-134.5 53t-54.5 139t55 142t140 56zM755 1124l-207 -572h398zM-80 0l475 1444h717l483 -1444h-546l-91 260h-429
l-91 -260h-518z" />
    <glyph glyph-name="ae" unicode="&#xe6;" horiz-adv-x="2062" 
d="M756 0v260h-227l-91 -260h-518l475 1444h1605v-430h-768v-166h496v-252h-496v-166h890v-430h-1366zM756 552v570l-208 -570h208z" />
    <glyph glyph-name="ccedilla" unicode="&#xe7;" horiz-adv-x="1484" 
d="M10 743q0 170 65.5 303.5t238.5 265.5t530 132h640v-430h-452q-152 0 -225 -9t-130 -30t-101 -73t-51 -184q5 -128 51 -183t137.5 -80t318.5 -25h452v-430h-526v-112q107 -20 159 -68t52 -116q0 -92 -101.5 -160.5t-261.5 -68.5q-63 0 -159 8l15 87q42 -12 121 -13
q150 -2 150 115q0 38 -38.5 66t-76.5 28t-65 -3l-1 241q-143 -4 -333 79.5t-299.5 250.5t-109.5 409z" />
    <glyph glyph-name="egrave" unicode="&#xe8;" horiz-adv-x="1360" 
d="M203 1796h462l176 -318zM60 0v1444h1238v-430h-768v-166h496v-252h-496v-166h890v-430h-1360z" />
    <glyph glyph-name="eacute" unicode="&#xe9;" horiz-adv-x="1360" 
d="M673 1478l176 318h462zM60 0v1444h1238v-430h-768v-166h496v-252h-496v-166h890v-430h-1360z" />
    <glyph glyph-name="ecircumflex" unicode="&#xea;" horiz-adv-x="1360" 
d="M1030 1472l-277 174l-280 -171v59l278 283l279 -283v-62zM60 0v1444h1238v-430h-768v-166h496v-252h-496v-166h890v-430h-1360z" />
    <glyph glyph-name="edieresis" unicode="&#xeb;" horiz-adv-x="1360" 
d="M940 1764q52 0 84.5 -33.5t32.5 -83.5q-5 -61 -38.5 -92t-82.5 -31t-82 33t-33 86t33.5 87t85.5 34zM562 1764q52 0 84.5 -33.5t32.5 -83.5q-5 -61 -38.5 -92t-82.5 -31t-82 33t-33 86t33.5 87t85.5 34zM60 0v1444h1238v-430h-768v-166h496v-252h-496v-166h890v-430
h-1360z" />
    <glyph glyph-name="igrave" unicode="&#xec;" horiz-adv-x="550" 
d="M26 1796h371l113 -316zM40 1444h470v-1444h-470v1444z" />
    <glyph glyph-name="iacute" unicode="&#xed;" horiz-adv-x="550" 
d="M41 1480l113 316h368zM508 0h-467v1444h467v-1444z" />
    <glyph glyph-name="icircumflex" unicode="&#xee;" horiz-adv-x="550" 
d="M502 1478l-228 174l-229 -171v59l228 283l229 -283v-62zM40 1444h470v-1444h-470v1444z" />
    <glyph glyph-name="idieresis" unicode="&#xef;" horiz-adv-x="550" 
d="M434 1764q52 0 84.5 -33.5t32.5 -83.5q-5 -61 -38.5 -92t-82.5 -31t-82 33t-33 86t33.5 87t85.5 34zM122 1764q52 0 84.5 -33.5t32.5 -83.5q-5 -61 -38.5 -92t-82.5 -31t-82 33t-33 86t33.5 87t85.5 34zM40 1444h470v-1444h-470v1444z" />
    <glyph glyph-name="eth" unicode="&#xf0;" horiz-adv-x="1804" 
d="M694 1086v-290h280v-254h-280v-182h275q161 0 220 101t69 261q-3 146 -62 255t-229 109h-273zM212 0v542h-254v252h254v650h852q506 0 623 -257t117 -470q-22 -386 -214.5 -555t-549.5 -162h-828z" />
    <glyph glyph-name="ntilde" unicode="&#xf1;" horiz-adv-x="1430" 
d="M1112 1636q-240 -232 -408 -50t-253 15l-60 47q147 270 322 79t323 -51zM60 0v1444h470l430 -540v540h470v-1444h-470l-430 540v-540h-470z" />
    <glyph glyph-name="ograve" unicode="&#xf2;" horiz-adv-x="1677" 
d="M523 710q0 -139 62.5 -242t246.5 -103q142 0 212.5 54t88 123.5t23.5 167.5q-6 139 -67 242.5t-257 103.5q-309 0 -309 -346zM203 1796h462l176 -318zM1668 714q0 -237 -99 -404t-286.5 -251t-447.5 -84t-542.5 128t-282.5 611q0 358 215.5 549.5t609.5 191.5
q259 0 447 -85.5t287 -252t99 -403.5z" />
    <glyph glyph-name="oacute" unicode="&#xf3;" horiz-adv-x="1677" 
d="M523 710q0 -139 62.5 -242t246.5 -103q142 0 212.5 54t88 123.5t23.5 167.5q-6 139 -67 242.5t-257 103.5q-309 0 -309 -346zM673 1478l176 318h462zM1668 714q0 -237 -99 -404t-286.5 -251t-447.5 -84t-542.5 128t-282.5 611q0 358 215.5 549.5t609.5 191.5
q259 0 447 -85.5t287 -252t99 -403.5z" />
    <glyph glyph-name="ocircumflex" unicode="&#xf4;" horiz-adv-x="1677" 
d="M523 710q0 -139 62.5 -242t246.5 -103q142 0 212.5 54t88 123.5t23.5 167.5q-6 139 -67 242.5t-257 103.5q-309 0 -309 -346zM1114 1472l-287 185l-290 -181v62l287 300l290 -300v-66zM1668 714q0 -237 -99 -404t-286.5 -251t-447.5 -84t-542.5 128t-282.5 611
q0 358 215.5 549.5t609.5 191.5q259 0 447 -85.5t287 -252t99 -403.5z" />
    <glyph glyph-name="otilde" unicode="&#xf5;" horiz-adv-x="1677" 
d="M523 710q0 -139 62.5 -242t246.5 -103q142 0 212.5 54t88 123.5t23.5 167.5q-6 139 -67 242.5t-257 103.5q-309 0 -309 -346zM1200 1640q-240 -232 -408 -50t-253 15l-60 47q147 270 322 79t323 -51zM1668 714q0 -237 -99 -404t-286.5 -251t-447.5 -84t-542.5 128
t-282.5 611q0 358 215.5 549.5t609.5 191.5q259 0 447 -85.5t287 -252t99 -403.5z" />
    <glyph glyph-name="odieresis" unicode="&#xf6;" horiz-adv-x="1677" 
d="M523 710q0 -139 62.5 -242t246.5 -103q142 0 212.5 54t88 123.5t23.5 167.5q-6 139 -67 242.5t-257 103.5q-309 0 -309 -346zM562 1764q52 0 84.5 -33.5t32.5 -83.5q-5 -61 -38.5 -92t-82.5 -31t-82 33t-33 86t33.5 87t85.5 34zM1122 1764q52 0 84.5 -33.5t32.5 -83.5
q-5 -61 -38.5 -92t-82.5 -31t-82 33t-33 86t33.5 87t85.5 34zM1668 714q0 -237 -99 -404t-286.5 -251t-447.5 -84t-542.5 128t-282.5 611q0 358 215.5 549.5t609.5 191.5q259 0 447 -85.5t287 -252t99 -403.5z" />
    <glyph glyph-name="oslash" unicode="&#xf8;" horiz-adv-x="1677" 
d="M1056 972q0 76 -220 84q-320 0 -306 -349q-6 -67 6 -135zM1668 714q0 -237 -99 -404t-286.5 -251t-447.5 -84t-555 149l-168 -132l-110 148l134 108q-126 227 -126 466q0 358 215.5 549.5t609.5 191.5q259 0 410 -71.5t201 -109.5l110 88l112 -150l-88 -78
q88 -183 88 -420zM640 420q4 -48 188 -52q148 0 238 76t94 245v123z" />
    <glyph glyph-name="ugrave" unicode="&#xf9;" horiz-adv-x="1454" 
d="M203 1796h462l176 -318zM480 1444v-854q-6 -146 56 -203t194 -61q106 2 177 62t67 202v854h470v-847q-3 -180 -59.5 -287.5t-188.5 -217.5t-462 -118q-133 3 -270.5 36.5t-240 105.5t-158 185t-55.5 295v848h470z" />
    <glyph glyph-name="uacute" unicode="&#xfa;" horiz-adv-x="1454" 
d="M673 1478l176 318h462zM480 1444v-854q-6 -146 56 -203t194 -61q106 2 177 62t67 202v854h470v-847q-3 -180 -59.5 -287.5t-188.5 -217.5t-462 -118q-133 3 -270.5 36.5t-240 105.5t-158 185t-55.5 295v848h470z" />
    <glyph glyph-name="ucircumflex" unicode="&#xfb;" horiz-adv-x="1454" 
d="M1030 1472l-287 185l-290 -181v62l287 300l290 -300v-66zM480 1444v-854q-6 -146 56 -203t194 -61q106 2 177 62t67 202v854h470v-847q-3 -180 -59.5 -287.5t-188.5 -217.5t-462 -118q-133 3 -270.5 36.5t-240 105.5t-158 185t-55.5 295v848h470z" />
    <glyph glyph-name="udieresis" unicode="&#xfc;" horiz-adv-x="1454" 
d="M498 1764q52 0 84.5 -33.5t32.5 -83.5q-5 -61 -38.5 -92t-82.5 -31t-82 33t-33 86t33.5 87t85.5 34zM946 1768q52 0 84.5 -33.5t32.5 -83.5q-5 -61 -38.5 -92t-82.5 -31t-82 33t-33 86t33.5 87t85.5 34zM480 1444v-854q-6 -146 56 -203t194 -61q106 2 177 62t67 202v854
h470v-847q-3 -180 -59.5 -287.5t-188.5 -217.5t-462 -118q-133 3 -270.5 36.5t-240 105.5t-158 185t-55.5 295v848h470z" />
    <glyph glyph-name="yacute" unicode="&#xfd;" horiz-adv-x="1472" 
d="M621 1478l176 318h462zM972 0h-472v530l-630 914h570l294 -446l298 446h570l-630 -914v-530z" />
    <glyph glyph-name="thorn" unicode="&#xfe;" horiz-adv-x="1378" 
d="M510 908v-378l222 -1q131 0 179 53t56 137q-2 76 -49 132.5t-188 56.5h-220zM510 0h-470v1444h470v-253q400 1 630.5 -61t230.5 -401q-16 -245 -173 -353.5t-448 -104.5l-240 1v-272z" />
    <glyph glyph-name="ydieresis" unicode="&#xff;" horiz-adv-x="1472" 
d="M946 1768q52 0 84.5 -33.5t32.5 -83.5q-5 -61 -38.5 -92t-82.5 -31t-82 33t-33 86t33.5 87t85.5 34zM498 1764q52 0 84.5 -33.5t32.5 -83.5q-5 -61 -38.5 -92t-82.5 -31t-82 33t-33 86t33.5 87t85.5 34zM972 0h-472v530l-630 914h570l294 -446l298 446h570l-630 -914
v-530z" />
    <glyph glyph-name="OE" unicode="&#x152;" horiz-adv-x="2062" 
d="M523 710q0 -139 62.5 -242t246.5 -103v691q-309 0 -309 -346zM2000 1444v-430h-768v-166h496v-252h-496v-166h890v-430h-1366q-176 -8 -360 86t-280 244t-92 386q-14 326 204 523t604 205h1168z" />
    <glyph glyph-name="oe" unicode="&#x153;" horiz-adv-x="2062" 
d="M523 710q0 -139 62.5 -242t246.5 -103v691q-309 0 -309 -346zM2000 1444v-430h-768v-166h496v-252h-496v-166h890v-430h-1366q-176 -8 -360 86t-280 244t-92 386q-14 326 204 523t604 205h1168z" />
    <glyph glyph-name="Scaron" unicode="&#x160;" horiz-adv-x="1135" 
d="M922 1824l-290 -366l-287 366v76l290 -221l287 225v-80zM1196 1444v-430h-352q-257 8 -76 -142q324 -284 318 -552t-318 -320h-768v430h304q283 -8 72 158q-348 320 -296 588t328 268h788z" />
    <glyph glyph-name="scaron" unicode="&#x161;" horiz-adv-x="1135" 
d="M922 1824l-290 -366l-287 366v76l290 -221l287 225v-80zM1196 1444v-430h-352q-257 8 -76 -142q324 -284 318 -552t-318 -320h-768v430h304q283 -8 72 158q-348 320 -296 588t328 268h788z" />
    <glyph glyph-name="Ydieresis" unicode="&#x178;" horiz-adv-x="1472" 
d="M946 1768q52 0 84.5 -33.5t32.5 -83.5q-5 -61 -38.5 -92t-82.5 -31t-82 33t-33 86t33.5 87t85.5 34zM498 1764q52 0 84.5 -33.5t32.5 -83.5q-5 -61 -38.5 -92t-82.5 -31t-82 33t-33 86t33.5 87t85.5 34zM972 0h-472v530l-630 914h570l294 -446l298 446h570l-630 -914
v-530z" />
    <glyph glyph-name="Zcaron" unicode="&#x17d;" horiz-adv-x="1400" 
d="M922 1824l-290 -366l-287 366v76l290 -221l287 225v-80zM40 1444h1320v-430l-699 -584h699v-430h-1320v430l699 584h-699v430z" />
    <glyph glyph-name="zcaron" unicode="&#x17e;" horiz-adv-x="1400" 
d="M922 1824l-290 -366l-287 366v76l290 -221l287 225v-80zM40 1444h1320v-430l-699 -584h699v-430h-1320v430l699 584h-699v430z" />
    <glyph glyph-name="quoteleft" unicode="&#x2018;" horiz-adv-x="647" 
d="M170 1444h307l-1 -630l-306 314v316z" />
    <glyph glyph-name="quoteright" unicode="&#x2019;" horiz-adv-x="647" 
d="M170 1444h307v-315l-307 -316v631z" />
    <glyph glyph-name="quotedblleft" unicode="&#x201c;" horiz-adv-x="1139" 
d="M635 1444h307v-630l-307 314v316zM197 1444h307v-630l-307 314v316z" />
    <glyph glyph-name="quotedblright" unicode="&#x201d;" horiz-adv-x="1139" 
d="M635 1444h307v-315l-307 -316v631zM197 1444h307v-315l-307 -316v631z" />
    <glyph glyph-name="quotedblbase" unicode="&#x201e;" horiz-adv-x="1649" 
d="M10 743q0 176 67.5 313.5t245.5 274.5t543 137q153 -4 315 -56t272 -162t168 -326h-436q-74 124 -142 152t-148 28t-148 -26t-108 -70t-72 -106t-36 -186q0 -132 50 -208t112 -112t163 -46t180 15t147 113h-194v254h660v-732h-348v118q-101 -143 -435 -143
q-356 -6 -537.5 141.5t-250 262t-68.5 364.5z" />
    <glyph glyph-name="dagger" unicode="&#x2020;" horiz-adv-x="1650" 
d="M10 743q0 175 68 313t186 230q237 182 585 182q347 0 554 -184q108 -96 170 -226t68 -178h-497q-16 100 -61 145t-79 60t-105 15q-72 0 -146 -24t-114 -68t-64 -98t-36 -194q21 -247 192 -328q76 -36 150 -40q73 -4 111 8t88 49t64 123h497q-6 -48 -124 -216t-278 -250
t-373 -87q-241 0 -436 86q-196 86 -308 259t-112 423z" />
    <glyph glyph-name="NULL" horiz-adv-x="0" 
 />
    <glyph glyph-name="glyph98" horiz-adv-x="2059" 
d="M1144 1990q239 -35 431 -164l175 -151q117 -135 187 -298q6 -53 41 -128q117 -467 -193 -887q-297 -333 -694 -362q-181 -6 -286 18q-700 180 -793 898q-6 181 17 286q175 671 846 788h269zM53 1062v-152l11 -17v-59l12 -11l12 -82l11 -6v-29l82 -181l117 -152l58 -58
l128 -99q216 -128 455 -152l199 6q99 18 245 64v12l64 17l123 76l163 146l117 163q99 222 110 380q18 210 -64 426l-99 181q-280 385 -753 408l-157 -6l-204 -47q-286 -99 -479 -367q-128 -204 -151 -461zM1721 904h-35l-6 -46l-64 11l12 94l12 6h58l198 -30l-6 -99l-52 6
l-6 -6l-6 47l-35 12l-6 -35l-46 -6l-18 6v40zM1675 1173v-18l17 -17h18l35 58q99 47 145 -52q0 -30 -46 -35l-41 35l-41 -59q-105 -41 -157 59l46 29h24zM1721 1500l47 -53l12 -35q17 -82 -111 -88l-35 -75l-70 5l6 30l58 75v6l-82 -52l-35 29q-6 29 12 35zM1710 753
q64 -18 52 -41q12 -23 -29 -64q-53 -18 -76 35q0 70 53 70zM1651 1377h35l29 23v18l-64 -35v-6zM1488 607l35 -6q0 -18 23 -18l-17 -52l76 -6l35 -23l23 -76l-23 -64q-18 -6 -59 35l18 46l-29 12q-88 -12 -105 76zM1465 1710q99 17 128 -59q12 -58 -47 -134q-58 -64 -99 -64
q-88 6 -99 82q11 122 117 175zM1418 1570v-41l12 -6l46 12l47 64v41l-12 5q-41 12 -93 -75zM1278 414q23 40 52 58t59 -40l-35 -47q-12 -47 52 -76l59 6l23 -29l-6 -41q-152 -17 -204 105v64zM998 1564l46 -12l47 -47l23 -46l-5 -24q46 12 52 -70h12l128 -175l53 -105
q11 -23 -53 -64h-17q-35 41 -59 35l29 -64q-23 -29 -52 -35l-47 41q0 99 -52 128l-47 23l-35 6l-23 -35v-99l58 -70l93 -47l12 -11l12 -82q-24 -146 -53 -158l-303 6q-88 123 -111 362v123l35 128l35 64l70 76q64 53 158 82zM1289 1103v-18l24 12v6h-24zM1138 1855l46 -5
l12 -12q-17 -35 -17 -88l29 -5h23l18 87l52 -6l6 -11l-58 -251l-59 11q6 70 18 70q17 41 -35 41l-18 -6l-17 -87l-59 6q18 140 59 256zM1138 397h35l52 -234v-23l-46 -12q-24 18 -65 222q-11 47 24 47zM1132 1307l17 -23l12 5l-12 18h-17zM834 560l280 -6l24 -17l11 -47
l12 -12l-6 -11l-367 11q35 88 46 82zM823 648h291l24 -18v-17l-333 5q6 30 18 30zM811 601l327 -6l-12 -29l-309 6l-12 17zM1068 1190v-6h11v6h-11zM747 1068l17 -140h12l23 -88l47 -93l152 -6l70 6l-105 12l-82 -6q-35 -6 -99 175q-23 64 -23 134l5 122l-11 -17l-6 -70
q12 -12 0 -29zM893 403q41 -65 35 -105l23 -18l47 99q23 6 23 -17q35 -146 23 -152l12 -23v-53l-35 -17l-23 6l-18 105l-52 -88l-47 88l-29 -100l-53 30l35 110l12 12q-6 23 35 93v24zM998 1202l11 -18h12l-17 18h-6zM928 1791q41 0 58 -29q18 -52 -41 -76q-58 6 -64 35
q-23 35 47 70zM939 1254v-17h12l-6 17h-6zM834 1336v-6h6v6h6v6h-6v-6h-6zM554 1762l35 -6l24 -46l17 -12l-6 105l65 -23l5 -94q76 -23 88 -52l-6 -64l-87 46h-12l6 -23h11l24 -53l-41 -29l-64 76l-82 134v24zM671 461q29 6 82 -18l23 -29v-81q-41 -111 -128 -135
q-88 12 -100 70q0 146 123 193zM613 280q17 0 11 -17q53 0 88 87q6 35 -18 53q-17 5 -58 -41l-23 -53v-29zM461 595q76 23 128 -47l-41 -52h-23q-12 23 -52 23q-30 -23 -41 -52q6 -64 17 -64l-46 -41q-35 -6 -41 87q35 134 99 146zM379 1605l59 -18l40 -64l88 -12l12 -29
v-41l-117 18v-12l70 -41l-23 -47l-41 12l-76 64q-35 12 -99 76q41 82 87 94zM455 1465v-6h6v6h-6zM449 1254h-58l-18 -52l30 -53l-35 -17q-30 -6 -35 12l-170 163l76 17l187 -5l12 -6q-6 -24 11 -29v-30zM373 1529l53 -47h6l-12 41l-17 12zM181 1079q82 18 163 -40l41 -94
l-6 -23l-181 -18h-75l-6 12q-18 140 64 163zM286 776h47l23 -23q0 -76 -29 -76q-64 -12 -76 47q6 40 35 52zM286 1266v-6h12v-11l17 -12l12 12l-6 17l-23 -6v6h-12zM181 992v-23l117 5q11 18 -53 47q-41 0 -64 -29zM1021 1184v-11h23l-5 11h-18zM986 1208v-6h6v6h-6z
M986 1208v6h-12v-6h12zM963 1225v-11h11l-5 11h-6zM951 1237v-12h12l-6 12h-6zM829 1319h5v5h-5v-5zM829 1319h-6v-6h6v6zM823 1313l-12 -6v-12l12 6v12zM811 1295l-23 -23l-24 -58v-30l35 88l12 6v17z" />
  </font>
</defs>
</svg>
